<mxfile host="65bd71144e">
    <diagram id="WYPjHVLPZIZAwzsqyMBG" name="Page-1">
        <mxGraphModel dx="1174" dy="825" grid="1" gridSize="10" guides="1" tooltips="1" connect="1" arrows="1" fold="1" page="1" pageScale="1" pageWidth="850" pageHeight="1100" math="0" shadow="0">
            <root>
                <mxCell id="0"/>
                <mxCell id="1" parent="0"/>
                <mxCell id="2" value="" style="shape=image;verticalLabelPosition=bottom;labelBackgroundColor=#ffffff;verticalAlign=top;aspect=fixed;imageAspect=0;image=data:image/png,iVBORw0KGgoAAAANSUhEUgAAAggAAAHCCAYAAACKZzEsAAAAAXNSR0IArs4c6QAAIABJREFUeF7sfQeYXGW9/ju9bi9JNm1DqKGGGnqAgGChBAu2K6Ber4pY8GJFxIZ/C1e9KpYrYkdRkCadAAoCARISQnqvm+07O739n/d39ku+nD2zO5Nsyma/8zz7zOzMmXO+857ye7/311wwi0HAIGAQMAgYBAwCBgEbAi6DiEHAIGAQMAgYBAwCBgE7AvuSIKh9FQE47Vf/vJx1eCxDrece+F4/5t3dx0huq9Sxj+Q+Sm2r0n0ovOw48/9Kt6XOg9O2DjRMSl0z+jVnMNmJ0r66D0fjdWJ/5h5M904lz/QD4Xld6TPrQH7+cWx7fdkbBIHbVIPXt68+tz9M9PX1A9Y/L/WbSj8fCtBKt1XucQxlbAwmg0meweTgx8RpoqKeGeVODg6266QSTIY79n3xbNoX+zCY7ERgODu5VwjDSBOEShi+zj4JQzljGYp9O7HD3WFYpfahxljJidif4x3qOCrFZaxj4nRzHiyYmOt654Sm1ASlnPvF3OuDUTKY7B4muo2x28lyr8Vy1ht2nXKM8lAbKff36gFb7vpqn/rv7KqELv/oDzn7b0r9r5OSUtsqxWCdxuU0hnL2Ucl498U+7LKhjrsTORoK3/09Xu5/LF4n5ZxDu9Jnl1PtDyknHIfC90C7d8rBxIkgjOS9bjDZVV12uuYO5OfJvnr+2e1fKRtc7mS13PUG7adSg13qBhruc12O0vepPnd6WNlnNk5MqtTN6wSwfR9ODzen2VQpkuJkOIfbR6UPm0r2MRSpKjUzGm68pS7UkcBkJMZbCh91bocjmpXga1cRSv1f7rXsRHgNJhYCI32vlyK5e+Mc7q6Bq+RaHInrxDz/rOtsuInn3rIJ5Z5D/TzZn2ulzqH+vLcT+1Jkw/Hz3SEI9t/oxl8Hk+sNtX31nf1hMNz21YHY91vRgdtWLrWt3dnHSG5rKObohO2+GO++2MfunMuRxL3SbRlMdueMDf5Npbjvzl5Hch8jua19ca/vi32MNkwqHe/evNf1bZea9Tt9zs9KkWCdVNgJ8bD3T6UEwT77V4TAaTtOBMFOCuwDLJccDHtgA+REB7PSC0HfRylg7Z/vzsVjZ5LDEaADZR+ljv1gxWRPrjmDyU701PVrMBmMif0aO1Dv9UqfWXty74wWTEbyunYy9nZiYLdtdnKhvte35aRADHluKiEI9nV1KU3/zum9nSw4raMfoBMRsasTTgeuqxH6+HSjq1/cpT63g23frgK6nH2obekn1P47+zp2VUUd+74Y757uoxJ8y8VkqOthT8dbzjnc033sDiZ7cs3t6XgNJrtmkuj3ZyXPJvszS39uOL0/GK8T8/zbNQhWv7ecnn/2CaKdGBQ0i+5EEpzuff7GbnP17ZQkCeUShOHIgTpoZhLoF7n6ncowGIooqJup1Gy9FGsd6vNS2zqQ9+F0sg7k8TqNbaRxH22Y7M54S92kw517/XfDrVvJealk3UrGUMm6uzuGvbWP3R3PcOdltIzX3OuD79K9gUkptUBXBbhfZeR1FwNHqAiB/nk5qsSgo6uUIDjN8tU2lPHXSYFu9NV7O4nQpRm7sXdiW/aZlf3A7Qzfvg39/1JsTT/pTu/L3Yc6Zn224HSiSu3DPnNx+r+cfZQ73lLrqX0MNfZy91HJeJ3ObSWYjMR4DzRM7NeS0/V9oF/XTuMb6/e6wcRCYKjn9Vh4/jkZd3XP2191AuBEFtT3ClM7wdC35zhBGY4gOH2vEwInAqATBf29IgZ2IqFvTycgdlbtdDA6WXBi4XZ2Z3/Yl7uP4WQyO+MbalyljmN/7kN/OB2smFSC72i8TsbCOaz03jGYDJa3DSYHFiZOhlk35MORAkUC9N/YyYLdFaHbRbvt2mU8QxEEp5mT/pmuBPC9nRg4fVaKMKhB2cmHHTy7wdd/52QAHFnRwIfDbavUvkv9zmlfle7DfjxOpGe0YFLpsQ+Hq9P3u7uP4fa1t3Df3fGWuo5HCyZ747o2mOxEwD7rHuq5N9S5UBM+J6OxL/axN66T0XCvO9kuJ/cADb86N+q9Ws/+v04cdPJgJwtDnfNhqxfqF4VODpSh58ZJBBRZUKRAvfoBTAVwAoDagfX4W7ubwU4QnIygE/Mdaqan4h4qnd3bZylOREltc7h9DLct/Tj1bekX9XBqxHD70Lc13HhLYVXJPvZ0vAcaJsMdu9O1a7/hxzIm6vrbV5jYyZ39/KkHYjnPk0runXKvE/XMtMu/+rh29z4sde+MZUwqOYe7i/tIPK/tqoG6HvRgQvWerz0AFgBYByA7QBy4DX6nr+f0+7JdDbrxG8ooq4taraMIgPpcEQaPIgF+f2RKfX3NR4LB6By/PzzO43FX2YhBOSzXrGMQMAgYBAwCBgGDwE4ECvl8IZbNJtuSyf4nurp6fp7JxDcMEAMa/7wDYaCN1l0P3Br/LzVplL2VIgh2tUAnBnZSoBQBpSTw1d/cPP6rPl/kqv7+RG0+X1ZGhbkADAIGAYOAQcAgYBAoAwGPx4OqqnBPLhe/a9u2rV8FkNEUBOVyUIqC3WWh/6/2Nsi1NBxB4A/04EKdHOjuBL5X6gHfH9HaevgdXV2xwwsFQw7KONdmFYOAQcAgYBAwCFSEgNvtRmNjzYo1a5ZdA2CFph5QRdDdDep/pRzopKBk/J4TQahEPVDEQJEDvvLv7a2tR32zo6OruqKj3Qsru1wuNI1rQXVt3V7YutmkEwIkhZ3bt6GvtxvF4pBBsgZAg4BBwCBgENgDBJqbG/vWrFnyJQB/HSAIigzwVb23By2qeAV7EOcuD+zhFAQOWw9IpPFX/yuXgiIFiiR4AVzb2jrjqx0dnXow4iAIav0+NAV86Mpk0ZlmnMWuS1ONBzURN7b35NGXGKxE+Bp8cAVcyHXlUEg5KxXBUBjjJ06G1+vbg1NgflopAqlkEm1bNyGbSVf6U7O+QcAgYBAwCJSJQGNjQ2HdujfoYrgDQG5AOVCvupKgSIFThoOuKOzY83AKgk4QVKyBelVkgYRAkQT1/oOtrTO+0tHRWfIQj6yO4DNHTMHhVWFsTKTxoxUbML+rb8f6Zx8TwHWXRdBU48Yb63P4/t/6sXYbj9laIudWI/K2Orj8bmSWJND7u3YUHEhEOBLFuAmT4PFyaEXkc1kUC8RMW1yAxxsE1QazjAwC6VQKbVs3IpM2BGFkEDVbMQgYBAwCgxFobGzAunVvfE0jCDSUNHKKJChXgx6PoKdMcqNOWRSOQYp6WWSdIDjFHNCi0vLyj99zms6/a1pbZ3ypFEEIeNy4aUYrrjtsMtwul4zsrvXb8LnXVqEnm0NjjQc//GgN3nqaD7TZjHG89a4kvv/XPnnvbwmg/paJ8EwLWGjli4h9exv65jHzY9dFJwiFfBbJeAfCrdPhrapBPhGHy+tF3xsLEIw0wecPm+tvhBAohyBccMFsPPnk0yO0R7MZg4BBwCAw9hAYIAjf1AgC5XjlXtDdDCq7QQ9g1NOQFXg73AxDKQjKlaDW0bMU9KBERRBIDNT7q1tbZ3yhFEGIej34yUlH4opJTTvO5rzt3fjoy8uwJZnGIRN8+Pkna3DakRQmrOX3T2Zx/U+7kcsXETo6gtovtcDdzN1ZS/r33ei4c9uQBCGfyyCd6UXNyWcg19OJ0KRpyHR3ove1F+H3ROELROT3zU2N+OFtX0dvXwxf/PI3UV1djXQ6jWQqjYaGOvTH4igUC6iprkY8HsecC87F4088jW1t7Th6xhH4wPvfidt+8HMEgwEwiKSrqxv19XVCdjq7etDT03vQXMXjxzVj/PhmbN68VbBZvWY9stksyiEIixa9gOOOm3XQYGEOxCBgEDAIjBQCVLRragZsTzKFlpYJ6OzsElukLwME4VYAdw6oBlQOFEnge7uSoNdLcAoS2+GvtxMEe4CiThL4Xg9GJElQhEAnCSQKH2htnXFjKYLgc7vwoUMm4itHT0PE60G6UMCPV2zCd5etRyKfRzTkxs3vq8K1Fwfh8wB9iSK+cEccf3iShhnw1npRf2MLfKdaBr3Yk0f31zYjuSg+LEHwNNcjNG06QuOnwFdVg/j6lUi1bUZy6fIdBKGpqQFfvemz6O/vx5//ch8+cd2HsHHjFsx/eQHOPedM5HJZrF69DoGAH68vWY6LLzoPd/zmT1ixcg0uv+xiXHHZJbjtB7/AJz/xYSx+fSk2bdyMq666Ao8//gz6YjHc9Zf7cLBkd0QiYVz9/nciEongmX/+G/NfXijHVoogkDCdf/65OOGE43D99f+FH/3oZ9i4cRMefvhx9PXtdDGN1E1mtmMQMAgYBEYjAnxWnnXW6aivr0UsFsfJJ8/EL395p0w4HQjCdwD8ZoAYkBwokqDcDUpJsNdJsKc/iklV2y9XQVDqgSIJemCiUg74ysqJfH1/a+uMzw4Vg1Dn9+LyiU04s6kWC7pj+OvG7WhLMY3TWloaPHjXuWEcOcWHZxel8cALyV0CFX0T/ai6qA6eOg8SL8SQeKkfxdxgMqS7GKggFKsCqJ91DtyeAOCy1u9a8Bzym9t3EITGxnrceMPHxdD9+S9/x7veeTme/ecLOHHmsXh96QpcfOFsLFj4OpYsWYZgMIhJkybg8SeexeYtW/GD738N/f1xmUmfffYs/OMfTyAcCuKqd12Br9/6PzjumKPwy1/94aAhCNFoBDd+5mPYuq0dy1euwjPPPg/WvShFEMiKp0+fhgkTxuNXv/opPvjBj6G3tw8rVqxEKmXiFUbjg8yM2SBgENg7CHACdumlb8bRRx+F22//FTZv3jJoRwMKwvcA/G6AINCQ6iRBkQOSBZ0g6OWZ1XZ3qY/gpCDYax/owYm6gqCrB4ocKILwvtbWGZ8ZiiDsHTgHb9VOEFLxdlQffwrSHdtQdfhxSG1dj94lryIUad5BECLhMI47boa4B7Zs3oZZs04SWWfr1jacddYsIQZd3T048/RT8Ie77sWMGYdj/bqNWL9hE9504Ww8Oe+fOG/2mXjXOy7DCy+8gqefeR5f+uKnMH/+q3js8WexbMWqfXX4e30/rVMmIZvPi/Q1aeIEbNy0Bel0piwXw4IFz2HmzDP3+hjNDgwCBgGDwMGKwABBuI2e+IFiSSQHJAm6q4GfkRDoWQ16oKKTkuAYpGh3KxBXPaVRuRZIFkgS7OSAkYPvbm2d8ekDjSAUCjmkEl3w19XDU1WLXKwHnkAQic3rEAw3wOsLjeg1dOGcc0RZ4HLhHMYpPDOi2z+QN1ZODMJ5552LefPGDiYH8vkyYzMIGARGJwIDBOF/APzRRhB0JcEpaNHe/ElXEeS9k4uhVJfGUuqBUg1IFIIDbgYShOsPNILAA2Ymw+A0RxfcHr9JcxzB+6McgjCCuzObMggYBAwCYxKBAYLwIwB/GiAI9NWSHNgJgp7doAIVxSxqfRr4/7AxCHoxJHthJKUa6IGJJAlUDvhKkvCu1tYZ1x2IBGFMXkH74aANQdgPoJtdGgQMAmMOgQGC8GONIJAYkCQoVwP/V3URdBeDKixk78vgmMWg8iF1QqBUBr2ksnIt6O4FkgMqCNToSRLeeeihx3+cfun9vQTDYTQ2j4fHszMlcn+PaSzsnwWSOrZvRTazM/B0LBy3OUaDgEHAILAvEWhoqMeqVa/9BMBfBohBaoAcKCVBBSzaMxr0IEU7SRAVQbkYnIIV7cqBIgl6cKJyL+jqAd+/c/acuR89mPL99+UJN/syCBgEDAIGAYNAOQjU1tbg6SfuuX2AIJAcKGJgJwgqUFERBUUK7MGKardFJ4Kgf6YyGPQgRd3FoAIUSQr4R/cC/94xe87cjxiCUM7p3TvrpNNJJBMxwDRL2jsAm60aBMYKAi7A7w8hFI7C5Rqyvc5YQQQNkRDOPnwqvJ6dxfz21cGzAd4bW9qxdGu77HKAIPxsoFkTCYKdJJAY6CqCPZuBm7GTBPEo2AmCavuoyirrKoLeb0GRBEUQSAp0kvB2QxD21eUyeD/5fA59Pe0gSTCLQcAgYBDYUwRIDOobJsDnHyhvv6cbHOW/f9Mxh2LFtg70p/ePC/WqU4/F/z75ok4Qfj5AEKgaKILA93osgh6HYG8HrQctcru7uBj006UoolNwonIzqJ4LKjjRriBcOXvO3P8cTkHweNwoFIrDtgRmPQKypkpaB/M3LHWczeak9O/BsHi9HinMxGJD+XweyWTKERNWeuzt3o5sdnDhoUAgAJfbLXUKKsHzYMDPHINBYDQhEPD7kR4ihqeurhbd3Tv7z7hdQKM3j1lVSRweBjKFIl6J+fB6wo/e/PAz/5B04fEgWbQ1sxsArb6xBX4/54KjZ2GpYj4nMyMcC3XlSUfjyaWr9xsQ7zntOPx03kuy//raGjz1xD2/APC3AXJgVxGUgqBUBKc20PaiSSUVBHUl6dUTVQVFe0ll/m8nBwxUnDt7ztwPD0UQQqEgamqqkM8V0D5E10ca+ob6Wng8HrR3dIlhHG4Jh0M4f/aZUq2Q+4nHE3jiqX8hl9vZDXK4bRyI359w/DFomdAslQpZ5nnha0uwYePmQUN1Igg+nw9HHnUUph1yiBCDnu5uPP/cc7vgyaqIkyZNwrJly4c9/MMOnQ6vz4tEIon16zcMuX40EkY6k91B1GpqaoS8McuF/SkaGxvR1xdDIpEAH3oetwdd3d1SqKqpsQG9fX2yH7MYBMYKAs3NTTjn7DPx4kvzsdHhHicOF198IR555PEdkDT68rj5OD/OOvMMVLVMQyGXxvZVy/DQsy/i1jVDG3Y+4N9c40YwORn3ZNbvzHPTAN+fBEH6ElSHUV0VRjqdRUdXnzwHSy2cSLE3zLvfdRlWrFgjlXB7eocu5T55UosUvfP7OP+1lpWr12HFitWDKt/aCUKALQNyeQR9XqSyg+1M2O+TgnLZIcZsP5YJkSCOrq/a8fGC9l50DlQb1gnCgIvhlw4EQWUzqHRHpyZO9tbPjpUUlavBycWgN2myN2ayKwhsh0jCMCRBqKqKoq62Rk5YU0M9Vq9dX/JEc9bM0sesZNhY34BtbdsR6x/cc0FtgERi7hWXYMmSFejo7MJFc87F5Ze+CZ//0rewavW6Uf18ufzSi7F02UohSjNPOEZqcrPks31xIgjHHHss3nLp29Db24stmzZh5okn4d6/3YNFry3c8fPJkyfh4jddiCefnIfDDjsUL81/WXxsxx57DFauXI1EMoFjjz0aK1esBjsx8iYk8Vi5ahWee+4FsIfF9OmHYP5Lr4AlQmfMOAovvvQyPv2p6/DvF17ECy/MFxJwwvHHys1Nw08y5/N44PX5sGzZCpx00kxZZ+3a9TjkkFZh/26PG0uXLj9olKBRfRGawe91BHhfTWudihNPPF56uZCA8761L3aCMC2Uw30fuwjRSz6MfOcWuIpFuBsnYv13P4TzHi39zOR2W3zAt1o86G4/CT9LrsHyYseg/e1PghCJBDHnvFm47NK34oUXXsD9Dz6Jbdt37UmgD/iSN52HuVe8Raq7soT72nXr8bkvfmvIZ8ilb70I555z+i5qQ2+v1Ttn3fqNu+ChEwSSl7ccdzgefG05rj5zJu58bsEg7E6fPhkbu3qxqdsiKYc218vkaGVb6Uy/iM+D+iBNrLW0J9NI5SxS5EAQ/s9GEHRXg15Z0ak3g50kcBeDXAz2Rk1KSVAFklQFRXvvBZXBQOVABSnSxfBBJwWhrrZaOlRt2LQFbpcbUya1YM260jNQEgR2Quzq6hEFgH0Purt7RRVwWmikTjnpeDz86DyZKVdXV2HcuCasWrVm1MfrkSD8+8VX0NbWjtNOPVFIE1WEcgjCWy+9FKecdio2btiA9evW4exzz8W2bdvw0x/9746fT506BR/+0NUIhcJ45ZVXcdZZZ2DN6rWIJ+M4+8wz8as7foNTTjkRxx17LJ6a94wQhMMPOxRt29tRKOSFLHR2deG0U07G/Pkvo76hAa+//gZOn3Uq5j3zLPp6+/DPfz0v5/+0U0/GgoWLcPxxx+CZZ/6FM888XcZDXycJAt0gp558Eu7+27046cQTsOSNZUgmjYqw162T2cF+RYDG5sSZx2P8eKZmu7C9rQNNzY147LEnB7kb7AShxZ/HHWdEcOT130NmwxK4a5vg7evAY7/4Hv7z9aFb2b+zzoVbTj4E/4qfgiUvrcPPci8jJZV6dy77iyAQkykTm/CJ6z6I888/Hx0dHbjhhs9jxeotokw6LZwYvueqyzF58kT5mhONW77+fbz86qKSrlWWyWe5/GXLV4GTWJKMKVMmYvHiZXj08V3b0usEwe1y4X2nH4/fPr8Qn7vkbLyybjMuOuZwLNvajkcWr8DHL5iFIoq4b8EyXHny0djS3Yd4KoNpTXX4y/zX5bcPL1qBp1es22VsTSE/DqmxGhJyWdYdQ2/aOicOBOFXAO4BQMOoYhD4qgomqdLLlOBVNoMqkKSkmEHllp2CFPUYBF090IMUSWuoJugKAsmBIglUEBwJAqXluroaaZmcSmcweeKEsggCyQZnm36fX9ow21teKhCZE3r+7DNw732PCKFwu104+aQTsPj10W9gSBBemr9AGPFRRx6GeCJRNkG44KILcc6556I/1o9YXx9aJk0UovCrX1CZshYShBs/+yksW74Sv/3dH3Hb927FK68uwKOPPSlGnd+fP/tcURF+/4e7hCBsb2+Xh9et37wFL7/MXhNP4Pbbf4Rf/PLXuHDOeXj00SdAZeLVVxdg0eLXkU5lMH7COEwYP056NtCl8MbSZTh6xlFYt26DqBD98Tji/QmZQT3z7HM4dPo0IQipFK93sxgEDl4EaAyPOPwwZLIZVFdVYeWqNTju2KPx6qsLhyUIVZ4CbmntwdyP/Tdy4w6B2+eH95nf4gt3P48/tlc5ug2IZL0XuPvIKKZ88HokZl6If7znNvyj7TU8l9+Igvar/UUQxjXV4rK3XYDLLrsMLS0t8ux/8MEHcc/fH8bS5esdDX5DfR2uvfoqXPym8+Riobt56bJV+O/Pf02eO06LThDOOWsWJk0cj1w+j1QyjfsfemyXn9gJwjVnnYS7XnoNHzn3VCxcvwXZQhGHjqtHdzyJ7bE46iNh9CaTqA0H0VJTja5EUojCtMZa5AtFxNIZPLx4JfKFnW6TxqAPrRpBWNndj97MsASBsyg9BkFPdXSKQVCxBzpJUMdadhZDqQwGqgkqBkFXEEoSBO7Z5/OisaFOyjDQyKwdRkEY19wEBjTyxLJJEgMPSy30W58+6yRMnTIRCxYuweTJLcIG73/g0SF/NxoeOVde8RbU1lajra0Dhx7aKk2gylUQmpvH4eoPXSt+/UQ8jkAwiAfvfwBLl+xUIMaNa8ZFF14gMQA8L9093SAxO+SQachmM9Ks6vDDD8WUKZPxxBPz4Pf7RM2Z//IrePdV70As1o/m5kZ0dnaLLHrmmbOwaNHrcgNz3dWr12D58lXS6pnnc+OmTXDBhdbWKfKbtWvXYebME8CeGcuWrUR9Qz1aJoxHe0cH1q5Zt8vNMxrOlxmjQaBSBHSCsGbNOmmjXi5B8LiADzT34QtHuuC+6CNwt61B74sP4b2Lq7AksVOq1sfEGeItEzw4vuVYbDv3vfCPb8Hy+1/A9hfn46HcYrQVd7om9hdBmDihAW+fewlOP/10CdDm82TdunX40133YvEbjA8Y3MX3issuxtX/8S48Oe9fmDJ5IlqnTsYnb/gKNm/eWvKUnHrKTJBYrFi5BpFICMcec5TEMaxcsQYPPzavJEHgmN52/BGgktDeH0fY68P0cfXY1BXDa5u24qxDp0rFIboYjhjfKKRhQ1cvDmmsw+ItbZgxvgmLN2/Hyu0du6jcU6pCOKm5dsd+n9vahe0JK/B8CAWBBEG5F/R0R6fujkpBUBkMOpBlZTGodEdVPVF3M+jkQK+BQCVhSILAA6ShYvBavpBHPF5aOib4VA54EXAGWU7kPeMQJkxoxrSpkyVeYfmKNQeFPH34YYdIUOH29k60tk6Wi52uF/viFINAHKNVURx11Az4/X4sW7oMXV2duwTf8JzQTUDVhQShv79fSBy7W6bSaRQLBQRDIRSLBSFrfLgUikXx6zE7ggsVIra75jkIhUKyDW7P6/Uil8uLf8/ah3uHr48BlyR9PDZ+x7GqzBP9u0oftmZ9g8BoRGDqlMk4//xzJf6Hz7vFr7+Bl+a/MujZZ3cx8FjrvAV8amIvrp2YRlcW+Pb6KP7WHkFmx1xwV0Sm+v04r/p0dKIVOa91DxfzBbjT/VidmI8VuTUij3PZXwSBk4kpk5pRFQ3vwIDPi42b2xFPOKuKLRPGSTzBo48/g9apk8RN/dS8fw0KNtTR4ETyjFkni71RC92nixYvlWeavgwOUvTC7/UgkcnimInNMplhfEE6l0Mk4BePfjqfQ8jnQ65QQDaXR8DnRTKTBQMYGeDIIEZ98XvcCHt31lnoz+aQGyBDDlkMdDHcS2+KQyaDymLQ3QwqzVGRg93KYtALJdGloAiCvUGTUhHo6CK6V8yeM/fa4dIcR+PNOxrGPFSa42gYvxmjQcAgsGcInF+bRFvGU1I52J2t7y+CsDtj3du/mXvSDMxbtrasCeveGMt7Zx2Pnzy1Sx2EOwZiEMiYFElQdRD4StndqSeDrh4MKrc8XKEkpSDYyyyrOghKRVDBiSQHKs3xGkMQ9salMfw2GTAY6+1EMknWO1h+G34LZg2DgEHAILATAa/Xh9r6cfB6nV0VYw0rZiV4PW7EBtIO9+Xxe9xuHDtxHO587lXZ7UCa43AEQakIqlgSFQOSBqcMhpLNmtRxKuWA/6v4A3uRJKcyy3qQolEQ9uVVY9tXPpdFLq/O/34ciNm1QcAgMOoRYFySx+sX959ZgJDfh+aqyCC3wL7ARtyzuTy299EFvIMg/Nohi4FKgp7FoOogqFTHPcpi0AslKdeCikUgjeR75VpQMQhKQTAuhn1xpZh9GAQMAgYBg8CYRkBZJpudAAAgAElEQVRTEFQMgnIxkByoQEWSAj2Lgf/rGQy6kqDwdGzWxC/t1RRVLQR7JUU9zdGexbBHCsLElvE484xTEPDvrGo1pq8Cc/AGAYOAQcAgYBCwIcDA8Y9/9Fq6GPQgRZXNoNIcVYCiXk2xVBbDDr+0k16k4g6Ue0F3Mzi1elbxB1QRRszFcPaZp+EbX/u8FDoyi0HAIGAQMAgYBAwCgxFgpovb7dYJgh6kSAXB3otBdzGUymKQHdmrJ3LlUoWSSA5UPILKYnAqlDQiWQyGIJhbYSwg8Oijj+Lhhx/Gu9/9bpx22mlYunQpfvOb3+A//uM/MGPGjL0KQWdnJ37/+99jzZo1sh/m3J9zzjmYM2eOVLX8xS9+gQ996EOYMmVKWeNgYTLmpzc1NYH9NipZnnnmGdxzDwvBWQt7glx55ZU45JBDKtmMWdcgMOYQGIYgOBVKGoog6PgNWyipVBYDiYGKQ1CtnlUlRaY6MgZhj7IYDEEYc9f5mDzgr33ta7j55ptxySWX4K677sLzzz+Pq666Cn/84x/lM9b+UPUhWL+C72mIVUdP1p/g//ycdSfU56rqJOtZsCYFK8nxj+9VoBmJAYnI6tWrpbQvS9iSGDzxxBOorq7GW97yFtx333045ZRTZBzcD+tUcJ98KLGiHetVsMYFP+N2SGpuu+02fPzjH5d1+Dvuj+NgcBV/o4+dn3Hhbz7/+c9j2rRpMsYNGzbgmGOOwQMPPCCEg9vhvtT+uQ2ORx0n98/veIwsyW0V5/LLn1kMAgczAgP3tVMWQ6kYBJXBYM9iIEy7tH12UhD0Ns96HQQVoEglwandsyIIRkE4mK9Gc2wjioAiCFOnTsXXv/511NfX473vfS/+8Ic/oKqqCr/97W/R09OD1tZWMbrLli0TxYFGtK2tDWeeeSZWrVoFqgEf/OAHxZj//e9/F8NKI0qSMXfuXCxfvhycpV9xxRWyLS6KIJx77rm47rrr8PLLL+NTn/qUGOqTTz55B0EgAaCa0N7ejokTJ+L6668XQsLPqBhQLXj/+9+PZ599Frfccgsuv/xy3HTTTdJU56mnnhLiwjG87W1vw/e+9z05Ho6dx87tKYLA7+68804hGV/+8pfxyiuv4O6775ZiW7/61a+wefNmWf/DH/4wjjrqKPzlL3/BY489Jr07zjvvPBkDj/Gvf/2rEBFu57Of/azgaBaDwMGKwICCoLIY6F6wV1O0N2uyZzEM26xJ7+aoByjaCQJJgl4DwbgYDtarzhzXPkGARpJGlVL+2rVrhRx88pOfxB133IHnnnsO69evFxLw/e9/Xwzq9u3bZbb9n//5n7j33nuFGNBgkhRwps3vKM1TheDsmQaXJIO/u/3223HrrbcKidAJAlUDkgYqCF1dXUJAWPFSKQhUM6gO0AWi1AGSgh/+8If4zGc+I4acxpjG+9prrxWyceyxx+LGG28UUkMyMG/ePPz73//GO97xDiErJAw8nro6lly3FIQvfvGLOP744xEOh/H666+L0edxX3PNNbKNG264QYgCVQO6RkhEZs2ahaOPPlqUF+6L65A8kQhxf9/4xjcwc+bMfXIuzU4MAvsLAZfLZScIKnuhHBeDKuE4ZKEk1eqZx6irCKr+gUp13C0FgVIia/qzjamSFbdta0M8kRRJkLMDfTEuhv11qZn97ksEaCT5R1n/c5/7nBhZzrppAHmf0MDRoLLd73e/+12ZGf/5z38WhYEzbq7LmT/VA65HAkCCQLLA35MY/PKXv8T73vc+Maw0vlQEdIIwffp0Mdw0yiQRfE+ioggCpXyqCm+88YYQiP/6r/8So0u1gSSE8QLf/va3ccQRR+DII4/Ej370I9nvN7/5TTQ0NAjZ6O7ulrHyWElGOHaSA+XuIEH41re+JcrD5MmT8etf/1rUkk984hNCEj7ykY/gC1/4gvyO6zz++OOC1+LFi8W98YEPfEDG8573vAcvvfSSqBqMpfjxj38sqoxZDAIHKwIlFASdIFBBUNUUdyuLwa4g6ASBuA7XrIluBZXF4OhioH/w6KNnYNWq1QM1/oFLLr4I1VVRbNi0Gf/+t1U2Ui2GIBysl7M5Lh0BRRA2bdokwYlf/epXxeDRWJIEUMqnpE9yQAmdxpayO7/7n//5HzDI8bXXXhMDSYPKWT3jCmhM2fluy5YtuOiiizBhwgRRCEhASBJ0gkAXA2ffHAPVC65LI0yC8Le//U1cAwwWpAGmUeb/NNg0+CtWrJDOepzFf+UrXwG3pYgMj4XkhAvdE1Q1SDxILnh8qn+HUhBo/EkMuK1HHnlE3Az//d//jZ/97Gd405veJOSCBIgkZuHCheLCYFDn/PnzhRT8v//3/0BXzb/+9S/B5Omnn5ZtcMxmMQgcrAiUCFJUDZvsaY50Lzi5GFRNBAVT2c2aVMEkPYtBVVFULgYVqFiyUJITQWCHP0ZOH3nkEYYgHKxXrzmuIRFQBIGGnOrA29/+dlECOCOnLz0ej8usnLI/XQnRaFR874og0AdPY0mCwN899NBDIvPT+DIwcOPGjRIrwNk/DejPf/5znHXWWbsQBO6bmQpUB+jPJ/GgKkCCQDJCdYL370knnSRujQsvvBBnnHGGbIvvX3zxRXENUGU48cQTcfbZZ0tWxne+8x1RMhhExQDD+++/X46vFEGgi4GBiYxZYFwFu/dxGz/96U9FUZk9ezYWLFgghIeuDboRSFyam5vx5JNPCrn6v//7P/T19QnJoIuBx8x9msUgcLAiMMJZDKoGAkWCklkMeuyBem8PUlSpjqqa4pBZDE4EYfa5ZyPHLn7FgiEIB+vVa45rSAQY5MfYA8YZUK6nzE9DTbmesQF0H9AI8jsaWxp+yvc0gDT+jEE49dRTZSZN487gQgYfMi6AroETTjhBtsXfcD/8nfL707VH4kD3BRe6JCjN00jTHbFo0SKJJWBGAUkIFQn695nhQEJBYsDYBH7O/dI1wLgJkhrul6oBj4fbJSk47LDDZDsMGuQxKVcj981jWbly5Q6s+Lzg9qgIEI9XX31VxkEFhMfLbXDsPE4SEI5TjZUkgiTh0EMPFVxJlMxiEDhYEdAIAvOE9WZNQ1VSVD0ZKurFoOIQVHqjUxYDiYK9DoJSEKhd8v2gUst8sJw+61RMP2Tajg5YW9va4PF4Jf5g8eIlu5w/42I4WC9nc1wGAYOAQcAgMFII2BQEEoTEQMwB36tCSaqSYikXg73U8i4uBntFRUUMdPWg3GZNJs1xpM682Y5BwCBgEDAIGASGQMAWpEhyoAIU1asKUtzjZk0cht4CWsUflNOLwdRBMJexQcAgYBAwCBgE9jECw6Q52rMYVKEkey8GjnpHH4ahYhD0Cor8UTlZDKong1EQ9vHFYXZnEDAIGAQMAmMTAYcgReVaUAqCavms3AsVF0rSkbX3YqCioAIUFVGoOIuh0lNnYhAqRcysbxAwCBgEDAJjDYESMQiKJDDNUTVrUnEIDFDkn97uWb0fNovB3upZj0PQKyk6ZTGUDFKs9KQZglApYmZ9g4BBwCBgEBhrCAyR5qiyGPiqyi0rcqCyGAiXvZLioHbPpQol2bMYqBwokqAThGGzGCo9aYYgVIqYWd8gYBAwCBgExhoCw2QxlCqUpOIQ7GmOu5RbtjdrUtgqYsD/lVtBz2Jg0STV0ZF1EPheqQcmBmGsXaHmeA0CBgGDgEFgvyCwL7MYyB70GASSA0UWVCXF3erFUClyRkGoFDGzvkHAIGAQMAiMRQRKZDHYXQx0M6gARb7aYxAI3ZBZDApbRRJ0guDU7pkuByoIKsVRvQ4qlFTpSTMEoVLEzPoGAYOAQcAgMNYQKJHFoFo+l9uLYchCSTqmKsWRn6n3epqjHoNQdi+GSk+aIQiVImbWHysIsGwyexuwqRLLJ7PscG1trZQqZqdE9jdRS09Pj5QqZsliVjPVF/ZgYOMm/na4hQ+hWCwmnVfZ+0B1YeTn3D4XdolkqWZ+xlLHXPg/F7ZrZulltbD8MUshm8UgYBDYMwSGCFLUCyXpQYp6miOJgV4PQVcQdhRF4gilOYPNxaAKJalWz+rVXmpZ9WPgk8mx1DJ34PG44XIpccIChd3qeID2xRCEPbtozK8PTgR4r7DrI7ss3nnnnTjqqKOkPfO73vUu6XjIngzsV8D1aLDZ7ZHrsgETmyCxbwGNO8kCmzqxcRO7RLL3wbPPPrujjTRJBxfVL4HdEtklcv369dLumS2Y+R17QYwbN062zUZNzzzzjKxzzTXXCClhd0YubP3MNtBcn+uy8RMbLLFfBLfD/fNZwPFx7Bwf//g9P+ex2AnOwXmGzVEZBCpDwIEgqFLLVA+UgjAUQWAWgzLCFRdK0lUExh+oGASSBL63d3JkkOLls+fMvbanx2oCw4UzlRNnHo/amuodhIAPhTVr12PJG0vlIaAvhiBUdpGYtccOAuxSyM6J7ATJ1sv8o3LAFsnsAMmOhjTEbFREAsF2yJdeeil+/OMfiwJA9eGjH/2odIxkYyXO8tmdkbN+kg+2jOa9ySZOF198sRjn++67D2wsRbWBraTZEInEgGNht8dvfOMb0uSJqgD3TwJxzjnn7Gj3rM7O+eefj6uvvloIDbs0Ll68GA0NDfjYxz4m7ZnZPpptqdlUih0h2YmSigkbN3EddrM0i0HAILATAYdmTXoNBKUiUDXQYxCcmjVxo0pRkB0Ml8Vg78WgEwRVLMnezdExi6GpqRGHTp+Ordu2opCnogHpUDdh/Di0tXdgxYqdndz4nSEI5hYwCDgjsGnTJmn9PH36dDGoVAxoaN/5znfKPfW73/1Ovps3bx7YQplGnATg9ttvxw033IDvfe97QhZoyKkUkCCwhTQJx29/+1tZj+Sgv78f5513nszc6V6gO4Pr8IHE9stUAkgcSDRo5Eke+P3NN98s2yURYUtovWujIggcH8nHz372M9x1113SiZHdK0lY2PWRBOPxxx+XNtbHHXccDj/8cCFFqhOluTYMAgYBCwFbFgNjD1T8gSIKJAeqYJIiBqpQknIvKHKwi5Kg911QK5QqlERywO9IDNSfikHQAxVLEgSShOXLLSJw2ikn48gjj4DX75VOjv/+94tGQTBXvEGgDAQou3/qU58SFwNn83Qr0MAvW7ZMjDtbI8+ePVuM/KRJk/D888/L6wsvvIB77rlHXBI33XSTuBM4y6fRpduA2+MfiYOaqSvjvmrVKnziE58Qt8Gtt966w1CznTPJA2f5n/70p4WA3HjjjUJUOE6qGlQy7AoCFQqqGFQlbrnlFolR4D7ZBpquiksuuUTaVnM8TzzxhJAHqiPHH398GQiZVQwCYwuBEchisAcpCh/QCYJq9cwv7CShnGZNJAYlsxhIDhRBoGR54oknYN3adfD5fTIDMgRhbF3Q5mj3DAHO4GmI77//fokzePDBB0Wip0FmvAEDGEkcPvvZz8pMnPEDH/rQhzB+/HgsWbJE4hL4xxgEKgif/OQnhRjQVUCDTZLBNuxf//rXEQgEcMcdd4g6MHPmTAlSPPXUU2V/NP7/+7//K7N+kgK6KKgCUBmg0sHvSAbU8ta3vhXvfe97RZkgOeH2GLPwmc98Bs8995y4Sk444QRcccUVQnoYu8DYCroa+D/3axaDgEFgJwJlZDGUatakYg90t4JjoSSnSoocgQp7tjdrUoWSeOerJk1UEUgSHBWExoYGTGgZj7Vr16NYLKClpQUTWyYgGomgvbMTL7443ygI5qo3CJSJADMQGBA4d+5cmWlv3bpVVIN0Oi3BhnQHXHTRRRI/wO8bGxvxgx/8QDIcHn74YTG2nPmTMJAAUGWg5M9tTpkyRdwKNPQ0yHz/yiuviBuDCzMQGCNA1eDss88WNwOzJTjrp1LBRSkLp59++i5HRDLDOAW6GKh4kGQwvuDCCy/Eyy+/LK4Juisee+wxUTroHuF6/A2JgsqeKBMms5pB4KBHYIgsBroV6GZQvRhUDEKpZk2W71+rhWCPQRgui0ERhVJZDKym6EgQgsEAjjziCEQkyGhnoGQ+l8fSZctFDtUXE4Nw0F/X5gD3IQIkEJzN83XGjBniLqChN4tBwCAwuhEYwSwGezrhLi4GxRxUYKLeh0Hv6KiXWSZhKCuLgRsn+x80AygWUTBpjqP7CjWjHxUIMIWQf4wr0AMHR8XgzSANAgYBRwR4T3s8njsA3DOgGAyVxaCaNanWz8q9oMocDJnFoCsIKr1R1ULQWz47KQgq/sD0YjAXskHAIGAQMAgYBPYBArYsBpIDVQdBEQVVA0GRAicXg929IGqCPYtB/0wnCCpIUW/3XFGaY6U4GRdDpYiZ9Q0CBgGDgEFgLCJQIotBL5TEvgxOBIFEwN7uWUFYMouBxEG5FdSrqqJomjWNxSvQHLNBwCBgEDAIHHAIlKiDoAokqfoHfFXFklSr5z3KYnBq+WwvlKSaNdGtMGQWQ6WoGgWhUsTM+gYBg4BBwCAw1hAokcWgMhjKadZEyPSCSfx/FxeDjqne7tleZlllMSj3gt6sie9LZjFUetIMQagUMbO+QcAgYBAwCIw1BEYgi8GpWZMELZZTSXGoXgxKQdDVA8deDJWeNEMQKkXMrG8QMAgYBAwCYw2BIRQEXUUYqheDPUBR/T8oSFFlMagYBD3VUQUokjDYsxhUqiMVhJLdHCs5cYYgVIKWWdcgYBAwCBgExiICNoKw17MYiLG9FsJwWQwkDKqKoklzHItXqTnm/YYAKx6yEiI7OHJhNUKWMVYtm4cbGH/3z3/+U4qVsSkSWzGzbLK+sMMiSzeffPLJ0qSp3KW9vV1+x4qMLMzEbpJsHc3Oj6yYaBaDgEFgzxCwBSkyxVEFKKpXVWqZryPWrMlkMezZeTO/NgjsEwQ2bNiAq666CkcccYSUTqbhZdfE6upqKZvM7/k5Syuz7wEbLrFXA5dEIiGNn1577TWwLDKJxle/+lXMmTNHShzzNzTm7N/ALpA/+clPpMgSu0g2NTUJoWAjJXZ+ZFlntoAmCeAYWBRNbY+dGFlenWNiTwjugwSGfR34gGOp5mnTpkmJaBIWtqnmumYxCBgEhkdgBJo1DSqzXCoGwa4ecHT2Xgx6R0cVf6B6MpRUEA4/7FDMOOpIaQubTCXlAZJKpfH3+x4YhIBxMQx/UZg1DAJEQBGEWbNmifHnH7sjslsjuzt+61vfwpe+9CVcd9110leBhpxdHakELFq0CJdddpmsS3WA/RbYvInNmn76059KoyX+sekTW0RzW+z8yP4NVC6++93v4qmnnsLf//532Q5bM7M51He+8x3ZPgkCGy+xCyPH9LnPfU5aRZMgsBHU1VdfLW2h2bGRDaNIVvhc4Pa5Tb3RkznbBgGDwGAESjRr0qspsgZCqToIJAZ6J0fHds/6XlVQIj/bnSwGEoW5s+fMvbanZ2d/Bd7oRx89A6tWrcZFc87DSy8vAPszzJx5Au6++2+GIJgr3yCwmwgogkDDylk3XQRXXnmlNFL64he/KEafigJJwoc//GH86U9/ksZNl156qRj3973vfaIQsO0zHzZcaOzZ6ZENk9goicaczZT42fe//30hFiQNXKgEUFUgKaCxZ8MobkspCDfffDN+/etf49prr5XJAdUGEgT+zy6OmUxGyADdIg888IC8Uq1gd0eSHrMYBAwCpRFwiEGIA9ADFFWTJlULQZVbVuRgt7MY7EGKeiVFFahIBYF/JAYlgxR1gnDVO6/E1q1tWLtuHY4+ZgbuvpslpHddjIJgbgmDQHkIKILAmT0bMVEloLuBJIGdHCnp08h/5CMfEaPMLow0zHQd0OVAovDud78bF1xwgSgCb3nLW6SFtOqy+OY3v1mMP7tEsqMiDT7bTHNdtmrnUl9fj6985Stgl0k2hGLLZo6DCsKnP/1p+f0NN9wgn3MdEoSPfvSjYPtnujkWLFgA7ueuu+4SMsNx3XrrrdL+2SwGAYNA2QQhCYB/VBCoGqhXVW5Zj0FQFRRVwSTuxFFBcGr37BSoqBdKIkHg/8q1oPdiuHwoBaFlwni0t3fA5XbhggvOMwTBXP0GgT1AgAaZBp+xAJTmw+GwGO+FCxeKcb7zzjsxc+ZMMA6A67D1M1UAzuY5+/jrX/+K2267TdQHkgKqBVQdfvGLX4jxZmtnuglovK+//nqZ3dPIc18kBQ8++KBsiwafSsAjjzwi2+M4aPjpOqChX7duHb72ta/hj3/8o3STpHrBVtFUG6hC0P3w7W9/W+IR2DaapILtqc1iEDAIlE0QSAgUQVBBiiQKquWz6sOgiILdvaD+lx3a2z2rUThVUaS7Ybd7MVBBOOnEmeiLxZBMctzWcsF55+DXv/k98nlFZqzPjYJgbgmDQHkI8N5hlgGlfbmpXS4xuDfddBNWrlwp8QUMGmSWQnd3t8QY0Cirhd3gaPDpHuDn/J7bZAYCt8nAQ7oQGLDI7xl70NXVJQSAgYo06Pyev6P7gKSCn3Mc/D2DDgc6zklQIv8noeBnVDOYMcHfk7hwu9wG30elNbxZDAIGgaEQKFFq2e5iUCWXRyyLQXVxVGSBaoHq6KiCFFUlReViUKmOVzgpCOfNPgebN29BrD+2kyCcfx5+fefvBh2/IQjmpjAI7D4CfX19MtunW4HZCWYxCBgEDl4E9lUWg0JQlVsmIVAEQZGDUs2aSA6Um2EQQeCGD5nWikgkvItawNSmhx95TGYT+mIIwsF7MZsjMwgYBAwCBoGRQaBEFgPdDKqbo6qDoKopqiDFsps16SMtlcWgCIJyM1A9ML0YRuYcm60YBAwCBgGDgEGgYgSG6cVAf76KP2Asgt3FwJgDpywGGYc9BkGVWlbfKTeDavWsXu2lllUmAyOKTKnlik+x+YFBwCBgEDAIGAQqR2AEmjXpSoI+AMdmTfbshVLNmkgKqCaoPgx6qeVBWQyVHrZxMVSKmFnfIGAQMAgYBMYaAhpBYL0AVSDJXm65nGZNhE4pCo4KgsK2VC8GPc1RtXzW6yCUDFKs9KQZglApYmZ9g4BBwCBgEBhrCAyTxaBcDHtUSdFeB4EYO2Ux8DO9zHLZWQyVnjRDECpFzKxvEDAIGAQMAmMRgQqzGFQtBFVJUdUY2KUGgr0XA79URMGexaC6OQ6lIAybxVDJiTMEoRK0zLoGAYOAQcAgMBYRcFAQVLGkUlkMJAaKJChSoDdrUtUUdxCCoSopEvOhmjWpSoqqaZNp9zwWr1JzzAYBg4BBwCCwzxFwCFJUKY6lKinqCoLerEmvNSAkodIsBkUUVPyBSXPc55eD2aFBwCBgEDAIGAQsBPZCFoPyJpgsBnORGQQMAgYBg4BBYLQiMFDG/A4A5WYxKBcDlYRdshZKZTGUClK0d3OkcsD4BHsdBJXqqLo5st3zNXq7Zzv4rNOuWss6nRgTgzBaL1czboOAQcAgYBDYVwjYYhDoVkho7Z7LzWLQYxBEmNBdDE5Nm/QsBuVa0LMY7O2e9SDFIQkCu8BNmTIZK1euKomhIQj76vIy+zEIGAQMAgaB0YpAiSBFVQ9BNWlSHR2pGvCPhEAVSNKzGHaQA3sWg8KHZEERBtWLYUSzGGqqqzH73LNx3wMPGYIwWq9KM26DgEHAIGAQ2O8IDJHFQFKgKwiq5LJyMegllu0KghAFRQTsCoJeKElv1kQXg0p11BUElcmgVARHBSEajUgbWv6dcvKJmPf0s9L6mS1o7YtREPb7dWcGYBAwCBgEDAIHOAIlmjVROVDZDCQK9kJJSkFQxEDPZhjkYtAhUDUQVIll5WpQ7Z53u1nTuHHNmD79EEQiEUyf1oolS5cjlUhg/iuvGoJwgF+EZnijF4FcLofe3piQ8Uy2gEIhj3yhAI/bhUKhiO6eHixbsQ4rV27ARXNOxzEzDpPuqlyHD59iEWDMkNvtslq7ut38AAG/D8FgAPn8zuwor9cDj4ePCLMYBAwC+woBl8vFIMV7BxSD+AAh0NMc6VbQSQLdCooUODVr4q2+Q0EgCVDFEZSLga/qTldNmlRHRyoJrHtA0qCXWmaQIlWEIXsxRKNRnHbqyXjyqaeNi2FfXUFmPwc1Avl8HmvXbsDadZvQ3dOHAmOJC0X4A35kM2ls3tqB3r5+dHXFkM6kUCzkEQqF4PV6USiQQCQQCXsRjQTh9biRyRWQzeaFIGQzGbg9Xvh9bjH+Pr8PXo8X4VAQNTVR5AtF+Z/sgfFFwaAfuWxB1vP7AyCf8Pm8IHkgxQgEQ4iEA6ivjSISCcmEIRQKWsTDLAYBg0BFCAxRB4EqgiIJpXoxcF9lxyCobo6KJOgqglIO+KrcC4oo2LMYrpg9Z+61pbIY/H4/Jk1swZq16wxBqOhSMCsbBIDevj5s2LAZy1asRVtbB1avXItMNoNsvgCfLwivL4BAKIRMOgevz41UKgW/P4hcoQB3MY+A349CsQCv14+GumpEIn6sXd+Ovr4ubN28EYUCVQKfKAZFFJFOZVBEDrlMTshCEXkEAyH4/F54fbz1XUCxgFw2K1OOdCop+wyEIggF/HB7ffD5fHC7XICrCL/Hg0DID6/Hg1A4gmi0CoFgEChmhFCQ1AT8XlRHowhFIqitqULL+AbU1dWguoqkIiKKhlkMAgaBQXUQVBYD1QK6GOxZDHq7Z11FUALBLrEI9hgE/a7T1YOhshj4hCBRUOoB/x82zXG4E2tiEIZDyHx/sCLAGQEl/mw2i2w2h+3tnfjDH+7BqwsWo+DyId7XK7PzY487Dr5wGF3b2xGpqkEmnRRjG42GEI+n0N3Vg+bmJjQ31QCFLNq7E8jkaNwD8Hk8KCKLRNJyRYYCXiRSOXS0dyKfzyERj6OQzyEQDKOIAjKJJPIy/8/B5XYhWlWLYr6AQjEvakMqEUMgEMa2rVuRTaVkG/6ABz5fCG63R1wS2VwWhVwW6TSfWYA/EAIKeSEcRRfX9cPl9iCfy8Dl8sDv9yHgD8DldctYmhqb4A/yMeMSJRxn9/AAACAASURBVCMZ7xWCMm3aFEyd2IRp0yaiubkRjQ318ttCsbjDJeLxuEWh4B/JhSEYB+vdM/aOyxakyBRH3mCKIOhZDPxMEQQ9BsExxXG4IEW7i0G5F+hWUA2b9GZNphfD2Ls2zRGPEAIkBJ2d3ejo6kPbtjZs2dqGhQuXYNmKNcjl8jJ7p2G+/PI3I5PLYXtbh7gS+vpimDq1VST8ZCophrm6pgoeVxHZXAHRSBRenwfxeBqJREbecybvkjCCIvxeD7Zt245tbdvR29OLcJiEwI1QMCAqQ7HoQjGfFUXA7XGjoaFRfJFUIQIBP3L5nIwhk0qKCuBxe9Df3yfrZ7I5ITk+rxfJeAL5fAa5fBFBUQusmY/Xx0dIQeIYJDYilxO3h88fEBLAOIdQJAq3x4NsOoN0Jot4rAepZFqIi8frlbFEqmtFWeC2qT4kkmnE+/vErdHY2ICWlmaMb25AQ0MD6mqrEY5EUCwURFXh762aLAUhFv4BtYP7tP73IhAMIBQMkufIuEg0VB2XgQf0CF0JZjMGgcoRsDVrUr0YVBaDSnFkFoMqs6xSHVWhJNWTYUcfhnIIQikXgyq1rFwMqg8D1QPTi6Hy82t+MUYR6OzswmNPPIdsrojly1egvbMPsVgc8XgMxSJdBl4EAhExns1NjbjggjPx4EOPy8w8k80KAWhoqEd1dUgMdVU0iHA4IkY54HcjVwC6euKIxRJifEMhztLdMpPvj8fR1dWL7dvbkcnslPcjkSqJRfB4uW4RroIbBRddDcmBmbcLfi8ZhgdVVRG4kMe27d3o6uxCR9sWkH1IUKPHC6/bJaoFiQNdFoyViFZFUchn4PIEZL14fwypRD/CkagoJ1QcgjwGnw9FqhgBP4outxAlEotslkQjjWLBLWSC26QBpzGvra1FR3sXsumEEJx0Ko3+/oRFOnweBEMhBIMhuDweuIoFZAuA1+VCLp+XsQYjIdRWR+APhiRGo7a2Gj6PG3V1VfB4+LgDQqEosrkMPIy7oGslX0SxkEM6k8PZZ5yIaa0Tx+jVbA57fyBQIotBr4PglMWg3At69kLJbo76cSlSoMch6EGK5WQxGBfD/rhSzD5HDQJLl63CXX99TIzskiWL4PP6ZDad56w/5EcyW0AqSbUQYlzDkTCCoQjyuZTM1GtralAouhEOelBbWyOxBnQdBIM+MKnA5/VIkGKsP45kKo3ly1dj8+bNkrXQ09UFr9eHCZMmwu/1iyLBDKNU2jJ6JBzpdBrt7dtlP+PHN0nGQyqVRUdXL/yhECJBi2j098cRDFhEoLu7F1u3bYfHU0Q6yVgFF5hBwTgGTxHIFYtCGkgKuD2314tcNoP+WD/isRgS8RjyBZfM4EkOIlUhcXFk0zlkMmnkiyQpCXh9XhTyebhcbvgCPrhcXhTz+YEAygCy2bSMiQad8RhFlws11VbsQiqVQ7GYl7CJbDKO9vYuic/u6e7dQU6osjA+whcMCqFiECZVCaocmVRK1ityn/Kah9vlFSI1ZfJkXHzROZjWOgnHHnOkcWOMmrtx9A+0RBaDSnNUyoFSEkgOKspiGK6SolMWg1IRqBooV0MEAP8fMkixnNNhYhDKQcmsM1oQIMtnquFL8xfi7nsfR1PTOHR2dcmsnumE48Y1iW89mcrB7SoiHu9HOp1BNhOXdSm5czY8buJERINehAI++Px+uGmgvH74fR5xF8QTSaRF3s9g+bKVWLtuM7KZnLgfAgEfzjjzdLR3dOHoIw/D+s1b0dPVg2hNHSZPaEBXL7MculEVDaOuvgGxvjh8XheqqqIi7cf6E0DRDX/QJzEMbo8LPd096OjsQayvW9IoI9FqZNJ0exaRSSeQTFrvc2QtBboXGIQYQLSqWgISU+kU0omExB64SWpIJHJUB1xyDFwS/b1CIkgKaPT5O8ZgkKDQDZBJJSRmggacSgEzIuD2CEnyB+k+oDHPC7nIZLJwuyCxDJKV4Q+hKhpBQ2MTQuEAkokkYrEYMuk8fD4qHgXE+/sR6+uzCImPjz2qIlnBwB/wWUqLh6XjqS4EMLWlBTd9+ToZC8kQVSCToTFa7tTROU4HgsAbz+5icIpBoGqgKiry4B1dDCrNUc9iUPUP+CO+11McFTngZ6pIknIvDJvmWM4pMAShHJTMOqMBgc1btmHha8uwbPkaLFuxHuPGjUN3T7fcipSyOcsW37vHjXgigSINaTgkPm76u1lgLBwOIujzoqa2Gn6fC9FwSAwq/fJt7V3wuN3YvKVNCAKDGrs6O1FNI8wsAgb+5fOYNGk8jj7qcCxcuBgppjGms2Lw6urr0NRQI0SFhpwuinDAKwSAPny6PLp7EiKhh0NhuN2MGciLLM+ZxapVq9HZ0YFsJmtlR/i8CAfD8HhdIunH+vplXQlQzFpBkqGw5cLo7epCbCDosq6uAYFQGJFoVGIauru7RMmgylDIEZOwuBKID2MfKOtTgaEa0dfTK/EIzKxwwY3kwEyfgZsMeOS6VE/E1eGxHnc8NioaxJjruBkMWWBwhAuFXEYUAq8/iHAogEA4DGZf0Y3BYMtMJicEhEGU3F4uR9wCorY01NeIayIaiUgMRk1NNaqrq620c5dH3EXyUHV7hQxSaWE8CK+HU08+djRc0maMBxACNheDij9Q6Y32NEc9i4FxCFyUm0ERhB2FTUpVUlSkQK+iqMot6wGKfK8UBL6W3axpOHwNQRgOIfP9gY4AYwKefvYlrF67GavWbEZtbRRdnb0IhoJi+DibpgrA2Womm0Y+YwX2cXbNSP9otBo+nxvV1VWoqQoJQaiqq0FNdQSbNm7C+o3bZVa7Yf0Gmamms0w1tAxbNpeDBzm4/WHxkzNVkH59BiimUkmMb5kEFzjj9khgX3UkAI+PmQQ+eBmAB/r6s+L3Z8Aft5kvuhEJ+tDXn5JgvW1tbVi3Zr24GRgvwZk9swWYumgFGlLhsNIycxk+p5h9wFl1Udbl7/pjfZYLwsOYiQBynJn7/Uil0qKEMAGC5MfltlQSfsdZPhUW5mP6AkFU19RIPQXOYah0UGlIpfrlOIV8ZQrweOjS8EjQZTaTEhy8AT+qqXjkckjFE3K8zNMgyeFxMJDT7Q0ARQaJUqUtirvByobgmlyX/9PNURTXTyAQhC9AhScgBChLglPICrEgCRQCQlolRIVuoBzAlFJXEbNmnYgPX/0O2TfrSZjFIFAOAg6llulaKJXFQOPPi7miLAYnBWGoQkl0KTCbwWQxlHMGzTpjCgHesN/6zu0DPvs4Jk4cj/7eXnT3xRCJWL5wGs50loFtGYklcBepIhSkPkAq3o+Jk5rh81M58KE6wsBDPwr5AhKpNJ548gVMmNCCXC6D1atWobGxCXX1TVYFQ1dBSEZvby8S8T6pexCsqkVNFWewLlRFIvCHWKSoBsGgNfsmCaABC4dYVCnPnAKZLRdyOam8SPk+kcpLfEMu70IxF8cbKzaK64IzeZKdTCqO3p4+uMHfsLgSUx05S4YoEzTuVTV1qGtslBl1IZNDRxdLrLOioxteP2V6L3JMkWT1xoILyUQfOra3CaEqunwSVEjm4maMgC8g8QGFvGVw08k+xBPMXOgX0lNT04hgNAiPy4tUsg9Zidm2lA9mehQLWcuwu4sIBEKSRplmRGc+LwGI3C5jEZjV4fX7kIrH4XL7hESR/PDxms2lhdgk4knBQIpCuazqlHR/8AHKpzAxlrJ0VC08Hkt5cblBj4onEJTteb0sQuWTv9NOOQ6f+eS1chxmMQiUg4DNxUCCoEiCSnnUKynqqY5lZzEMUFtL/RoYlLpCVR0EVW5Zz2JQRZJ0F4OJQSjnrJp1DioEWLNg+Yq1ePzpl2WW63a5RRnYsGEj4PEiEgpLRH59QwN6e+PIppMoul3iy2bgG90IjQ1RmUnTnx0M+BCOhuAqFNDTG8MrC95ALgtU1TALoIB4Io76+nrx/XP2S1cC5W+qCFw8HgYtBiT2IBIOIVpFf3tIMhCY2ic+chpn/k9futsjaX80wpzFMlWR9RT6+q3sBa/HJduLhINwub0I+rk+baqlVC5evAKLFy8VYxlnTEA2NzDDZmKD5ebIZdPMb5SZNskDj9Pt8SESCaK6tlFm5v39MYkD8HGW7fPCF2DlRbpcmPHQiwxjM7I5+T1LOVF14Iycx83iT6zUSovM9ZghIUQmlxF86KLweAPizkkm+oVcEEvuh9uy0hdZnoFkgmqMVVra4/UIaWBchPW/T9wToSBJg1+yMNLpvNSFYFqk2+MXhcby6JImUDlhfAXHbakO3E4gHJAgUxItxn6856orMK6pXr6jskM8Jk0cf1DdJ+ZgRhaBEpUUdRcDb1BVD0GlOapARZ0gKBfDjjgEp3JkpbIYVAzCcFkMqlBSyUqK5cBjXAzloGTWOVAQ4IP/rrsfxmuvrxRDRuPEtLpYv2WEWHkwKoadvmuvqAucUYaCfvFh+71e1FSHUVsTlbgBGqZ0Jo32jm7ZHisnwu1FPpsXHz+NIiXwcCgqJIQVDinJF+BCJBRCKtmPSFW9GF6WQyYB4L6qImGJaeCMnjN7Gm3JGhioBcB0R9ZPcKOAnr6YZBBsabPSIOtqaxGW0sgh2Q4Jg9vngwd0SViBiMuWrcCi11ejr7fXyjzIZ62of7ikgJK4Kqgo+P2SDikKhjK6HpZ9Lkoao2QOBIKIVldJGWdmIhA7BjryM1aMzDO1MBUXgpTLUMqnN4UGmMyDM/ysYOvzME7AJbELVkxD2oobyPL4WV/CLSmNfCpm0imJpSCZUHEBHh9dCFaLW8ZaUlGQFEfBj2qtdb5FOZDYBhIIq+gTAxSpFtDFwW2wfDX3x+Mn6QoE/WiZMF6OJZFIC+7MOqGrp76+BnOvuASnn3qCyYg4UG70A3QcmoJA5YDpT3qZZdXFUQ9SrCiLgYdtqWA71QMVf+DUrEmVWtZdDHSaqWqKRkE4QC8kM6yRR4BG9oc//QNeW7hEZpMMaov3J+ALBKSyXy6bQyqTRcAfRCabQn8igZDfqlDI9Lua2hBcRQbIFVDN/6uj2N62HavXbpTbcdz4ceiPxdDdw2qFQUQiYfGz01ixiFGWlReLrHaYQSDghs8flAC5aDQgxp+Fk6oiTGdkhcY86muqEYlGxKirRkucUbNAEvs2ME2QhoxT6XQ6i1gigQDrMYSCCPoDKCCHSDAqJIXKRWc3x9aLvv4Euju60N3bL0QglYpLLAWNJ3343DdjFfL5ouVOCYdQU1cHn9uLQjGHWH9MfkcM+fBJJ5MShMl0SLpkGEMgnn+p42ClKpJJ0ZiGotVSlpnCfk9nJ1yMIZAAQFZhzEu/CRKtZH+fuGCoEkgqZTQsagirNzKegMoBx8gZPcMD/H7WT/BLXQoqEXxESnAhVQQ/iZ2lBEj9BmaTMO2SNKFQkPoP/JzKTLFIsmLVURCVgvoCgyDVOLMZOT8oMgalFtOnt6KxsR5TJk+QypiTJ03AjKMOF1eQWQwCdgRKEASSBJXNQJKgmjXZ0xxVFoOewSBqgj1I0akXg3I3qDbPKvaA5EBlMahCSYwUMlkM5vodMwjQf3/n7/+Ohx5+UuRjpszR6LKlOR/0VBEoAeaKdCVYPJwGr8hgxGjUqhUgOf4sYsRgwSDaOmKoq4ugWHQjk0lhzZqNIjfT2DNSn0V7WBWRs2HOwun3plFrqOf+IKoB0xFZhZCFjPx+jxAGGkJOrjnT5/pWMOJAH4V8HgmWUy4URJmAyOk5mf0yup8KB2e8UmVQ3rOtQlHcKIwJyGXz+PcLr2H58lWI9XdbRpIUiEWWuM2BdD9+TjWCqgdVgCBn0tJXqijrUCVgASgJKnT7JECQigJcNOLZgYqLFsGgVM/xUTVgrARTGQsFF3xetwQgMiuipqZKSAwHzLgGuItIJhJIJZOiXpAotG9vk334fX6Jd2AJaFEh3Kx7kJEAwnzB8of4GYjIzIzeXokVodJgZSFYCgE9NHTdBEMM2PRacQc+KkZJuAp5K9OC5asLLGMdElVD1itQWSA/yMDtCwspIaEiRlyXSgTTQ88792S8Y+4lRlEYM0+Y4Q9USKjHw26O9wyUWdaLJDk1a6LPi2xXZTGoZk3KxcDvd+nmqIiCriAo5UDPZFAkQWUyqCwGEgQ9i8EoCMOfV7PGKEeAhn/Bwtfxwx/9Cn2xhKgEPgbPRSNomTBBZpw0OJFQAIlURma7nIGm0zkJ+GOxIs4qk4m4vKdczZRCugDo86bh7+3tEwMXCodRU11lydguN1LptAS8UaImzw8FPVIeubYmLG4Aj1h5SL0AGqswiywxAI9SfI79D1gu2TL29K0nk0kpzETywPgDGlr62+OJjPRZoLFmTQHugy4MbpNR+LSj/XG6EvLo7OjEgteWSc2AJGsOiOxutYwWP/9A9UIeV05SFRndz5iBaiEaVCQo8VtVDxm0yHHkJZYhz+JGfKLlSFpcyNBFIxJ/zqp/QJdBnvvJiLxPMkGLbakHDBp0SfxHOFItwYccD79jMSTuT1SDbF7qOXAsxFxaXksqJ6tCuuScMB1SykMXrd9T7aDUwP1JGTq9QS6VhXxOYhV8HuLJDIuCpYZIaiWJDGNEAnAVmCIqfA+FokdSQel2YBEoUi2qLowhufzSC3Hl5W8ydRVG+bNjJIevxSAogqAKJCmioFwMqmCSikPQ2zw79mNwUhDs7Z7tqY46OdAJgunFMJJn3WzrgEeARvpLX/kOVq7cID5s+rzr65slkI8SdTAYltbHnKfnmWfPVMCAV2IQKJMz6p4Gkk2VaKDps6+uqkIqkxKjxG3SeNAQsdRwOBySgkGU/5mDz9loVYQz3gAikYCkQTKoraqa7ZP5Wyu+gQbfR3lbfPM0bMx0YEqflYPPgL9UOinVHKki0I1B1YHbZXo+SQ2NLNUFrkvDTJdGfzwpJIDkZ9u2DnR0diGTphHMoD+ZRDLO9MeibDfP/eYKYuCtVISBNEHWBKDCQhJQKEr9ARaF8vq9IvFbkrwLAb8Hkeo6K2MinZD1ORaPm1jSsFrGmGSBfRYYLJhKppBKJGS/3CdjAnj8VA1ICOgq8LAjJc8HMyGkn0QINfV1gl8ilkBMgiLTYsy5H55T4sn9MIWR4yHGqjeDV/o4WPUUOG7JagQxsOofSKEmhi0KGaBDxMpoYCCjFH5iWiVlCI7X68Mh06bi/NmzpLolizDNOvUEK1vFLAaBAQQc0hyH68XgRBDsvRjkytUJQiVZDHq7Z5XFYAiCuWTHFAJ33Pln3PP3R8XA8MFeU10jGQrMBKipCiDWR8m+KJUIJV+eJYbFmFjBa909PXAVctje2SPR+d6BWT9nqMFQWOIXYvGEzP5pzBPJhBQY4iyVBigc4uyXAY1scMRywizOQ2m9RqL+vQGWMmYFwZTc6V4vYxJYRtgthCMe60cyxWBKr/jaaaikhgEJRcCaJVOJYBtp/j4vTaPSYtzFu+/yiTTPAkjJdAavLFiO5UuXSXBlIhEXOyfZD15un7N2t8yK6acP+MNWlcJ4N3LpHAp0d3B2zR4PUnUxg0Ck1modnYgjPVB2mg8ppgJWsfhQXb0Yy/6+mMQ7MM5BMj1dNOAkMlZQFasmEtpYT6+kX3okw4BGmjERdGVYBt5yhTBwkpkMlmJBZae6rhahSJUYc5KOXha5ogH3+MQ1QHdOdV2dVaEx4BNFJp1JSnAlCR7VEnehKG4G4mQpKmzF7UM22Q+3NygulaamZsyefTrOPusUNDTUIhjwyzp8NZUYx9SjpaKDLdGLQVcR7FkMysWgYg/shZIGZTGoAEVdPbArCXo3Rz0OQbkX9IZN7MVgshgqOs1m5dGCQCKRwr0PPIU/3XUP/FKAx4eJk6dKO+SGWsYBsFCOF4lMTroqcsrKhkk0JlK1z61S7Nwyw12/fo3Mmmm8amvZqjiAceNbJB8/Gq2B251Hfywhxiebo6+aRYUsuZv+awbgMTaAqYsM9stmSR58OHT6RHFLSFEgH2V0q1oflY7NWzvE2LGWgGQk+P0IMgCOxtLlxtZt22TbLPfMYD8auYDPJ7EIDFakv15iBgZaUzMQb/OmLXjmuflIJlJiIKW9MwMSWYRAiALjA/win7NmAo04lQKJo2DQn0RFcYa/s1OiVHek2kFj7vGJkWcDJ65PlwQJEvfNMbGglDzpinn4/GEhVSQwrK9AXz9n9MSBn8f7+tHb2yOxEAGSLJaG5vkSxcVy90iDRyoOoqAM1DOQok10AQRRVVsrxZFY9TEW65eAUVlckPbbTKmkBFPI00UBVEWikoHR3FQrqYzjxjWidepk1ElNigCqqsIIhzjPMotBoHwESqQ56lkMpZo16cGJKt3RkrwGFnsPBnsMgp7JoKc52rMYVDVFk8VQ/nk1a45CBCjB/+PRf+Khh+ehrW2bFD6qrqlGY2OzNBZibQAaNaYA0hXAioZsgkQpP5+lQYMlgecgM8oNG9YilcqIj5yGefz4CQMBdQVREcRF4WLAIIPZJFNfcu9pIBmoRyPdF2PnRzZuCsDtpSH2SV+BiU11CEWY0RCW9Ecx9lIviN0VrWxmj9ctaYv0k7PSn6T3ua0GUTT+UieAZYrplshkpcgPFYlUhp0SM9i8tVMi/PlI6WFqI10OiX6pE8D0RRpo9pCQ7XpYwphGmOWNqaYEpBgQXTWsSUCXAeMqqCLweGishVRJjwYr+4HqBJUGjosER4oSsv5DmlUT8wNSP7GLyOxd1JVgWJQRGnBJg/QGrB4YNOhFFzxslZ2IS/VG7p/HwkBG1caZbiDWUeBx0K1DfIk7t8E4CSnNzCBDaQXtFbLFjpiMW2BzJxJChibQ5cM3El/hglSBpMrAmBFWunz7FXNwyknHjcK7wgx5fyMwwlkMyptQVhaDIgmqSBJfS7V7NlkM+/tKMfvfqwg8/uTzuPueR9C2fTtCQfYlcKGxqQnVnE1Kvjw7FbrFBy+zbT/r9dPX7UcynpSZPmMEGNS45PUl2LZlM4KRqASj1dTUiD+bBp0+cHZH5PrhKNUFFjQidyhKJcZMhuWZc/C6C0hKTwW6D7wyE6XNonw/uaUJLndetptKZ9HV3Se+cG6/r69fSgwz86GpuV6MYjrFYEjOZCMS/Kjq/zHVki4NK02RDCMvnRlpIBlH8fDDT2Nb2zbxx9N4szGUVeiHFQotw8mmTdKQSWT4gMzKuTEJAHRxpp8Fkwy8Hh8KhaykV5JoueGWuhAkJXSJkFj4peETMwDyViXKLAshUVmxmiuRaKVSCenwSAIhbg6WkJbsCzZ4Yk8LHvd4CcxkzIdkVqTSEgsiWQvShZJGPSS/64/1yrapZlD5kCwDCbx0S9yCVUaZgY1Mr6TKQCWGRIYNnqxsESkKRfLFGgrMerCKTKOqpgazz5mF9171VnEtmMUgUAkCDkGKw2UxqDTHEc9iIDHg1EOPQVCuBVUHwXRzrOTsmnVHDQJ9sX7c+OXb0LZ1mzzsaUQ5e21sbETLxBaEAn4xcrURvxjjcU21SKQK6O2Ly6yfN7L0WogGsHnzdixe9JqVV+8NoqVliqxDY8ReDDR2jOinS4IzZwYwUp5nVoL4shnUmM1JkKOKRZDKf2KE3KirjWBCcx1i8bTI2Zwls1Qxi/xQiqeR5Kyc69KgJZMJq2YBVYKclR3Q3dUrNQ2ojzfW16KuthrNzQ3SiIj+esrqrJjYG0vgwX88i2RfL2KJODKZpBWHyJLJHqZRAjXRMPzheqRT/eLyiLP3QYaFgVgNwqrSyCwQfsdGVVaDpbxkBzA7QbIr3JbiQcUlw4yLXA7hSJUE8JEAsbQ0MxTyGQY8WgWJWDWRcR7ZAtDf14NAgDUkrEBJiQOgWybPWb0bVXX1UmmSAYTS62HgfLFcs9dTYFFoUQW4XakRkcyip6tDXD5UQqiOMDiVhMjrodvCBZeHMR8M22D2A7MqinIOq+vrcMSh0/Cud16Go45oHUiTdKpbN2puDzPQ/YSAjSDQtaAXSlKllu0ZDFJ8XGvUVFYWw4AHTY5UVVRUnRzVq57FYHox7KeLwux23yHAG3DT5jb85Od/lEqBfIyzFwCVA87wG5saxOfP1DUPU/jyecRTeXj5nulvjNIvFOF1uwYC+FLYvHkzEvF+cSNUVVWjqalJXA8eN2fqlsGiPM+qhswMoEGi5M9tM0aBUfjNTTXiCrDcAFbqImfL0u2QRZeiIdTXVUmHQYZCML2SLgepgcDASubwDygD0uFQyh5bM2xK7ZzhspgQgyN7uvrQH4+Ly4RZGJQCGBfB1tGU+rds65A+CBwr0xelVPFA0ygGPXLGLqmTacZOcXbuhpspiBw/o/tzBST6+2QMPE6JyZAsBSu9kHUgpFxzIW81nEomrSJEPgYFZmUsrMsgGR3V1RJMSTcBCYXfHxQSRJJFBYCkSGpIEK8BMVV6UBQGYhAG3AhS/GigyiIVCGnt7PEJMUkzjVJSKOnOCEr56muueTfmv/SqFMni+QhHojj8iEMwZcokHHPUdAlW5fmR/Q687rur2OzpYEXAlsVAcmDv5KiKJDlVUlQkgfCoTAb1fpcsBh0/vReDvQ4Cn0gmi+FgvdrMce2CAKX15SvW4A933Y9Fry9DLp2SpkP1DY2oikZRV1cLjzsv9QTyecvPL7I2ikil8+JfD/g8kjrItuvs8Njd1Yfubs48XaiKVqO2rk5m9VKW1+2WQj9Sdlcm30VxU0j1wQKDIKskRqA3xiqFvO85M/WKW4OGu1jMSQU/llVmCmBDfURSF9n6ORINybbZgpmFnNjrgSPlfq14A6vGghivIvsKWCFJlN/j/X1IxDPo6O6WLpJccukkujo7pMtjIpmRMsHxZEqCFK120FlYNMNKK6REz6qOUrJ4IBBRxswYB6b9DTyhmMbIWINUgimPfisFMsdnG2MTmLHBtst+6U4pdQM4a/dwvbQ1a2fAoZRUtoIZWbGRrov+vl4r/TQQFKPOqb6kVJuJGgAAIABJREFUKmZzotawOqN012QXSaZhkiwNDErKLjOMUux7UWIspF9GKIAjDj8Ml1x0FubMOcciaILbzrmW4QLmobI3Eaggi4GqgerkqCsI9iwGR4JgT3MsJ4tB1UHQUx0Zh2AKJe3NK8Jse58h8PS/XsXf7nkIW7ZsQTwWQ319EyLVNRIAR8mdhp/G2B/wYNv2XkRoeJCXWXhPTy/q62pRHbVS3ZhSuHLlOmzbukkMMYMD6Y+e2nooaqqCA1UX2RfALwShrjYkPn7OUqNVYSRTOYm0D/ipLtD/zhQ7tnZmFUH+FSWa3+oNkEJ1VQTjxtUiEmbhJa81sx+oKsgZOo02Szj3x1NCbJhWGQoE0dhUL4aPxGEgQx+ppOWfZ+vmF19ahI1b2iQDg0GJ6WRcOjBKgSUG/dG/LlMMK8iQRtlq0BQW94hUS0z/f/be/FnS/a7ve/e+73222ede6UpCQsaExRirDBgDNgkgbMBxgCQkjk0IiWNXkVQ5P7lSKf8V+RNSFbsCtpFIWIRlCYF23WXurGfm7L3303t36vV+znNpHc3cBXGv5s50T506M2f6dD/Pt5/uz+f7/rwXCJuYNM1sFlSrN7wWNksCOSEdEYfG0EjAHI3pCIRiEkZZEytdrBgp6Pc6lnDaLyGfD7khECIXc0s04+5z4iYyetSCJwVpmuOxv9KZvBsGnheEgPMB2dnb29V0PlOn3dJiOoU8oK1GU9eu7urjH/8ufeTDH1C1WjInBJLh5rZZge/ECryFigE0Yd1mOXJQXA9rWvdAWEcR3kAQHocerI8YovHCxTTHaMSwUTF8J66MzXO+aytAYM6/+Z3/T7/9O3+o05Mjz5WZljeqTdW2dpRIrLS7VXeRpoaR3oh/Acz4WjUkGXY6gfLZtKpVjHvm+tKXX9WD/UcumowJgKB3d3fMbm82Koa44dVVy3m1On17E+BSiMSOJqTXC86JcxTSiXJZQphCkx92zlgPs3MP3QvJEUipUSu5eOWyOSnByIOJ/9LSv3Qi4bk/u2OkiLlC3sQ+EpQptvAo+r2BYftquWA5Yq/X1X/4/Dc8zycymeOlaQF2n81Gjq0ez1ceVeAPECYWYzfNBB+ewdgSSRQYeC3wc4rwNBir3+96fEDBJtESmoRdC1FUWNr45zbRoRQytEJezMbKl1i/pQKMkTCawkDJ0cvwLsLnoeFJpjNaMGrASdFWxkQ+Jz0iyGdzSqWT+uVf/nv6u3/nR9/wHvhzROAcF9hAAu/a+27zwH+xFXgHYU3raY4RcnBR7hjBX09UMYTt/zfzEGgO+FnEQYjGDJATIy8E0AOkjj+38UH4i73Qm9/6zq4AxYAExd/+95/R7336D9Vqt8zEB8bH7piwogpktlLRUjaaAQpXrzfUo0enSuFASDpiJuuAI5wTaQgePHigW6/dMfxcrzfMNyDmt1KthEWUrAHbHMPEBzaf2UdgNJqZeBcy88fWyUOIo/iDCtilEbMeGwhF3gih5h9+QrGYd7NQr1fVaNQ8ZuD4nE2AQyN4h2WD2C1PzpUJY9sHI88cDMb2CqCxYG5/f/9InVZH7XbH0j9nKJixnwgTIecTDccTzadTczIowJH6gQYIyB9OAI0A/29rYlwW7XBIHHToNhjaQoemQvAGQB6MDKAMwV8AyiD8BeSGi4WjtEELGEHw3HQXPAe+EZAh6eLgK0xGWDnHrWrgeEECrl7e0Y/8zR/Shz/0otdtY0r0nX0Pbp79na3AmyAIkRcC87nIbnm9QVhXMURzsQhBeNMshmi8cJGoSHOwHvdM07BRMbyz13Nz76d0BYbBSC+//Lr+4+e/qs9/4StqnZ5oDpN+sVQ2k1ShWHbA0vbOtqqVspEDZvrs9CksX//GHafxZXIFIwL1ctHJja+8+rqOjo41GgaG0tPZnJuDcrmsUhHJX8yNB2mIFFT0+OzICWoicCibTSidJBSI50toMluqWIB4x+594fGCbQNNkMTWN6bxDBrgwo6KHBspkczuHXu8CIvwKpbQ1lbNskdIkWH8MU1DXP1eV/v7R3rl1bvqBwMN+kM3D+ywKdw8JcdKYzHo90xU9MiAuOZzJr+RkgzBREurJMJGiwTFov0dQAGcpeAkw6kLfjzBx8nKRZ11YPSPzNHqAMU9EoFs6ELOqAA74+XCvIqw4QhzHzxDwEMhnbH0kyYAtQlWyXu7De3tNS3//MCL19Vs1J7SK3JzWJsVeOsVeAsVQ5ToeFHFwK7i3PfcHy1RQNM3qRkuGiVF0EKEIFzMYYgQhItOiqAJkUnSRub41q/p5h5P2QoQkvTZP/mi/vCP/kRf+/prtvi1yU4KZcFSiXRWW81t1Ws15fNpBeOJLm/X9fCkZ3i60+s5U6F27q5XKuY1nwW6c+eBjo+PXJwp6Fs7u+duiXgWYJwT1yqe0IhkwHNS4nazHgY3BTM1agWViln7C9iuORFTrxtIsZSKech6STP1mcszGwhGM01mGDMlVc4ntIzF1KhVlM9nlSvkEBQafaAwsyvvtLrnWQArHZ92vYtvNBthA7SY6Utf/oZeu/1AkxHJkWFc4XDY1WQaZjKAIsgQ/XmKYrqo2XRm46HJbGzJoQmKSDJJMYQz4RFASKqklqNyKOQzqjR3LXF0PDQOiIQ3sx2h/zlXcIxGQ6UYNazITphp2Ou5oQg/JGGHhvwCN0+zmW7cuKl/9a9+S5d2d95IXAyTF8OvzW2zAu/3FXgvVQwRUXGjYni/XzWb43/LFeCNxZwdQ6I//uwX9fIrt/XVr33DM/q5M4QWotAzPS8wXsjlTfyDzDedLVzYOt2+hkNg+BC6TiUzatQrGgaB7t/bf8O3H9IiTov1Wl0FRzAntXXut8+c/NHBiSH9fL4QZjYQGZwO4fR0OiymcAxw4oO4CIs+HodPEELseCRQTDEc4mfjczKjnwOHxUTKagpcABmX0FA40dChRhONR9PznATIiWFo0/7Dlg6PjrW/f8/nhekwOv7ZuGfvgtA8aRW6ExK77JXDRRKnxJSlkm5q4nErA0aTIOQMwJOw6dA0jHB2XC17jhDep3DbYwKeBIFRJC87mTJvvwS8JlAoOE0xkVD7rKWPftcHz3Mukk6d/J6Pf5d+6id/ZGM89Jbvgs0d3u8r8CYqBkYL6IrX0xwfp2J4nM2yRw5/kbCmKPI54iBECga+R06KGxXD+/2qe8aPH5MfivIXvviyi86f/tnXdPfevvr9vuf6lCR072wyGS2UyqEcMZtOW21Aoe12u0YB+sNx6CFg06SyDg8OdHzc1tnpiQsmhDySGCEmVqtVewI0GqGHAcS5Qi6ls85Ad+889FycxmNvb1tllA3ppILRRElQBtwIY6EXAAfGrj38cAjT/fAMYOQQ2v9C8AslijQ1tg8ekz6IeiDun1HQW62upZc4EjLWoFhDImTbjmqChuTg4JGtkEEUGJ/QqKTTxEdjP8y4gbEE0j+OPbSYtqqCZoGAKK8j1spJHw8Iwhgp5BzHRL4T4JT130Efwp09zUKIHPDFj+Kx84YhEXoaoAQhf+Jnfubv6r/7R79kZMSQp22kN7fNCjwfK/AEDsK6F8JfuophXeIYkRXXsxgiq+XHqRhoFDZhTc/Htfm+O0uaAEiI+BMQUUyB+dTvfUaHRydGDAyle369VCabUqXadATx9u6uiyBkP8f5rlYaDDo28yFtLxZPOY53OIDHcMuNBgFD5imkMp7zV5tbqlZr2mmU1BlMPJqAnIemn506c34kc7l8Uc162WMBCiOF++jo1M+51STBMNxpc7wOTfbfKfeQFpdaxFbYGKjV7prYSOFElsk5OzdgtVK5BNkxrlu37ujh/oGKpZIlm84cQLo4Hp9nSiQ17HVtaESaIVQHVAE0JcNuW0tgi+XcSoAw0jgs6rYSTsTNfcBO2OOTVRiA5LREnAX5bo8E5JBzBzxxh36nr+mCoCt7EYWPK2mKffK5nDJfKum7PvIh/dLf/2n91b/63ZaMbm6bFXheV+AdqBgi7gHfIxXDuqPiuonHm6oY1oOaaBIiFUPEP4iahEjFEFktb3wQnter9Ck8b8+u52QIrPTyK6/r4OBQ/WB87t0f1+//wec1Hgy1UmiRm4iTaLhSvpBXFr9/IbvLqpDP2qwHYiGmReya48mFTlqHii3TKuSL6rbaunXnof0CYOND2mNEQBEvV8Lkv0qtqst7O4LzENNcxyctzZYJzcbEA6/UaDTsrJhOm6evXJoMhqTy+Yx6/aGOTobOCghn6LgeJhzD7NhhRzqHUsZKqWCJ42A0dYYDo5JuF6LgTEcnZzo6blkc6WTl5cpNTqt1pl6vY8vgYqVhgyYaHcYKxDczEgABSNPwlIt2Rex1+0qms1rO8H6IW3JoAyI7FqIkiCuRCgOQOKN4gihrlBSMEhKaLRZeI5wSaVLgHUymYxWzaX3iE9+vT/yNH3B89dHRmZsk3BRfuHlFW82aX68Nj+ApfNNtDuk9X4G/5LCm6PjfdliT3WXXvqLmgJ9dNEmiQdjIHN/zS2TzhOsrwFz/9Kyt/mCor3zlVasR2LGiSBjZGTDQ/QcPPceezZjpJ6znz2eynn1jqMPcH1dCdtY0GEgYaQRana41+8j1uA82y6cnZ7p967bJixRLinc6R3BSTPlCVVUMk8ol79yZm4MCzGZLOxCSLcDOnYKKXwJSRrwRQMohN+YypB6GFs5wC/LphHqDUWi9bLUDGn9yHFAizEK0YDxSvpDVznbDzQI7bBQAp62+Hh20RK4EY4VgMNDZ2akLOARBEidpfjANGgfs6MOI5JCgGFojozpASkjDkExlHT5VLBSdwmhnxnRKeRwJp2M9ePDIzRCcBBoE+AfcvJ4plBnwDbIOYCJ2GUklzQVIA1yN//wXf1Y//3M/YZRlc9uswGYFvnUFLqgYoqCmi3bLkYvi42SOF50UIyXDY62WI17Ck4ySojTHiwgCjQJKho2KYXMVf0dXgDfMweGx/v2nP6NyuWCG/CCAiDfRWbdrYG02HanX73kmD1xOYmIhV7YbYc+IAvPtgslwkARD6+CVZvOVC3EsvlQhV/BO+NVXbjndkfAkEgGXi6kS+AJkM8plcsrmi7p0addFn6REHsNugvOZ+v2Rd+/stEdIBTMppz9mMzgDxl1c4SmQ1MgoYTJbKINiIBWGP6FYwJJ4Qf4CzP84/IiEJszytdJ2k2AlqdNpu8ju7m5rMltZxjgMpup0sFDuO9WQ4syIhccmhIkCbrOhVUzz6dzKBOyh2eXTNIAYIJf0yB9lIUmUpbI++KEXVamU9eLNK7q8t+XnODg40R/+8ed0ckRmw9BrTlPGmITjC1Mfzx+ID5JCwYZFP/zD36cPvHB9gxR8R99Rmyd/mlfggooBUiJfkQcC3yMfhG87iyFSMUQchDAJJiQR8/eIh7DJYniar5jn9NjYYVPI7967q5df3ddg2FWxWFDnrKv+eKCDgyOT58aTpBarqVL5pJqVyy7uzea2ioWCsqmEiykFbBlLukEoFwuaLSZuHtJJ+uKFVQZwFD732S+odXYWEuyIHD537wM5qNa3Xegpdnwx16/VSkYVQAtoFPqDIGwI7AuAk2KYxcAuPExMDM7RgJK9AZqNokZj5I6MQ7AvziqXSWo6W6rd7YdEPhwYe13l8gUVi1k3D/g4dLojB0Q9fLTv89vauaxBr69er2dZZyaTEjJC0IM4JMN4WuOg5whjoozT2ayf7+wU62F4TzQPEDAziqcwSeLzJ6EV5kUgL+m4XnzxBf3Kr/w9fc/HP2Jug2OdIR4uVzo9bevlV2872ZG1wd3wIx9+QTeuXzXiQc4FzdHmtlmBzQo8eQUe0yCAHtAk8IZcT3OMvBAiHsJF7sGbhjVdzGLgiEJ69Dc3B08Ka9qoGDZX8Xu+AkDsg8HAu/svfvGLeuXWXUf0bW3v6uyMyN65I4ofHAS6d+eOMrmMdpo7Oj1reVRw7YUrareHSpEDMBmLoXyhkHchIxNBK4J7QhMhLJNjceD+uCH6l19+zXLGQbdrcyDkidwYPQiEIV+0YqFYrNgqma02CgXyBgaDQJ12234EJEOWiiU/LoTCUqXqsCTyClAwDAddjwBwAixXyuZJLCAorkASCIJKhRnsWVj8K7VaHVUqJc3mxCjztNgKh8+L1wHKhU7rxJHGGBFt7+7YJZG1xNo4tlQoSZxOPO7gUwS/AVwPkVfm4GMsFhr0euHPFcYwo8DwSIIRx3Co4bBvyWO+WNSv/uov6Nf+y1/YKAze83fI5gmf9RV4GyoGxgogCVGDwFs6GjVEEseLTopetsfJHNcVDOtExQg9WJc5blQMz/rV95SeH577BAfd2z/Uq7du6fRk7J05pDd29+OptJgwy445+jiRimkUYPYTsuZRAkI6rFRLCvpjM2xK+bxiq7mWS5z9FqpWCk5P5IYsEo8CCvbBUctxzf3BwCMASH24EzKDx2+AXW8mm1O5XDGfAQ5Bvliy4yCIAkoFYPkHD/YVDIeKJ1Pa2dlRLkfh5fkhHBIfHVM6EffjjcYzjSdjVco5TcZzza0WCJ0c7SiIsiGZUimHmiKl/f0TVetl+w+AWswXcZMKT8/6Oj45Ua/b0zjoG50IwwdXbg5SqbQy6ZTmqAomE+/2M4wzzp/PjogoCRzDnDRSQO7EyfGJJqORxww8Bt+jSGVIlp/8+Z/WP/+n/635F5vbZgU2K/CXuwJvQlJ8s7CmdRXDRS+Eb7JajpqFUAAe3i6qGNZljtGIIWoQIiVD5Ka48UH4y339N492vgLsXDvdru7ce6jXXj/UaburVWxB6LHn/Z1uW41mVf02JEIcdmDi9zTDnW+x0iqecVFDlkdWAqOGQjZrpj++BGj/K9WCyYckBVLPINjxxmCH/Y1X7unw4ET9ftvGQRj/kCxoomP8nNyYyli1AGGQogvvgEYFxGBvby90WYit7EZ4dLhv58BKpaZqvWYzJgp+KJ0EuQh39owJzDOYw31ImzTIfYIRCAfGRKAFeDekLQt8+PDIJkPdzpkLOSqHne1t+yocHZOlcOZcApoO0BKOleLNd9wO4USkc9nQY8EyxpDzgLESr8EY9IGshXRaW80tfeDmFf3A93/ciouj4zObPtEM7e42jch88AMvqF6vbK7jzQpsVuBdWIGnQcUQ5TBEJEWaApqGSMUQERQ3JMV34QJ4Hh+SgjRCx5/CNTCudqerhwenunPvQN1grN3tSxoNsDpOaBB0vJvu9UYq5pIaT0aO8IUghx9BTDk9PHikvd0tlcpZdTvM1tHrz1UsV4UEf7GcK5vPWrpXqpSVjEnD0dTIA66A3cFQr379ZZ11upouZpqPmKdTTEHWCVAiqClpM6F8oaLhYGAORLFU1Hgc6NH+QxP9rt74kAoFzIPiOjs91WQ8Ub/fcRgUjojVel2NRtPyQsiQFGQQDCSHZDkwm2eGv2KskULlkHSzAZy/jMd0Zaeqs1ZfuWxG9XrZKonPfu7P9Ojhvo/v6vUXNBj0zt0MR5rOkG1iWnTuU5BYadAdOXOBGOvG9iWbGYFA4KWQwKAJJ0Y+AJIZcyjK1Zr+2f/4X+l7v+ejoQ+C9xcRarmRIz6P79/NOb83KwBXKZFI/J+S/q9zzkGkZFgnKkYqhnUfhPWwJt6wkXohymV4R2mOj0MQaBrWnRQ3Kob35pp4Jp+FusKc3NA0xTmY6NVXbzkZcT5PON1wPCHFL2OyIcRByHfZLA59YxXyaRsDDYcjOx6SS8AuvHV8qq3tqgsbxRhYf2d3xwRBPAtKpaqjlmlGgmHgXfyM8CBbIyV1fAYL/1SnJwcKRiNNJqFFcRzPxdXKTcDW9pa9FYbB2K6DYPI4LeKHgO6/VK5oFPTP0wtXbl7gMbBrh/jHffAYGAWBMhD+tDQKATIQDAKbDnEuhULRrowYPIFODEcjJVEWxKTxZKZSIW/kgIaiUikaTWDsMgxmGg/7unPrloOTaDqqjS2PNBh34GDIDZfGMHUxZafD6WSucTB0FLTRjUTC90WRwSiEpgVpJGOFf/Lrv6JP/sxP+HFC90OOGdXD5rZZgc0KvFsr8BiZ47qK4a1GDOtERb91z4/zW6yWo+Nf5yVEKga+R0qGKO45+r7ugxARFTcjhnfranhGH5dgHTwKQAn2Hx76cnt4eOYCm8uXlckmzWxHhjebTVUqF93v4k1AQqDRgPlc7W5LwRByHTP8lEcE8dVSY8v+pFic+XnSjHmyESj0Qa/rmXkskVS1WlYQANvL3gaJWNJjjEdHLe/Y252+d9qQAxlVLFZSs1m3cQ9+QK3OUMPRTOMg0OnZiXqdjiWTeCAQJoRHwf79u2b0ExdNAXUEc4bRQtxFmKJNhxQ2DxmPAPAwgAjIhwG/RyohO3fkhqERFGZJcysqypWaxxLIDOELsDTHJ20dH51oMKBJwfho4LWlkeHfECQTKRQPWENPzTng+VmXfq/vEYWtoVFN5HOazcb+PZoIPBDqW1v66Ec/qB/8/r+irXpN+VzajQwGSIwdLhoaXfx32FBsWoln9O29Oa13cQWeoGJY90G4GPccERSj5mA9wfGJDcK3q2LAIGnTILyLF8Kz+tAU9wf7hxpNxwrGCw2Gc6USGc3mI+/ki8WcEquUglFgJ0MshNkZJ9PA2yklkivzBOAD9LodTceQ74ZqNht25RsNRzgOqVSs2JCIHXun3XcTkEiwVydgCAlfTtlMPJQeojpwvPDAGQY0L0D1X3v5rgl5jDzY4Zt46BCmsprNikqFrG7dPlAmExILT09O3cAUi3ntbJHBUNXx8an+9Itft1lTv9tRrgBxsaxSqWaUg7pNs4HHANA+REfgfQpuMpVzBgLNBNJJpJnAB8Y6EkvtPzhw0BJNRDyx0HI2080Xb2qplA4eHWk6IVhqomAw9NrGYikNui03LPATKOjxJBkRaa0WK0seQSpoEGh6wBzhb5ArQSODvfSLL76o7/rIS5pNF8oUklotEm7QKuWsmrWqdnbrfi3CjIdzK+a1izlqDDZNwrP6Dt+c17u5Am8S1hSNGN5VFQNt/boHwpNUDHASoiZhk8Xwbl4Rz9Bjs5Pv9IcKJhO98o0DVZoFjYeB6rWKrYWrlaIWUwyBZsoXcppNJvYPYG5ezNOP4h2wUoqdbjBUPpexdW+301UwwAq4q1qzqvF4Yq4AN0yKkEZW6kXbJC+WExdCopfTyYyKFXb20mg4NREPnsD+wxPvsu/cuqsHD/cNuSNfPD46VLlc05WrV1WrllSrZNXrDfTgUVvVat67cYpwb9C3hPHo4FDNRsOoQLvTU7fbcn4DngokJlZrFX38ox/SdL5UuVTUrdv31Ol01WnDUcgpmyv6u4mLjAmqVSMjjD74Oz4Hszm8iKVOjg/V7Q7s0QBhsN7cMuxPYR+ZPzEzoIjlc9Dvma+xWsaUYYSBdDKZsgxyvpiZg4HREkRPngOfBrISkGi+8IEP6id/6sdtKU2TAPfipN2xL4TmM201K7p547L2dhuqVPLmRoTplJtQpWforbw5le/QCjxB5njRKAkUgUYh+oKLwFeEGERowvqY4bHjwehd+yQnRZqFNwtr2mQxfIculPfD00bpfFyVcAwoZo+O2p59zybMtmHLLxwCROIfRRKYHN9+1ADM6SliBw8PLOOz1C+d9ighlcpacsh9Tk5O/DNgdEYSVDqK0mK2UDrHY0+1AK7PZw2nx5HykSqYy2i1WCqVzmgwHDqJ8fXX77mYIze8ffuu45ODgKZiblUBvgBlwo7SocSxVMrr8OjMioJKqehijjwxGE+Vz2XNkeh2e+r1+xqNptraqps8SBGGB0EgU7Vc0nA0NlqSy4J4dNUfDjQek3lAcQ3dFCE/gm6QlAh5sddt23sBrgBqiFarpYcP7hmtmIx6qtabZiKl0jmrHkKnxKWWc6KTk+YU4AY5nY6UL+a962dt+BjB7RBfBSUydm2M2xchoZ3dS/rp//RnjJS0W2fOtSDRsVhI6d7dR055BJWo1coq5nK6fLmpvV3OsWCkxRHP74eLd3OMmxV4SlfgL1HF8LbCmiIvhPUmAeQgIipGDQLfI4njZsTwlF48T8th0QRMZoQioZGfq9sf2SlwMhnaorfbbatcLLqA1upb6A6FvX+vC+kPjkDCJENSDvEgqNcbJiVCEkSuF1/JBEeY98zYGQ8AxQ+GpACSDDi3ERJFLZkiPnmsUrGgBLkBxCDHE4qngcjDCGV27atYXJ1Ox4XzK1/6moslhkgHBwcqFotuSmr1ut0LaRYgJubzebsclkolPy+cBQpioZjVwUHbjcNOo6h7D09tQQx6sN1snMPvCzcYWBvjxZDL8riyZXS3N9D+/pGjppERkooIeRHSJWgCPAd294Q9sVYUdFCY4aBvySZhTMgYp5OJSqWKMvmsPQyQWTJ6wVIZTgEeB3ARIIzylqfwE3eNcgJiYjJBY0Ig1cQNxw/84A9qb/eKkpmEJsOJCoXQvRFVyGIG4XGhxXKkbidEZGBdZ7M5Xdlr6uaNPW1vVZTNsq40LE/L1bo5js0KvD9W4E1Iio9TMTwuiyEMSPlmNOGbfBCit+VFH4SLVstRk7ButRyNFqI0x43M8f1xXb2nR0lBn69kln0wXurO/UPlMjEtFjPVqjXde3CkGzeu6rVXXzNcD8mt1wtcTMbjpS2DT097yhcydgiq1Usm3+Ep1O8GWiynSpEQKDINBp6RD4fM28eKLVeaLle2H4bsOB1x36QtgWkumL+PxzMVimUXN0iMyP4g9I2GEw2Cob705a9oFMzcbAz7bUshqWbI+3Z29iyrJFMgVPfFwuJNTDFwfzymS5e2VCxk/VxHJx1du7qju3f2XbQTmbx2t7fCYKdcTjeub6tWrarVbuvu/WNdvdx0+mId06Z4TF/60i17QTCyKFcqGo4map8ceYyQyeVNCgQ1CbMUEiYx9jotHy8chNPjY03GU4ckwTvr3sNiAAAgAElEQVSoNxohSmPr5JUy6YwVE2cnR15/Uh3jqawajS2PRnBI3Nra1l//oR9UrUaTFo47eG3gk9BAIbuEzwDPgedCCQHKogSv50TjyVCZdFaJWEzXrl3SCzf2VKsWfU6PGz2sb2ve0wt382SbFXjKV+BtqBgikuL6eIG/r5MUv4mcGDUL64qFaBkeF9YUcRBAFNZVDJFREt8jk6RNg/CUX1Dv9eENgkDH7bbq1abGo7mLLI3BYhpoe3tb3V6gbD6jyTiQ4hkXGP4/ncurd9ZXHEMCYQKU8O4cgiLWh6Q1TsfcL65sKmfTILQ2uBreeu2eiE3wm0crpTJh8BAw+pJEx/HEO3HSHvn/SrnisQLoAmMJ5I8QH7u9tpfr0cND7T+4r0cPH3kOn8kB0Sc06HdVrTf8PEDp/V7P6ga8DELp4FKVSsWNyO5Ow9LG27fvWa6I1BFXx073zOOAfL6oWqWsVWylRr2kq5d3zb149dW72t6qeaRxdtbTdrOkO/ce6fSsZ+JiLpvS0RHEyZV63aEbAZqSySRQvlA2XyA8p+CcE7FSOp3T0aNHtpBmFFmuV5XPlYxIhMFQoDVjkyTbZ6fmPaD6KDBKyaR05fIVffRjHzMCQwjW8fGx+QjwFGi+YrGV3SSXy5gzJkBrpqOJ8oWi/481DAMi58rmEh7PXNpr6sqlLVUqBf87ahRCX4VvvW1UD+/1O3nzfE/jClxQMQTnXgjr6AEfRDQJ33ZYU3T+EQ/h7SAIG5nj03jVPCXHhLHOcbuvXK7gQjwYhhJCgnwm45mmc5jwWAzLs3YKM0mEKA3YhaJGoBATe1yvlyy9IyJ5MlkZOg9GYY5CtVFT67Tj/z8+PXGaIsx7ihG5BjQb42Dg0cNsuvROn5EAO+QickOz8+Oq1bftRUAgAVwGiHvAFOycR+OR7t69r1FAEuRAze0d/x98BOB0vAcowp1WW/VmwwWfhiRfyNummdwh5JmnJy2nTd64ft38iUola2tkeANA75PxQLl80Q3FJZse9XR43FEyQbHlQPGCSPgxer2+1xVS4s7uth4dnjmAaTabu9EYDQcutIwPWF9knZGEkqI9CYYaj0ZGGXKFnIrlklJkSfCCJEiRzHjdIHVS/POlkov6J374b2h3dwcNqb0SWKt0KqtUNuuxQiw+13g61nyK42PW1s2sO+MUiIylct4jCnIlGGEottByMVO1XNaVSw3tbNc8aoFnQbNDMxA1ChGPxdyFzUziKXmnbw7jO7UCb6JioCHAEyFqECKzpCiL4R0hCBdljuuZDE9SMURGSetNwoak+J26Up6y54Vz8PVX9kPWeiato8P7au5cCYmIMzITYibdTadDexYAkdNQxGJJZXMZnRyfWdaYTCOby7mQ0TiQXDjsB0qkEsrlU+YOzBYxRwkDmXc7fRMHkQYSLVyt1RUERAzH1WnjXDjV3M1D3CAb8kmcENm1xlZJOx8mkjIcH8oBmaMnrI5ot9tOe3x0cGSW/os3brjIPzo8tdoAY6PWWVv3Xr/lHTS/02huuSFhR95o1jUYDN04NLcYJRDSlNCdOw99Xxe/2MpGT4wL6qW8coWsHmHUdHpi5IERgmIJw/O3X3/NY4Fr1y6bD4GageOgqHOO3IfcCgyg0qmEEml8CeKKLZeaLhZKJVFPpEyObJ2evREWBVoDikABN/dgFY6Crl69pEw6r+vXbxrZAT0AdaFO05QkEhgozSwVZaRJcQexmU7nVqHA9ZhPFkrn036dCbGiSeN+6UzOzRw21OVy1hyF3Z26KuWCmxN7VZxjn/wOzcFGCfGUvek3h/Oer8BbqBjezCgpUjFEKY7r330ej6MEfbsqBpqFjczxPb9Mnp4nBAX4/J/+iS5du6nDR21SkRSLLVWqkUSYV7lSdLFM57O6f/u2PQDYlYZQ+FzpTFLlcsNyOSBpgojyxZwGXZqCpBJI9eb8DKLhQp2zU+3sVh1wdNbqKJHO68GdBwrGfV26dEmVYk23bt/S6elDGwMhFRz2hxoNA+WKGdUrDTiQWs0TiiVjtlGGpwDzn7m6N6mrpfrDvmH45XxqkuRXvvw1jw5eeumDavcG3tVjssS77O6de3rtlVc0n46tMqBZiCVi5iS89NJLGs1matSbun7jilbLmW69/sCcgOFwqHw2b1ge62WsmfOFqjrts/Mshqkq5aL5E8RYj0Z9cw1OT1tuHD70YWKVJ24UaGrSyZiW+DkMBnp4/4Gbg2KppFyhaOMnijcGS8FkGoY2LTF/ApHAZyFnTgceCyAbe7uXdP36DVtbF0oZjxROjk5Ur9W9RlNew3jcplSMRliPmE2qkJAmlcmAZIA4wA2ZKRkjJjplvki9RpjVUJlCnoQL9dqBcrm4eRs3rm7phat7zqqg0fQICkMnVBUbueTT88bfHMl3bAXWVAw0BMPz9MbILAkEYR1FiCSO62FN0d/floqBE70oc4SguM5BiIiKkYphE/f8Hbs8no4nZld3cnKmL331G3buazZ3FBOyPHaISTUalzSaDD0uoOgDRecLWRPYBsO+MqmMlquEcsDsBBjVGuYRwBXAwQ83QWR37LjZPUJowyIon0+p3SWVMGb5HQmLQN2Uxm6768cKgr4S8bSVElgJI6XEMhliIEx+yHWdbs8wvHer8TA/gIKNrTDMf/soxJPmSnCuNAn37j500QL5f+H6Nb38yi01m9smSH7us39siNxyRFCK0MvRI5X61raL8O7ervMhbt++o4cPD608YKcMtIFiA0OGZnPLP6Mxgpg5DPr+3Z3tptKZrIOi8ILY398P1QfOUODtCCy/CHkH8bgNnTA7Ak0A3SlXq+dOh2mTGiejQHOCmILADo/JVFbZQta7/EK+pBvXrymbyYXqDMVUq1dwPtCwN9ZiZYqjsgWinnmcmJuRYQCXA/kmFtUzyzxpBImSZjTB8WKdXSqhCCEyGldMiIz4NKzcOMYSC21VcvruD9/Q9RvXzIPgfFgrXjd+Z3PbrMDzugJvEfcMFyEiKa5zEKIxA8u27oewTvh5YhbDRZkj/44MkqKwJhoE/k6DwKcRX5sshuf0KmU392B/X5/73Jc0ni7V3GmqkC9oNhupUKxpNp0bHg+CniFp5tIUZ+B+Cnirc+qdbCFXdpQxeQLsSpndwyUoVesubOzY2UFWKiXNlgvNp9gexw1Dd7qB2u2e5Xv5bM7FEdvl0+NTpzxSTGhElp6RIz+E4xAWMKSHKCIqVUKWhioVCloqpmA0UJJuAekfEHoy7gKMqyJNDrv1h4+OQ/+AycR+Bc2dPSMJx4f74Zig0XTjwnmWyiWz+Nk1w4/g/K5e2dPx8Znu3r1tOSdSQpwXg/HEnAYcILlBzgSNmC/m5jdcurzjpoVxBR4RNGc8x8nJsc2dwgjqpDkFFFqTF2M0UXOtxGhn7mYIJYTtmnFLHIcWytwXU6pytaIXXrhplKdWKRplgChKuiMeErHYQqPJSNPJwsgAzVxvMLRgiuYPvgHkSdaexhA0gteVc4GDMrKPAyOkjP+eSpH5ELpY0vChKmE8lE7Lzowf/cA1ffCDLyjLMdjDARfNTYT0c/qxszntc2fSeDy+Hta0nsVAg8AXCMJFkyT+fTHmORozfNOIYX3UsM49WI98vuiDEHkhrCMImwbhOb1kDw6P9IU/+7Japz07EYbku7ri6axSsZhiyYx354cP7yudZYcOeS3lICKKq1OF2U3GiExOWPN/8+ZNPXz4SIVcUYlU2oFGqVRMuzvbjlju9IbezaIvZBxQqBTNysdymLyn4bCjQrms115+XYVC2gVxOAzUPTvzLpzdK3A7BRTFQTqRdAOA/wDs/VqtorPWmc2SDLUv44onmKvL6AXNBs/HuIQCf3BwqE67p2K1pK2dS9q/f1/pJCTFjAbB2FbQqAF2dpo6PDy1VJCd9Yc/9KK++pWXw+hmxzanbMbUOju1d8PO3mU3MhA9l0v8D5IujM1m0+OJ/oD3/1LNRk3lUs4ujBT3z3/+8xoFjDhWHhdAgoSYyU4fRQQdkW2cxxOvEyTIMIuBcU9GhTwxzTdCF8Vs+twfAekBuQ0p7V3aUWIltQYdjYOJ5lP4HJAiYzafQg0xg18QQ76Z8bnRiIAk5LIFjxBYQ0yoYsukeoPAhFHGSawT/IYSKoyMdHLcVaGY0VajoP/ku1/QzZvXTTylSdgQFZ/TD53NaXsF3qaTYjRiWE9zfEdZDH6uc17CRsWwufje9goAw//RH3/OxS5fLKvfC1SuN5TJFpQkDjgVN4ENeLrdOlYqiZEOeQBkJEiLGSY9fJ+bKIiHbxrZIgZANtzBMKhgZ79ivqBqDXdFih2FJuNdaz6fUbc7ckTyeBIoCVydyni0gQPhnVdvK5lNqFQoqXV2bHIbNsRBPzQ2WvrSTyibK2gy6rsAk2lQr1XN0J/OFprOyUAwcG+r5dlooVQ26d06RL+j4xOPQTrdoUmDvcHEUdW3XnnZVtIgEc2dXRfh1umJrl+76jyFhw8PzCPwLl4x+w7k8gWbRrXa2DH3nOHAcQLlk2AJ0RNUAiQCN8oEks3+SKvFVNs7O5pOGGkk/O9vfOM1ezqwdWfcAUFxscIFki9QjIx6PTIlciqWqi7wNBzIGj/8gRuaTcfmT2QzRXM0aJYIhGq1eiYTBgHulqRwDp3TgLUz5w3RckSwVTLj9e2e9ZXK0jjmbMjkcVIm5ZROJJnjKRyGpNUU3fZAtWbTP18ussrnk74fTUezWdYPfd9LunrlqqWijBs2t80KPK8r8BYqBngI62FNofY6RBPWkxzXA5uiXuANkmJEDl73QOBOEXb3ViqGaMyAgmGjYnhOrlR2/DD6/93v/p7Ncnb2dpTJFTTozzy7xkY4l0mrQJwyLkmrlWaLsfK5vCZT4POB7ZQZOWCRjNEQxkb5XMGBQsjf2N2iFoBNf/naZdv7ZnEALBYUW2D1m4RdqP5grFqDXXDCrorEQcO+t/NXLKb79/ddjJFOHh8ea0mU8Qx9fs+SSCR2CycbhomKmWRKy5is38dlMAWMHVs6uAh1BEx+ZI3wGfjisexQWC6qddbTWatlOSaQfKFQ0P7+AzcRODgWiyU7HA66JD2utHf5khuZcCccFmdGCCAEhVxCd+7uaxDQ/MxcxOFgECwF67+IodQAWSOzeGKw2SCgGhhrMl0qnYoZCTg4ONaw11W33wt9JOJxIzqMJOAfoCJhRADys7UNPyJhMuT1aztWPHIeIDsOj6Kro4lYxZVIYtO81Coe12wytqU1ktAZ/gorUIS4kmmMm8KGhPhsGgePOpbhZ9V8FjO6wB9GKvkCqFDIxYBLgVJ1ymsdj2k6n6lUzKtWqeqv/7Xv04svNL0em9tmBZ7XFXgLDgINQhTWFMkcI5JixD2ICIpRY/AGD+FJKob1MQPteRT1HI0Z3iyLYaNieE6uVNz8vvCnX9ajgwdarZKq1GrW28/nSc+4sQOuVSrKlYqajefevRYLeQ16gUbTkWbTQJPxSGV2rYm42u2WmfcUYapLv9f1LpnGgccmq6G5tWU2O9A4hWIUTC1JJPa43qgZTp+NAp0ct5XPpy31Q0HQ7w4M1y9jcY2GQ61W7KKXevjgvscC+Aiwg4cnQZYBlsTIH8cjimaY18Au2UqEc9gcPoCr4ArIfuqxB9wFJH4nZ2HsdLvTsY00agTOg/Md9AbOfAjlfxMXRgpz1ogLkcppVStVbW01VCykNZmudO/+fTcghXJV282Kiz/3TZhfJPWHE0087485c8Ici/HUED7nC9IQDPse09y/d8/nB/8BVQijBVAIW1Evl37+nZ0djxdQETBG4XWlUQPpmI7HVkagMMnmUpqORhoMcUccOc9iMiOgKun1SKcp3isrDmguSLhECkqTAdeA42b8kMtkTC5NZqTFlFyNtI2xBv2xVjEksGkjCyZhWiER1+VL1/Q3P/E9un6t4etmY4nwnHzwbE7zW1bgCVkMj1MxXBwxRByEN1Ux8IQRivBmMscoiyFSMEROihsE4Tm7aNkl0hzceXBf/dFAmXhe1UbdxWDUXypfyhgFWC5ilsERu0zhmY1jyqRSarVbWiwmyhSynv1T2PvDjkcL4xGyuFmoSgB+nk0Nke9u72rv6hXv+Pd2d/Tg/iPtXdu1URI7YCD8/nCoFFLF6dQug3gitNunqjVrSqPpjyVtdDSbIlXsWT4I6bBrc6GliX3pbE6N7YYSsaUjkomVhi/B/H7Y77mRIHyIXX8iDuoA0jAxUZIbsDfjk9F8oX63r0G3J4YHKBt6va5/j3WaTQINB2NdunZdg86ZFqu4CYjJBB4Bc8P0VHqKInbINCRbW03nPly7suOd+tHJQNlMQkfHZ0Y+3Hxk0n43l0t5PycNTfvsLAyHwvK4XHaz9ejRvpJGDLasKCA/AnLo3k5dxQopkRAi4RAg6UBeGtMqtlQhz4ggbnJgPldUp3PsRioWX2q2mGru5iWMrcYIK59Na9iDDJpRqZp0eiW/u1qAIGCElHI2RDDpGglB/cB55HIV5QtJm1sNg7l2d5tOmKTpKRUaKpVT2qrv6Kd/6gecQ7HxRHjOPoQ2p/vGClxoECApRs3BuorhIlHxolHSRcvSb0vFQFNAw3DRJGljtfyMX7gUnAcP9vUnf/ZlDYYja/rz2aJd+PAugDmfyxAEVHCBrlTKNgeCK4AKAcb7HNKB8OjHwCejXp+kwaqODuEoJK3vL5dq6vU61sYnFFehWDDLPQbav1hoZ3fHRZEiB2eAYCdGFsQTA7tRyJlPU/zGo77tm9mBT+wMyP0WmgR9jSfsjGWvADgPNCi5HHzb+fm4Y+bd84xch1XMaAH/j0IjlUyb1IinALN25IE0D4w4UASAGjAq6ff6th0mgpkQKZql8WSmyWhogiRqAdKROQ86Dr4jT4RsSJ5CfQsL4rrqdaKrB3YcpGkajmbKppPq9PoG+jB5Qu2BORQwPv4TeAUwZqA5ee21W0ZmGL8gtzw6xKI5pq3d3TCIKZXUzRuXPAZiLeAEGOOPp5SGwDmduVGoNqpGYXBH5LEGg44VHcMACSVKhSUn48ckbIrjisUXCgbhGAPTpjjZGTagCLkRrCMNEpyGcrmoQbfvaO+Q0MgYIqlUBmLiyrkY8C4KxZx+7BPfr+/5ng/YaGtDWHzGP3w2p/ctK/CYLAaag6hBWEcRHqdi4PEeF9bk53lSFsPj0hwj9CCSOUaZDFGDsJE5PicX7717d/XFL39NrW5gmJuCZ1h+Ec7oKZoUOOR5OCOyW6apwP+fYsd8ezQemuy3XE2NMhjSDwbeZeKYiOSNXe4qhi1vxXNz5v4UoSqxweWS2f7gyrVaTZl00nP/YoF45bBBoGCyy8aDgHyATDqnNFHNw7Em46GVEbPx1McCPH54cGhom+egsPEYjAeKhYJ6/Y49FXgcnBUpulgFI92jIWF0AjsfsyPCjijymAUBq+NISI0dYiM9m7lZYF4PRwOJIP4PhBohr8TdEYIiowfm9jQ4RDpTJOEGQFTc3d0KZYOkXeKOmEg4l+LsrOv7c+r8X7GQ09ZW5TwPgRwKWQZKZDVqEk8O4QLMV5qOh6pvNdVo1LS73dDCSkfIooxCFpaU8j2dzlqVQRMHIRRPAqyhSb7EIAtCI1HPpDbS1GWyaSMfoB7wLWhaIGKGzpSh7XKGZM3pzK6aXt/pzA0kfFWarGQSSWzCSgw+y+azkENh3kUqbjXIL37yR3XlynboMrm5bVbgOVqBv0BYU5To+K6oGJ7UIGzinp+Di5IP7N/91O/r8ORIpXJD3W5Lve5Yza2aWeiEHkFUDCVzCBIYHyy8e8/DRZis7MsP1D2fTJTFPVFS0A+UzmIoNPQuFU7CeIhd8MqQfaO+FZIecxlV6mUXU3a5oAPbe1t+Xgq/CYPTwKRBqxM852cXO9ZWc9skwul8pV6n40J0fHToAs9uHH+C6WimXDFnu99Wu6vMuTETBQmoHcOlGMmH8bgIoeIYaLO5H7kE+B8wQqhUy4qvVhpNpiEBUUvLGOm8IQZSJPEvQON/eHgSWhXjgBgMHfYUki/ZmQPHx5XJpT0ywaXw6pUbRlOY5dNYUawJwMJFkqJOLgRNCmRIFAP1alXHJx03CxxLq9XSrVv3dO/115VMh1kI9XpN167tucDjkwC/gNcMdAA5IQUeUiYJjXAb4AQA6ReKeS1mC3W6Lc0WM3XP2m7eGNt02n0//tXr1zxOGE8niuOomEO5MNVyRuJl6C5pJCgZ92iGZE64CeUKjdLMj4/ZVjqJoVPMKgY4D7yOyFy5jn7g+79PP/kT32+EaoMiPAcfRJtTfGMF3qGKYR1FWFcxXLRZ9rhhHUG4mMXA/z9OxcDP1uOeN2FNz8nFyoVI7PG/+9Tv69KVy/4gBrZO53OaBWFi3+6lXeVzFc2Wc2VTWbV7hB15lG5oGp9+dvWpLEVY6rbaVhfwu7PlTOViWSfHR1rN5jYqAoHGWZFGgDwACI2w4fl3cxsi364LKA0JTQFEP7wM+NnJ0bGK5YIaW9tuQA4OHhqeHvRxQpyrUgOuH3t+zm4aL4UVNsrD80LIbng0d+PCscxh+WcZnYQpjKvFWAdHx6rXG6G0L11wY7BaTvXg/oGu33jRjRDW0TzfOMDtkXfdSsFo5qbGfgftU41GNCkDOwjOxgOPH/BfgCdBsS1Vq6pUqlpqoQd3UWTkVSxVlCQMqlhUFYOn4UitsyO/ra9cvWI0Aqno9nbT8DzNRrmUVbNeVrs71h9/5jPqts+MlOzsXdJ3feSmzz2+iisYE6IFF4LcprlHFOz9kS3CGYAY2u8M3ZTRuCyWM9sv93sDxVYL8zbIVcjnsz6vbKbkJqcHR4LERzgKqCwwjErAVZhqOZe9GlaMc6xqWbg5DJu8wERKRkzL2Urlelb97lixVFGXr1QUdBP61V/5Sb1wk0yKDYrwnHwkbU7z8T4IfKCtmyVFKoaIgxDJHN+2imFd5njRKIl/P0nmuE5ShJMQGSVtshiewUsXRv6nf++PdNo+VVyhDJBRArA8xYkoHUvU4szC2eEyUljp0f4DGxKhRmOXzDyb3TPmOrPFRLlM3pK3xXxlWPzRwweeRYeOi+cJjsHAs2vIhcyaiW/OZUsqlnKW/CGNHAY9Pz876v6ga8Z+2v4AAxXL5EDQOKRNnuy2zpTOZvXo4YHJjTjzBcOBjo8ODJEjTYRgN7Yr4NIFi+Nhl4ufw4KuB3vheEikRM5J8bK3wHJlnkKKEchq5VRDCinoxUpzIwSsWQZ1BG4F5yFE8DcogiANuEDC24Cs53EHjI3JxMgD6AnmTKVqzYW7UCy6cRkNAnXbJ5Ycwve4fuOmVpAM43FVKxVN5xOPSxjXnHWG2r9/V/fv3LM08srVXd144Vr43Jx/pRCmMsaQKcY0GaFMSGg4Grhhm0+p5vQA8xAVmY7d3NAEQBplpARSQoNAgWcUQ+FeJVaaT+FsrDzGcEQ046McoyXiqEGY8EWYeq3HcA1SobcC1w8ZHNwXIifXyGSyUL5YVaOe03d/5GP6iZ/4AZWxYj5Pf9ygCc/gB9HmlL5pBR6DIJCUFjkoRiRFvBAi9CAaMVwMa1r3QnBPcNFBMRzchreLWQwRB2EdQXhcg7DxQXgfXcDe0dr+9nGK1z8/ET7wv/61V/U7n/q08qWCkvGUOQdUB4hs2BbzUFgL440P2Q2rZeKS0bbbrpjgnnGYrohvAuE+EAuzGcKJSDGMmQHf6516Rg98DLHP0cVaahRFRcOKDwYOXWo2Goa9K9W6HQ4p0L1uT82dLU3x81/iCogLILteiH9z9XukR5IVkPCOlYRB3BwHva6bickUaSW735wbEu/8bWlMY4MBE/bFaRd6dvlYOxPKhMYfsp3tkE2QlC2mTf5LyMZL/B4Fm5k6REdGJsP+SMkUts0j7/RN7JsufWy2MeYYRhN/dXsdyydnFNB0SPokH8J20TRQs5mNoFaK68qVq6pWq7ZhXizhJnBcfE6Qy5AxCfLWa69rOZ/o6tU9xTBrmk01G8+UzRdMJOR1ZxTD+bN2HAt/T4rng8CIygIb6UDDXsChuAnDx4EpiQmHpYIbSasyEtJ8tvCYgtEGjQymT+MRmxu56Hd7PY9C4pp73LHg2pxDFA1fS2yerVxJpuxrUSyWNQlmeulDL+oX//6P69rVPa9HlPj4Vtf2++jtujnUzQo8dgWeIHOMmoSLRknrYU0XxwxhQThXNV4kKUYNwtvJYniciiEKbPrkj/z4z/8asbN/0dsnfvgH9b//y//V8qXN7d1dgfXZ0uOeieKNDPDTv/fHurd/X8Fg4GLI7hk74lQyp96g53ChUqWovb3LLkIU3TAkKeNdNoUIzBp/AXbPkBaD/kiJNEFO22r3u1YVoLXHxAcWe7neVK/dVr/XUYwCOA6DhOAo1Bt1owkUg1yhrEqpon6vbYXA3pVLWjHbZm5PQFEw9k6W2ff+vXuq15tGEra29/Rw/54Gvb534KMJ8cUQEZFaLk22w6eAAo+9MImSuXzG8/RSsWDyILI7Kt9ilVAmuTRcTkx0Mp1VFvMiSUcnp1YeOPVwOlGxWAydG7Mho7/V7WsxGyuTSyqdCOON2ZVb7pfPhqZMi5j6w64lfxRWbKNxSszkc05CBK6vlErmMezff6BqvaGbL76oSqWiCrHSibibn9OTltUGhFDBtYgjKYVFSfX2Oz80P4JIyA9mk5HNp2h2iNtm1EPTUCjR2MkKFJqoQiF8PcmzoJC7IZnCIckokyHKeq4F/hhDTJMWNlHK5otKZVLOZSiW0jo9QWEBQXTmbA2nTcZCkms+i3vkKkQbxhAmQZTmylVK4a5mldc/+rVP6q/+lQ+9MWYgNTJDkMPmtlmBZ3QF3qaKITJJWkcP+Du3x6kYvglBiBqFJzUIF42S1jkINAqgBusjhk2D8D65GPkQB0Z+sxsf5v/xC9/Qpz/9e8oVYCMXWfoAACAASURBVO8vVas2NLKMLzQXGgZjDYc92/xSyHD8Gw6REIZGSINhj2G2C1SxmFUwJJegpNl0okyOnICYjg6OQhb6aql8sWCPgkql5l3x2fGxMw6A7SETssPEGMlmP/GkYWl2rYw28PPvdjvnlz7GP0kVSkUXlF6368aE98QpFsmppIsw5MhWq69HB/u+H000CYYsDRbSFBlgcc6HQst/FPNlcwLYwXb7fWdGjCdD795RF5AciSWQj6fXDyOcsxnL/2hwUlZ1rJRIplUuIwlthY37iruQxIhXwkgLpv+oBslhiCUVSyTdyIS+DH03ZowfKvWmg5FAMCBhjiZj3bjxovZ2G27kCJhC7XF8dKTjVleJ1cKOiJAv7e2QYGSwVKmUU7c7NBpCk4CDYzqXspfCdBxKISEksu6MbQrFrLq9rpEHlBLj8cqvDfyBVCKuxYqRwVyVSlGnra4Kuay9LeLLlMdR6VT2PG/hzE3LaESwV8Ypldgr07AMepAWi5pb3SGlrIDAuyGuOeehtObTmH7lV35Of/vH/prRHyMSoA4gF5vbZgWe0RX4C6gYIrOkd0RSjJYvQg/4d7iF+GYnxY2K4Rm90J50Wo8Oj/Wv/+9P6bXbL+v6zRvSKmWC4TDAlChtIl2xUvdOnSwFfADIQWB7mcMJcDRzE0JOAUS2XqfnIpZI5uybUCiUlEjGHEjE6GKxALLGtpd0xZpOT47Nb6BgoNlnsgHLPpUME/8YUSxic201mt7l478AXJ9jPp/LK5GKeYcL9N3pdrS9vW1JJfJMEAh2p6/fuuW45+UMgl04Qw93ryG5kp02ToVA48VSPpRZxoktDo2IeK7BIDjX+MPSX9hKmsrO7/Ed5j/ci0w+7x0vREdSFuPMWVZU56nRj9Zpyw2W5YXzqd0gkQxO4DqkicSG92kK53njAJNhpcV0qQT8DMYmc9YQo6qFZaC8HqUSrogznZ2c2MmS8CiOB+SBvAvuS9HneCzPTCTMVxgNGR3E/ZoQrrWAd5LGMjnl3xv2h0ZCCMNifDKZzlQpVZ3LUCrnQ6jfJFXMpWieMLQaOPTJCY/2fMB8ipHE0AFTNCZpkIUR450wkIljZ10xl2DMwEVIs1op5537AW/j5s3v1q//40+qXqu8wUPYGCg9Zx9Yz9npPkHFsO6FsD5ieJyKYZ17EJklfYuKYX1Z18OaokbhcRwEWvONiuEZviDZwX32P3xJn/r0H2oQIJXbMkMddz8sdz0XTqZVaTbU63QB45XKxhVb4Ne/tNMevAOY8O1OV81a1btr0AHFKLAzZTJ5ZzDksnkrGTLI9gZhE1GrNcw3QGmQRlufImsBe2IMhQAlFipUKyqks55pQ0YEFak1mqEXQTDWaDr2SIMdMimBFD+OlcJFrPLR0YkfH8QDVAF9PwWf4u0Y6LnLrxuT2CqE3kuVsjkJKDAGKDVg7mcybjrwMZiMxibXddshKjBfINEsumgxXliu4pYWgqrAxQAlIZSJuT7KBxAD0AacCyFzslO21fACC+uZ1zOfJW457uKNnwC/S24CIxdUIRl26sEgzFrwuGCpuW2ipW63az8KximGDz1ikP9No4ezpYmFNEsLZKJTc0loiOBPsNYcJFbKuDXS/AyHoEEpLZdxKz1YHwo/IwZ4KTQbuFWC6JCZgZnS8UHXIVxINhkrEKAFmsRrRCM0g4RYSNvYCptrJKa9XuCGhDXM5xi1jI3iEA0dU1X/4l/8N+ZUQFblw3PDQXiGP6A2p/a4NMenUsUQ8Q82WQzPyEXLh+vte/v6oz/8gv6ff/tv7M8PoYzCwjz9rNPxDh/jn+bWjmH6MYUql1Ehk/Vc/+r167r16muaL6VUGnObiZq1uo154qm8ZYZ4BFDQW+2OqsD155r69mlb5UrJigKMeigOmCjhWVAuhrA9u9/GFs1JRx/52Me847dRkUgpLOrs7FjFQoWASAWjiZLphAvcoNdxMWSeDYHuK1/+kkZDfAjgTFDkYrp0eUeD4cD/jgqsXQ4dArUyHA48zvFzf3IW2MGzPuRAYNxEUe50BqpVcTic2L+A3S+jkWFvoFq9pGyuotPWsYmZ7JCb1ar6w54lgfAdKJQUV9bqypXrOjp8EO6YtVCvNTCcj7tiPJVVMhbXdAHfg6YjzGuIrWaaY1vtACyOd+6xxGyxMNmPRgzp4mR2bmoFarFaKhmHfzC3iRFrXy7DOZjr7LSrfC7rpq5a2dJo3LOqAJ5HxVHfKSseiGce9HnMsLGjMWHtuYbwMyiXE2q3AmMhIEnD8ViZ81wIxSZKJLJK0YAMxsoXMyYsImUdD6YeW4AI0Xyhzshnq6o385pNlvpn/+x/0sc/9qJfn02D8Ix8GG1O44kr8Dbjnt+OiuGiF8IbPgjrT/44F8V3Eta0UTE8IxczUrOvfv22Pv3//oFeefnr3n1TWPAfGA3nqtSrHh8wHkAmiI8AiYUQwyCpUaQoFoyIufIgqMVXCw2HA5sYrZYJBzRxn2w2b7+BxEoaT6f2VwAqZ6fOLhS3P0h82DgHoxElx1LHYTBSc7upVDyt7b0dmyFB6Gu3z7S7u+NCvrUNCjG2oc7Jyaln6GQrsItl5NA6OfX/Hx0faclcG5dAMwliKlUrntFDLOT+NBOcV7lc0QoG/5yo46URFRiIIA/h7htIfupsBySPFDYQEMYXyDqT6ZxHAMDmMdQRCCch9S0XRgxQZwxGA6MKRXwXYDMkwkaBwEbzRth1gwpMFiYthh4LqDOA7gk8SqnfRbGBZ8NUQ6dLrsLAKYp+bGH3Rx4XySFqDs/1E6HrIedFeiLnC8eBG/wLAprwmuD+xGDTDDiiOodUdKZas2zPBs6Z1xB+A80RxR6SI11cpZbTvduPnMDJWIFrhrHQYrpSPAVSMLUCYjLBlIrmMm2QA8UEjRxNBcgArwnPhfqBxos8iZ/72V/WL/zCJzw+emNuuklyekY+lTan8bgVeJsqhqhJWFcxhB/N4Ud09GVMcV3m+CSSYsQ/WG8QIg5CRFTkXbgJa3rGrlug7OOTM/3Hz39Rf/rFL4W5AcOhRwrZfFrJRMYQOqY17Oaq1bqLNfNeRg/I9fg744DFbObiB+RN1O/Z2YkhdKJ80dGncznbJpeKJcdHQ0qDiAg0jdkCj8MOExi7AxmOnfD5rDudhnOA019WpVJR23u7Lu34BMA1oHCQXwBZkHGJ8wPO0wB5LoKjcAEkk+CE8cIUm2AIhDDk2cUm7OBHw0ClCo2DlrZ0DmWMkZX0ygWaYpkr5B0nTdZDqNCbn+crkEpZN/TNWuElgDoALwMKJMoBxi+8N514eG7+xLkCuS9WYQQyfyjeaUYI46n5EYQpLZnP276aGOylikRvDzFnggdBpgNhUPAoMIoi4yDj4gzXAtif0QprQ0MGEjMKAo8RCKKKxcm2mFthgHskTRbniqIBNysKP8RApK/zeUyXLu35/2LLuJYrnDSXSqTTtpXm38FwpHw+pXa7HRohzQip4qMl9JxIJpfqdYPQChpeiImG4WcZWRkEbmFhDXLD6w7XgZ8nUnH9yN/4Wf36b/yc8rmQqHi+w3rG3qGb09msQLgCb4Ig8OEUZTGsqxjWlQw8xEbFsLmY3v4KcMFRwD77+T/TK6/eMhHw5KClTIEdP5kELW3tXNJkNlYKTXompVQcmR+JjOy0FdrjxmPW8RMeRBHI4hcwW3l3yO4vngyd+hwNjCdBDC8AChkwfky1ejUkrGmlTrft+Tu6fwpWMOibSU/BYT6+e/mKCy+hQJevXLH64ezs1LtVshZ2dy5ZHglMD6mNnXy71bak8s7t2+p2OrYqhui3XBAhHUrjOKdwXh4WaZj5KxyiYitV6xVNg4k5BBRLCjvESZohxhnA8o48xhsBD4jJ1NkGKXa257HIWBnD5GeMMhlNTNBERQGywKikNxwZKs/nMyYJcn83Ih5shGOOdqtjOSdmTZ3uQFn7C8TNsZgTWjWbhtkF01moKlguFPT7mi9oJEAkQnIh5EFUKTQ9oDRGbmZTF30IgLxWNHwEcdXqNTcnqBOKRTgGpHAyKiKwa+T0SQp7NpsKFRvJjAZBX7lM0SgAxlEoLkAmsLqmIeoPp2rWa+p0Wlqu5jaNSsR49VF2EJa19P24Ia2MKxEKtmnKcihCwmP8Wz/6i/qN3/x7Tp3cIAhv/32/uef7cwXeCxVDBClE39fdFEEP+KK9Xw9s4hN03Shpk8Xw/ry+vuWocdM7Ou7pdz71u1rMVhqNB0omc55l42EwGs6sVChVcobhQRNwC6R5mARTw+1E/xoyny+8+6fwp9IZF4R6pWQFBHNv6LN7ly65YBD2k0HNMBmpVKkYPYBgB5w97IcmPDgjdjodTeeBHfkKpbIS6ZTq1S0N+l197OMft28AxQmHQQo0fIXRdGK4++TkSA8e3Nf2FpLAuOWQoBdIEm/del3zycoFNElk8kLOA2BnHUusXKzYeXMezPaB10kddGrjaq7VHJAB4l/MDREFFhUC5EYIiTQ+cCjsJ5AnlwLjpKwTImMoMpZLuyRCduTvQPsQHgf9ns/Db8IMls+hidJkPg+jmOFrcn/D7jQNCas2WDCCkFAVWD44HIajEBCGdEKz0dTyRVADfAhoFKyMUEyDYCzNpxpPgnNHxLzHGdPJ1OhKrVpzVgNGWDWSI00yRI2QcOw3dtaXL2/bc6Fer2gwmKhaLWkVxx0zpR5mSFqalMgYAzdFJ2ZO5zaN6vbbWs1DADMNWpFY+f+mY6yvk8rnY3r0sGUnRtIjaVo4dxbjZ/+z/0L//W/+0hsIwoak+Ix8MG1O47Er8A5UDIwYIokj3y+GNUVqBgMTF5uC6IfRWIF/P07muMlieIYvVHbpd+8R5fw1PTogmnioXvdMpVJVownmOjkTBykoZQKJztMDDw4Pwr/PY7Y57py1XTgh7q0SMRXxK0gm9Gj/vi5fvmyfA0htkNsSSPCKRY2CieZo/ZNSPpex0RG2xRT++Cph7Xww6LnYQ6CjYGH7S7NCAdzZvWyyJAFMFHFiplEhsK2kAAHjg2xQ2JrNukl2cCiOjg7V73ZsbcyOfQG5zwUPUl3SbodA8+3WierN7RBRQK6IisCx0jj+zVxakVjSYEzHI+/g4VcQFoXpUbPZ8NweVQCNRDqVdmNF6uUCp8Al0clz+y2A2rBeg9FQmQTPD+rCuGKmUqni0QcjE14vfh46YhIaxVgnLPZsvGkOPDLA1jiJ8mBhMiKvHzJFnofgKQATxjokaNIwsObmBCxX5zkT5CekjLjQY7C2zPjJZjCyks2Zu5Av5jzOAQHiHGkckJqCQIBEgMzQcHEeuXxKwwE+DvgsZJzFwDoQNsVzT8hfwEnRCEbC58ZrjrtlaEyFbXXI96AJAIki4+HHf+zn9c9/67/eNAjP8OfU5tT+fAXeJKwpGjFgU7r+FWUxrDcI3yRvfFyDcDGsaR1FeFIWw7rMMVIxbEiKT/nVyy6SD15GAMDf7PSZ+yKNI1nw6197Tbfv33cgEj8LRgND5xjt7F2+olq9rEF/5jAf/ASCYKJgCJM942IMx6B1emZjncOjQ9UbVRdHik+rdarLV66qXC2FOnzGDImMZWujMbp9ApkKJi0ig2u3u4bdp/ZFSKrX7XhUMBqOHN0cx1SpkPXOnuPY2t2xjXC9jvVy0rPxrd1tP1c2lzYBES4FBajbaxs9wFHx4YOHand6JiOmEmHEMQkI1XIljI/WSn1bAKdMfmSOzrolk9wXgt3ERRgSIztkZuQoHzB+IrcBhUImXQiL9myihM4leNgupxKqVmr2icC4iXPlcYmGNmwwm1vFQaR0v9+zciKc06PIwFgKGkDca2GuwGJhqSQyRdaQbInQURu5ZZgFQSEG4g+JjXFzJjgfrJT5XRq7YDxyA8JryocBDQLnRGNQKDCmwdkQlCOMuoaXYXMlxgCxREjWxFI6j9tlyhbXvGbhusU0wGI6ufIIikKPqoLrEX7DdBL4WEPvg7ChwVeB8RXjHrgrjGx4PWlMcWVksXBz/Nt/6xf0G7/5Dy219C5oQ1B8yj+RNof37azAEzgIEfeA7zQHf2kqhiiDYV3N8E5UDBuZ47fzar/Lv0tz0OuPdG+/pcOTU2WTuCIW1Gq31esP1W4N9NqtW0okVhp0hw48wlKXXeL+g4fa2d22Z/+VS9ddRNm9PXz40LtDZsKPHjzQ0dmx7z8aDPT6668Ybm82t1SE2R4Eau7sqNGsuYAzBiDkZ8UMPxYS4HKppFrdnqqVomzXHU9oPh3ZNKfWKNpU6PDg1MWcfAWihCnEsWTOY4lao6FGs2Gk44MvvahGY9eBUScnx55VV6pVdVqn6vU6hvTNGRgM1IKHcNQRUgq8HbihtqAAUSK7g76y+AKsyI+gDw79EvByyGVTap11vBNeLSEosh7n5MHVMiQ/GvVgJBMWUZwQOW527hRXYqZRb0DqRNlAU0LBZMSQyWY8iti5tK0Hdx+e+wwkFHPDE2i6WCmTDEmIkBJZk0Q6r+k48GsI6oGqAr5Gv991EzUMaMjY1Sc8PnHzsJhoOBxqNBo6WGs0DjkRvM4QS+2OmCY/gfVJqFwuazIdGQ2ZzmIOzaLo0+BQyMlKaNQrCgIsqov2m2C98S5IpHCKDFUQJGCCDti7YoyMcaF8Nm3SKk1KPl+ypTVNEWRE1s+ZFef5DPBPcpmUyoWc/sE//HX94j/4O+f2zhsfhHf5I2Xz8E/BCjxBxRA1CRF68CQVw+PyGJ6oYngzmWPEQYgUDOschA2C8BRcKG91CHyg7j881ldevqvxfOHZLUz2XLGizmlLt1+/o6PD+4b5Y0DkKTT9ee9YGQlgZUxxyWZDQyLFV7p354Fy2bShdWR1d++87g9vbJWRJt65/ZrHXfXmrg/vxQ+84IYhmcJRcOWd8nS2VHNrW3GT04DHsSNembjHLpIdOkV5MOh6lzoaB+YlmO0fJ98AKeG5SieZVLNR1wc/+JKzPPBqcFCQw4Cmap0cO8mRMQBNw9Wrl/Ro/1D9YV+vv3ZHhWLZjQRQOPA282+ekyLY7ZMVEEoA2fUS72xfw8VClVrNnAZ26OyuQUwSqawWc0iVgYmC3A9DKHwGQE14swHjA8sD0zM6YT4PNwHlAbJCxgCMRTiGbDpnm2HLLpNJNwTwNLjPaAjSk7QSYoTtsQl+IfOfBgzFCU3AckFEc9ZyUwKtaBoJtQJRAjmAHEgoFNcKBk2hT0LcpD/WxYV+TK5GXI16zevE+dIo0YygpgAJaW41dNbqebwAsTNfyGnQG3q8tJjTKCBnhLwZGj/xGsJdYXziGG6HWyVDt0rGLmZsx5RJo1KhiQjNlCx5JSAsmdb1a1f0W//Lv9D3fu9HQ9vuzW2zAs/BClxoEIh6jpqDKM0xahKe5KS4LnGMVuyNNMe3ymLg/3m3RV982tIc8O/ISZHvUdzzJovhKb0oGS3cev2Ofv+PPu8ZdiZTUDJFdG5cB4/uW3dPAZnBHSAnABIciLFizjMIg5HyiscynqsD8fLh3oOgOJ24SJ+RcRBPKBj1jSS0O6c6Pjz0zpUkx2qtppde+rDisaRmSyBvmoCYKs2m0gmc8fouDPAGFpARiQCeh0UYIiMFujfomyAJpB/TwsFQkNwg0BWKJe1duqxr16+pVqvq8pVL6rZ7DixinDCbjjXskRMxVqcdciUgUkLAY6TBIzqPIRZzgiIXP/8GvkY2SCHlh6guWE9IlBgOYbrEKIPijfwSTwNkfnAn2H6DKjDfz2aKNo1yYU0ltVjF/NgoNoDKe4waiKUmpwIr6NXKBZqCXa5Uw+fGxIgijTWyI6en9kigSPudvlg4PdLFf4V5VGiPjQcC94WLwevHOVjVMBi72eI1JPZ64OjphRsO7gP6wbHgWAgPBeIg4w+sjjGrgn9AUBfPbyEmo4VCxg6IblQQaySI205YtQA/A7QExIhmkuvEgV7LlUcKUfZE5CmBQ6VHHUSMz2hIQpUGjwcCQhMDn+X7vvev6V/+H/+bdra3vGab22YFnvUVeAsVQ5ToSIOw3hxEUkeW53Eyx3A8d754F2OfH6diWFcw0BhcVDFsEIT3wZXIB+ntO3f1qU9/Rvf398PUu1jSUcpA0JPZ0Mz80aBvzsHu3q7a3ZaKaNyXePPHXSzK5YaLKrtoS+26HWcpLGNIDcsiA5FdL4oEZuqgEwePHunO3a/rpZc+pktXrlj3zm4bpCGRTKlWb1r1YPMhX8vSfMwsGm2/lMkk1e8jmZydE+14bEx8IB/ORFYgLoa8Dy5fvqEXXvqQqpDpUhgUxZ3fkMul3GAcHx+pWCqpTTTyUjo4ONLJ0YlJd+xVi4WCjwX0IipCsOSnc3IRwgYB6JtdPYMDLIzTmaRJmgQ7ofyAsc/RIMsEEcH5zymJiYQLdzzJfTP2bCBx0X4D+ByaqAd6QYGOnZsMpVWpgWwUPPcPjZxCwh4kSIokYwCQA0sCkTSmCEoKeQYUcnbyqCF4XP5utGAGFwGHy6WdFpE4DoKezYgwrKL5ICALHgENQiqZdzgXSg3nOGRSHlOwV+A6QGZKE0XRz7m5gRQaC1GfEdHVjFMKRj78Ovo55DUAFbD3hRZWRxSKeZ+rVQyxmc7OBn4tjKwkCYoKXTHhcCDfxNb7p/7Oz+qf/s//xI6Vm9tmBZ6HFXgHToo0CW+mYlhHETYqhufh4rl4jlxMyBF/+9/+rr70tZdNHONGsZqMl/buv/HidX8IIxfUgp0uO84wOhmFArPlWr2hYW9k5cHZ2YFWlMJ4Upev3VS12VB8jrlORp32ifbvv+7ZNHbL3/j61zSfT7S9s610IuviD1KxmE1VqzW1iuEpgJ9Awo1IfzjUOBirlCs4UwGuAFHF41HguTpQNymHPCbZDhRXkInGVlMvfejD2tndVbPZVKVWUa/T8i6cHIhMFofHlfYf3DUn4ezkTO1WX2ftUxUKNc3mY6MAkO3IUiLngCLLLZPN2csgGHS9S0/EY/4Cmud3nJOQLygYDhWz1fFKvW7fRYtRSTyeVqmYt1U0TdFoMjSR0KqAQaBSuaAxY5fxOIxFzqY9TimVyyoWyh4TEBHt14ychgROj+y+w0JMY+D1AGFZxq0iQaXBzp4GELkgikBGExD9WDOOlyI9mwVGDyAdch4oFnhMyJ7pTMZoAV4URgRoHlJZj6nwUMBXAY4A5ECaC44Nsmkmm7DMke+9Tj/MwChlNQrCDBnOnabGSAJfCyKik5ZI0jCMg6mNkGLxhXrdkbKZhIIAJ0ieP61MFvVCygqWf/KP/wf93Cf/7oaY+Dx+uD2n5/wWKobHjRgupjm+rbCmiyoGlpsNUPR9PawpGjFsVAzvw4uSC6rVausP/ugz+vJXX9bh4alJcceHHa3iY12/uqMrV256pxvOgynGSUPCK2xz2aXCIreLYBisxId+fXtX5VJTuVJeezvbhrSBoYlXbp+2dHJ8qNuv3dJXv/pn2t7ZUrVS926dtEOKI6FDttTVSq3TI+9U8U1gPg7yAbs+dOEbOmkQhAI8HTOffm+g+RIdP/vqpR+72mjowx9+yU6DuULBSorOWUuFUsGKBHbdFFqknCguTk9b6naGHpvYwpioYRfCuBsKdtCxFY6MIRxut2Oipv9/9t4DStLzOtN7K+fceXLADBIRiMAABpBggCBmEqSoSCpwJdkKli1ZXtt7rPVaPj722vLa2l1pvaQsamUtKZKSlkGkxAABIAEQgciYPJiZzl05Z5/nflVQsznADEAAxABVZJ8ZTHf/9f9f/VX3fu99A2FLvY6i4ZDt5oHlDQu3uOGOITH8DEUMgp6FP9naeuQZ+DU7P6NiHstprzrNjkVIu7mOx+bvXm9IuVxG5UrdXgeKJtfIrpljBQguApnw+tVuodDoGvIAIgEfAXknzRTHItQJHoaTEw5dMBQsCtQKQ2SRTTf/b1G8XXgT3QCy0Wg4onAEdQl8CRQhAXkDPvlI1IxGDf0grAtpqUk/e06a2WojRyWsyaNCoWT3hVlPh/xGhOR+NC8kVBSjGGtio81PgzHOyMeBteMkOTcaNrgOXhIxrWFN6OpXX6Pf/M3f0qWXXnwBvisnpzxZgee2AuehYgCO5cN6PGYYWy2PLZbdG8s9vo+LsHW0MD7DsRfC2ayWaRTGDcLZSIoTFcNze51f9N+CUX7XPffqi1/6O51ZXLVwIHaeu/bOafv8TqWnc2aj6xmyY2uq3qiYA58xzbttlYslhSIxdVstk9nNbtutWDSlhfm0pqezBrVDjkskUypsFLW6uqEjhw/pwQfvt93r3j37rViN+1B2qdVaychw2AETFAQcbkoFzwCGoYsDbrXUaNUtN8Fkg+2Oul1nE8wulELOI5nN6cCBPTYyyeamjVhIsefL5xnYTtntXKVKpap8ngahoq5xHnomV7T5/zjfIBA0EmGxWDF0g0JNsQTmt1wAP7kDjCRoIlzqI4q/SpWEQq8VaSBzfAcsXnmIosFvBM+OmR85i2VGN/A84D9EYtgpdxUOx4xwifTQIqoJuDB/AObwuEky7oAT0TUon+Nb0iOOlV7ki8gFQQ6cDJLQJdQA5ESAwli888gWmvRMJ4MlthsFA/HXQ/N9iMcSJp2kOyIDgRFBEDlnEDfFoCEMPL/7YIE7AYGUa8NNkTTHtrt/Om3jwMDDMD7DsGfunZYS2uH1dOmU/CxcDkZRECs5JnyUMXmSfAdGHJl0Vu973/v1iV/+hGZmpl/099LkCScr8KNcgachKUJUHEc9j//cSlK0/cHoa9wcPMVJ3NogjFGErRLHscxxomL4Ud4FL8BzU1wffvgR/e1Xb9M/3H6XCsUNpTMRXXvt1dqz96AqpbrqTbz7pXIpb/K3PuREX1AbG2vyIAccdBVLZZXJzioeCWn/RbutgHDfdZpdU0gk4jFjqx8/fkr333efhTShLkgmkrYbpWgjhet0GuaIR3GolqqqQkYEJd3puAAAIABJREFUpsdAyYuZT3PkSdC09EgrtH2PWt2m7SgJUErFEwqEIwqFg8rlsrr44v2KRWMWl2yeAKARbbIQsCAeyNP3aj1PzLO0ePqMY+RjNmRzfvT5PSWiMUNJ2I0zf+91MFuaNkIjCAvFi513t9WxkQmjE1QfXHetXjcTJvgeFG2MgxiXWMPio6hSCB0BzwiO/qDtzGkojHwXIvvCJ78nYOfCDhzCYzgUViTix7XZiiYGQ3yv2qhbIwC5woiOwZAhIvwbBb1Wx4CoPRpLOMdHbJwt72EwsAbMGSR4bbwAV4PGA6MlEBN8Ldhn0DSQj0EzRLokIU4doH8/yEfbXB5RwTSbHeNoxOMRI0CSLUFzQFPDa23NDTbYpppg1NVWGSVHgJEGZk5kSTQVizgfCdAYVBGQWEGgfPJq+64d+rmf+5g+9OFbzXRr8piswCtpBTwez6ckfR7K0+jrh1UxPC0H4el8EDZbLZ9NxTCxWr5A70gK3+KZJd1+xz3600//f9YEhKJDveWtN6nTGmqjUDDYvFQomvNdf9BWcQMHvLoyM1PyhwLKpKYUCsVVqqzpQx/8kL5330Nq1IrKzuaUTucUDMaVI9I5X9T9931Pjzx+yAr43Ny8K/z1hs3OzUTIH5CnP1StXnQRv2jd/ZAecSism9UyO1xLSzQSHoQ7AqJw+QNBSLgkP+9AC9sWND83rWmCm7odbduxy9wY+TkqcqFUUMBDvPNA5WrdQoTW1/Kj4wSscBIGZVI7ClgwaHbTM1PT8rALN1VCyM7DR5ZEp2s7c3bIY4MloH8aG4oqc3wKdAo0oNE0ZCCdSVpktssToBGrKRSNWLAVBZ8GCXMk0i4ZKXAuBF2x08c9MJlIGAqAaRUoAs0chbTZqCnkx4oYVMOvYb9tQVT1ak3lSs2aHX6PRsXQBQ8KAme7DJETpAMUAeTAkARLwQybjwOqCJ6DbAYkmXAYTEVBwiOoAnkSPY7fMg8HlCN+0hb9bk+CgySvmZk8jQyauH5ef8ZEIBydTs+OA4rDOdrIg9GMl+YEzwQDuBT0+bV712594pd/Ve9577udAmXymKzAK2QFRmqeT0r6wqYGYaxe2IwibB4xnEvFcF5pjuNmYatR0tgHYcJBeJnchBDSDh8+pk9+8s91/wP36smTp7X/4G5z+OMDGzviYrliH8q44AEQIEm0XWQspk67byqBhdkp3XvvXTp58oSx5Gfnc1qYndPOPfu1b/+r7GcoDIcOn1QDa99ex4olB+623Y6ewuhgZFfkqjXcGqs2OqCQwbSHpEiTYPbJmAKR6zDsW/FifIEuHkti7KAPXLRfs3NTNvJIptOqVSoqlcs2GgEtIPAJdCNfKCu/UTCOAwWV42F65ORyHhtvmGrB6AFEKvtNxw+LnuaAb9g5tWHme9Wi2A1doiXvNmbo/J4hER2aHp9B8mPDJUtLZK+PfTC+C8GANRSmfsCUKuBVOp1WuVhWIBS0ZsYNDoHfIRk2LWTJOUj6jH9A4wWygCGRz9szBALSJ3wG1pL1M2MlJjgmMxwYORFEA3SEsQFwPugBjQIeDjQSUBbgFRCxbOOOodfGCKAhvL7GK8AmI+CzEQzHNaSEVE0cIgn/HuCUiMwVPwNnaOQUFhAjUbg4kiSNJOROmgPGCeRLcDxaBtwgMWXas2Ovfv2/+C3dfMvb7Ocmj8kKvFJW4GlkjpudFLeOFzanOY5HDOe0WnZDQ2fuOh49nG8WAw0DCML4a+KDcAHenXgg/MV//IK++a1vaGlxyQoRWnk+0LH4pbiEgmHT/e/ft0fZ3JSikbA6fY+KBdz3KqoWVnXy1JNGXLQiAWEl4Ddf/GgspQg741DYTIEisYz8wbi5KZpTH9kLQyB2ijPKBldYUS0Mh11TTACBt5o120Ubc5+IYjwASEkMBhyS4KXQDMzwaGpmVrt3b1M2HbewoGAQ06eOwdhcR7XMrps8iKCWFpdVKpRtJMBbgdm4FWxSEWlEBjQMuB9iO91WPB41xj3cAWfn67GZP7tmZvs0LRR9l045NMUA58bPcn3sfElbTJsbYeep4gjzHz4DDQW74YA/7GKqBz0FGUmEKLRwI9hdY4ftMjKIYm5DPkSl4CU1Ew4AxdzFI1NkG5xbG9MrEA0GD+7nOD+uj/O1a4KAiYwxGFIkzPPzjEPFYikNPYxpkHnCjWCUw/c91swZUjFCdegiTdUxsoXGGZFGjLER3gj4Q3BMvg/qQFNlTZSNNiBBwukgARPZaNOcJLkhQkG/cTVMjeFBcpvQJQevsAbhda+/duJ/cAF+9kxO+bmvwLNQMfxQYU3PRsVwNgRhMmJ47q/xS+I36/WG/vLzX9Q/3PktXX75FXrwuw/q6PHHlV9bw+3YkgUhzzFS2LNzr+otQpN85lq4tlbXE4cOqVFZNo8BnPjGDcLWi+NDHTh5enpKydweTc/MWc4As3w89tmJA20Ty0zhIuq53WxZeA8F2mKGIbkZktBU3yNjw1PFmJGzo8cPgQITi0Z1yaWXKJdN2OwcuSUjAseOH2huLqtCoapOf2BeCOVCSaVixWB50AgjCbZbhm6MRwbG3OU5kX6Gg7bLpkn4R1OfujUZGDmx+6W48qcpA4ay7AGuv0NqJEUYDwPMqmxsQpqh17gLkAnZDXvJqgiG3G45HFGlsKF4PG7IDWZPFFfjX5gQAURlYCMhCjgNS61SVYNsg1GT06gjCXWIga1DtzcKeyKYyTUqFHYXoxwejRkiZl7FDp6mhRGENTmMAAbwJVBCOG4HXhkgE+z0IaBijESjQaPFaAIHR/O7AB4AjcByGq5Co2FZF9ZsefA1CNq5gHRYE9HuKBTCgtqjkPE5aGqGmsnm9GM3/6R+/b/6JSPHTh6TFXglrcBZEATQA7gIm8OaxijCWMEwRhHGCMIYIDirisHmDZuQg608hKcLa5qoGF5GdyI78m9960597gufUzqdNSi+Xi+gaFS+sKFkOmcuhbjxUdjyG+uqFIsKRGKKhBI6duyYyqUNra6cdhHI7LiNZY/bH7cQO1UXHMRYgRFAMD6tuZl5p58PY8SJYyKM+76Cto2lEENoA27uiCaGnSMNQrNRteLI9ywvAQh69HdeFv6N1EEakf0H9imFxe+oKCPfY5eNJBA2PpB5uVy1jIDjx44aOsFIw1wHMfVBntjv2U4c1QHMelNE2C45aDteMzhCWSB4As5HwKSNeBoQUESAkSkp2H2DPMDsdwFSvOEscAnWf7trYUgUSQiVOFhyjZZ86fcY/6CG5NTjUzIRV7lctnUFDclO5dSoV2233R90bK0gCsI7KNWwiWbU0TeFiIUqISodgsJgwYzlMiMGZzhFo0VhZwcfDoetaeDfeS64DDQ05rXAKGb08WIKh+HIjMlQDpw44YlQ1h13ANkqjQjfQ9LJMbk/nOeC39aDxg/jJZorGjTuHdbTmssQqIRrKrDQTie26V/+wR/ohjddbSOcyWOyAq+kFXgWRkljBcPWEcPZxgzfx0FgPc/mpugi0pwObTMPYavMcWy3PBkxXMB3Jh/eqAz+/Sc/rWJ5WZ4B8sa6ufFh9AMcDj8gnUsrlUia+c7J4yds5x+OJKzIEOi0tHzKZIqbEQTTzofCVnRACGCroz5IZ6c1t7DLCHDM0dmZU4iNhDZgNx20ZgCSX5+ChINhr2OzdsYJNAgUEKB7NAeoDnguZIi47MWTMe3YuVN79uy0XWcsFlaH4uLzm+8A2QDIBAkhIhiqXm1qcXlJ9VrDCv2w2zd/BXnwRWCL7mb05FFQINnlU+QpmBQ8xhYmzfThr1BzDYTPoyaWzFR/D94JZAe4pMlOFxWGk0RSgCm+bmfuZv4kXOJI6PU7MyDUEx0ssoNha15QMIRDkCDxLoAY2XFx0uah0LaxBqOHLk2XjWTcrt1inj3wSVxegTOc4hqdg6U1XHAZjMsRt2aFa2HcMB6V0LjxGlvRt9EAMk3QG5oGx7fg+6yXeUqYL4TbwHAsU4SgzoCUOrJj5pq5x6o1kjMdX4NzZk0JcGLN4aYkYgRQudHVRftfoz/8d/+zZmZc1sfkMVmBV9oK/BAqBhfWssX/YLR+T5vFYJ8Ro6Zhc5OwNYuBRgGWFV8Tq+UL/K7kTqER+Jsvfk2f/exfqF4tGxROIh869UwurVoVtUFA0VhI2+a3a2lxRYcOP6JoJGHEwma7pbW1NXMrpGiBIJjjHRA5u1Kf1wq6x+szBCE7PWNzbdj8+B/gtscIgbhfZvHNdmcki+tYcJMrYo6YiIUzyYMUQpth4zUAMmC9rsfxHcJhZTIpXXP9tc5cp99SIplVp9W28wIqZ3QCsoAx8urqmk6eOaNGtWZ6fitonoHN+T2YLHuY2Q8UjaIOcCx+SI6uQXE9NufBXJ8CyPlakcTUx0cTQLYBhlCw8YOWVAl07kh6Mp8BSJbsjjkv25hzbn6/mQvB09hs80wSJk2LeRgYAbFhBFIKvdkXkwzJOKTDGIHdO5D9wHbeNDeWKwHagOTQOzT0gtcIa2vOG7JkLpe2kCgaE7PHHqEMkA95vfo9J02k8SBbwdwiTaLpmiczN2o3XCT2qAEK+B3hNEFUN69VJOYitAckaLrGyMiO/PwIdaGpoZHxDPrKZZNG8kwnpvVj7/5x/df/7e8aUjV5TFbglbYCz4AgjEcM4/HCs1Ex2DJuzWLYTFLcapa02UlxMwdh3BxMGoSXwZ3JhzGOgn/+55/Tf/gPf6KNjXX7sAfupVkAim+3apqZn1U0FLICQmQy3AA+3JHwEaNcqlRUKRWtcFPoY4mkOSQ2arDn20qms4rRIGSnFQrGbFcdjTM3HyoadvHSzRbESCAFE92b6oHnNsIec3eg/HZLtWrVzjEcirodNPNxSIahoLbNL2h+dlapbFr79u/W8vKiFfQEoxJDMXAJDJqkr1qu6MzSmqamsnrsscdULpXt+66odmw3TdPD24aUxd6AHbmLhLZ/g2hproAeUwpEIkgim1bcezgsBjEegrhISqbfNV/trqU84iCIyoLdeSqZsqYBlAFPhempaRt/YHFcLOStuWKnDe+iBtnQeoaBQtGA6pWGi0LuQzgc2PkiHaTpsEbADJTwEAjaGplBkhfOh2dkJT02nCJbgtFJSAGfT9FYwgKlaLggOFYqRccjIHDK+A59F2oVCcnvwQjKeRX0+jw3aoW+uT+aCsYUCi7qOhIOGULS6Q2VTidd2JNPWl8vGBGRBwgEPhCgEjQimGbFg2GlknFde92b9Vu/81s6cHDfhJz4Mvj8mVzCs1+Bc6gYzhXWNOYcbLZbtn3J2RqE8b+dK6wJ5GA8ZhgjCBOS4rN/bV+Sv8ENt762rj/+4z/RH/3xH2l9Y/UpF0KKi/PujyqdwTVx3j600bmT1cAUABvj5eUlGwuwG01npmyWzXEr5bIx/JBPRqIpi/5FWWDmSMDNoaCFMlnvOugbsQ/Ewdj6dYqzg7MhvlEgmWVD+sOmmV2wc+lzaoF4PKGZ+TktzM7oogMXGcmPY2XTGdUbdYVCUTsWMDdoRq1RV7FY1NLpJdXrTUuVhHNgSgZ22xZNDYrhnBYptmY/bKOTgO2IGZ1QdCmupVLVOf4NnCsgDRLESUYaToUAAREiIDHIZYPxQ5GIweisr/EBLDoaeZ9rZJwE0XkHMKKhgQBBYHzA85v6ARMi+BIgLmYyxM7dERDNRRLjKZqEACMNDBkd0jGG8rneMQpjKoZI1JoTiI98r9ttWTOBCgGiqLUnRGNDQgyHrJg7noXLWOB1p/EBcQkH8UIImncEhENIrhBfq3VIlLwWLkeCewr1iqExhqJYH2UoAwhMKhZRJjOn3/9ffl9vfPMbX5Lvo8lJTVbgxViBp1Ex8GE5/hpHPf9QKobN1zJm+pyvzJFPvEmD8GLcDS/ic9x37wP69V/7TT38yIM2Ew4Gw1YAdmzbZrtkCjOBQ+z0+PBmLs+OslAoGHJAMclms0ok07aD5L+xd6ZAhaMxpVJZhUMR0+1D9GN+j/yNQEakbBS9eq1pRDZSIU0GiVcAdH0Px3I740qlMjLScUWKBoECl81kdfDSS82FccfO7YrGI8ZSYMcMFI60Edc9XA8xgKKIMcZgbLGxnlepXLLAJKSexovogw7gWOh25lwPTUYsHDKUAB4Cc3l2wagbkGVaPDEz9GFP4UDQ8hoGjCMGXuNXgE4EAyAx2BCTpgksj0Ogx2bxIAsepIPsvq3H98jro9lwBFB5ghaXbf4PxGaPRgvM6zFswhyK88V8iuPTsBi50ofPApJEl8OAgsCNLpyigS9zTvR7zaQpGo0YOZNvNJotN7boY1DlmhA3snCbENbeuUZKiUhIzQ6hUC4lM+jnWgl3Cioe5WPDIyYDpGS6RhP755YhRoxvTJHBuMIkm64x4j6LBnx6zfU36vd+//fMDGvymKzAK3UFnoOKYUxSHFssbw1rGnsifN+I4flSMdAoTHwQXgZ36z333Kff/Z1/qkce/57Kpapp3pnnX3zwgHq9odZXV3UYxn+3ZQx7CgUzY9vlSrbrzE3NOlKiL2DmRrD9+Tl/MKK5he0W9MOu2UhqGB7hgWBM+IFB2f1O04oVkjuIj+yoKaqdkVUwu+amyeZ6pmLotokQbpi50PzCNk1PZS05csf2eSuQFDrUCal01tj9A/nUZOzRJVCpL68/oJXFRWsaUGlsrG8YH8Lm+4wDLDBI6raInO4Yz4HdfjQaV5fnHeUWgDIwdmE9oPNwTbyR47GwxScLV0ELUCI7oaFEImHXSVNEHxIlxbDVsiYGmgCQ/MADbMcwwSt5h0rE4jZeoYizVk6GSfNBhHbbIS5eR0g01ME8KSARorwIGcoB2sFzMgqh+HKdjDcM/o/ELEmSkQ/HCAa9Cvudu2TDkANIlw4xMZfIIFbQAyMpmtERNtE+jxJxeCyQDN1Mk0CrYDguv3coLzkMAwK4mhpinNSHX0IWA82gU5CAKrhcCaNsGFkzEYzrIz/xs/r13/7PRiOel8EbbnIJkxV4DivwNCOGMf9gnOYIevBMKoatcsdRs/+PJzRRMTyHF+fl+itAzp//7N/oj/7Nv9LRk0+q3myapO7SS/ao1egqlZ7Vvfd8R08unnYEvRHsPbpZzbiHXfG2nbuNbOYg6L5CtmuWMplpeQJ+GyuEI+jq0b1H1RsVYJoFc9qjSFD4BgNVyGUw8p9LGoSwxhgDVMJMfnAx7LDr7BvvAcnf7MyMUsmYLrviSnlt1w13wWNFmqAp5vsbG3lTUADxw5GgSOK0uLx4RpWNgmqt+qgAgx4guXR2xED/oSD+ACQVBqxQ4WZokkxj9Y8iDUa+CRROtsFBr1+chRdxkAfkJWjjgEwqbWFMeCiwIzezIBsJuBk/zQTP6feOiIK9vmLxiJqNlo0aGIeYRBR3QjM7QingpIGsH66MWClTzEFxIqGInScmWEwq/tEoyUH9xFqzLrFQWD2IzphEBfyGkvAcprbgPP0hhXBYdCINaziwx+b5CbeKxvBSgGDoXBIhEzaao8RJjK1I2wwHzO/C+B6j448JrhyTJogmJRzwKRmLKpWe1n/+a7+rD37kx16ub8HJdU1W4LxX4GlUDOcb1rRZxbAZKHhGFcPmJMfNEkcGxJs5CBAWIShOSIrn/XK+tH+QIr+6WtT//Qf/hx68724dObVokbqXHNyjiw7s19paXr22T3fc/vcqVUrKJtNa3li3ACB2euzWZ6Zmtba+bvmiiXjGine331EoQERwSOlMzs208QrAqtiHwVHIVVSrrI5hT3GzEUK/Zw58zLyJaMZQCBRhzEEAijdyYKs5ylEAvchqz549SqdT2r5jwbkDegeGIJgZUCCmmfkFM05qkYsQjarX7qrZdo1HqUC6Y1FLy4tq1p2NMaMSizLuO8lgNBaTn5k65Dyz+B3atULIY75u7osQHS0siaIbNHMfZ4LkVyIODwJLaVAPF5Xs9/idpA9bYaSPfbgLfivuptYYRVpT1BmXmI/BKMkSJAQbZxAMEAqei3Vmlk8kNO94dvo8F+MHGioImJBE2fE7zwnn8WCIUTptTQHBVuaQSMA3YVWmpgBVIDAKzwYXy2w+BBbA5FAF1CvwDfBvqFbwbuEYY7VJ30ZXIBKMO5x99kihMjoWpE6Mo/pdR2qEw5CIhjU7v0O/9Eu/ofd96OaX9ptpcnaTFXiBV+Accc9jBGHMQ9ic5njecc9PxTuOlA2bm4Px38dmSePmYPznRMXwAt8AL+bhudkotp/97Fd15x1f0rFDx3V6dcWSEC/eu0OFYkOHjh5WqVi04n35xQeUCEV194MPqVAuamYmpxtec61CwaiOnTilIydOanoaIyRSBykyAwVCUUMLcAOkoIWjYdspDwYUO3a6AQfPW2BP13gA7NqZsbMzBuZv1ttP+SMAxVOIbedKSuJwqEQirdm5WQuD2jY/o2giatC3x9M3OSXHjkSSSmfnbCdMs9Hv9s2U6MTx40ZoXD6zYiFKDaydIUOCDnQ6Jn9kZ04RJSWS+T4KBB40LwMgcsKOyG9otWyGjtwQEp4V50AAwaQVVdQhPJxfAKQ+OAaOJwCCwHpQuCnoYwUCYxaD3fkda0i69lzM6S3bwHgEzqSIBsG4EuG4hWFxjfAo+B7NVq1ecwTMkUQUVMblHiBljRpqBBGTcCV3fm43j2MljYHxIVCD9JyzIq8BDUAoDAfBnBHMGtofcJHUJluEu9BmVNS18RShX9bYENtN82UOj65XpMlhjci6MJmoP6BcOqY333SLdu+8Qr/4y7dO1Asv5gfE5LlecivwHFQMzzqLgYveLHk8m4pha5rjuEHYbJI0RhEmHISX3G10fifEzfb4Y8f0R//2D+2WuP/+e9XqdJTLRpSKprRSKMuvrmq1lqamkrr00kt14uhR3fvAEzq9sqhrXn1Ql7/q1fJ0B3riyDEdOXbSRgqpdEqZzJTqtZo6/Y7J5uAoxMIxM/GhAHp8Q6nnUTgaNFMkRguME0zj36OQuFk5MD4Rwubj32XH71wbrcAwfvBIMzPzOnjggKZnpm12vX3HDtvFNhsVoZ5LJ+PK5rJqdX12THbpSCYHHp+pFyBLdrtNHT96XPUm+RAebeTLFlcMLE98M54BuRxISECBEDI8jKScvwA5DpVKTT0yDoD1PT4jH7JTH/sQUAwpfplUUsVS2UYVFG5IljQc5FxQz43IOBoz4A8ALwBVglksD5whkcVEB0AnMF1itODWDTkmiY+GIPSRK0Y17EEabKpSqxi3AfkljQmmWCAkIDf+YEjJZNIau3gsZE0DngtcI3HVOF06vsVAw5Exk/EErNEIW04FRlA0HNFERP2ujPwJ0oLihdfS5x9qbW3dGkdGFkRHG9eD19hSIl28tI0xfF5Fw5AlIWj69KY336hYNKvf/qf/pcVRTx6TFXilrsA5shgYM5xLxbBV6mh7lq1Nwfgfx4gB/z02SXqmNMetMkdE4ZMG4QK8W/mwJ9Hwrrvu1wPfvUf33XuHCqWKItGwFciD+/ZpaiandC6ju++5T8VyXnv3XqRaoaJ77nlAR588qQN7ZnXVdW8wSeCpU4s6eWZRK0srSqYyNqPnZmaXHYnHlEpmrRCwVQyH3egBqB8aHkUrMoo0ZufIyGF1dd2KonPy81kOwQBXRciMluzoEIpgMKIDBy/RPguUyhpigBIhFAkov7qimems4pGAcpm0Wv2A5A+p3WioWq0rZNHObVXKJeXzBeMv5DfyajWrWl1ZteajUCirhaywM7DGJ4afAT4J/qD8mDEx99dQ5VrdzhMXRAe/syNGqeGzNEZm6uziaXTiMdwKaQY8phZA4geCwC4cNQFNAoRIRgcUc5okfg+CI2iG/Tvrxjnw8xaU5VU8htmSG2fgVzE2WWKEAekTAyVLnjTjqKH9SdOCcRWyVdCaaDBkKAEoCOOgTqtrPgysP0WfJoNmAU+MmNluxyyvI0Q8NdbTlgwJOZGmgMaro36XECa/iuWSk4zaCIqGiY8TCKoYU3nFS0+DEAkGTdkSDvpUrXX13/0P/0yxoF9vuPEmZaenLsB32+SUJyvw/KzA86hiGKsZztognG9Y09hNcWyWNEYQJhyE5+f1/pEdpVSu6HsPPaQnnzyjx++/T8efPG67ZSyIL9q3oNfc8Cb5Q2FVS2UdO3pchw8/pn27d2p9cV2PHD2p5eVlLSzMaPeevVZY1teLWlpZ1fp6XpFYXKlk0qB94nkplOQxoBYIR6JG1OPu7OCdALEtGjHynJPkYfncUq/TdA577RHMzw663x1ZDEOcIz8hrLmFbcY92L59uxKptDHpq2bs07QAIQx5YgGZ/wBBQwpE1R1IbYr40KuNPL4PFHmPKRga9bJajbqqNWSPXZVKNa0V6hZ1DMxOg8DOudeHdQ/ZzzUIFmgE/+CpVEuChkYOhX5+N2LjExAICizQBs1DPBFXpUTWAl4FNBIuCtllR7iCTjPHqOOpXTxIxbCvkIU6uREFvwdXwCSSQ+wnSMnE0IrQo7BqtfLIp0Eq5PNWmLvdvpET06mUSU8dsXSUlTDaU4AYdHptuy9AUjjW1NS0YjQjQ6+FTw2ssXHcDEyo+j14Fw4pAqnwedxzgUSYC6P5WxAu5YiboBjtZtOaSbODNuIp3BM2RH792m/899q/d4cuOrhfO/fs+JG9ZyZPPFmBH/UKnGPEMEYQNoc1nW3EMG4KzhrWtBlNGP99s9Xys8lioFH4wI1v+8DP8wHyXB9vvOE1+hf//HctynXyeOFXgKJ76OhRnT6zoieeeEz55UWbO+N1kEqGdfDigwpF0rZL5wN+eXFFd972dSXiITXbHhWKVSMRRiIB7d57kZr1knkLlKotra5uKBAKKZfJWDFnvm3z+1jYPvyZ4Vt6ILjDkJ0m2QpI+wgUcsWOXWat0TCVgY0CkFOilUfe10cqCD+hq2Qqqcsvu1LJTEo7d+6VDz+Fel2RWMBVRE0VAAAgAElEQVTGCwH/UJmoT375TMdPAU7n5tUWDP++GTwh52Mujg7fM+xrfW1J6tOMdAxVKFeJLMaB0MVEs+NGjWFegTaL71pBhFzH7tlIfz5n5GQQPMgAhdvrUTKRVDSeUDgUMKMmmpKxn4RFHCMZNIMi0AbWvmXHsDTGjss3YDdv/2ZBTC7cioV064YJEjJTj5EcGX8MB13znyhXUA1gstSz8QuJmYMhBlNJc2PEW4Fj07DhioiCwjgR3Y4Wl86o0WhranpGO7ZtV6vt/CngedAEDIa8vjFFIiE7Vxobe+6+K/6ZbFjr6xUbuTDS4f5zEdVwJJBJ+uy8/Ia6uDCYdCatUrWgTrOrf/57/0o79y5odm5G23bMv/BvkMkzTFbgJbwCHo/nk5K+MEpxhA08NkkaNwbjPzeTFNmTjeWN47+fVcUwbgrG3xxzEM41YgBFmKgYXsI3zvmcGkXiyJGjKtVbeuzRQzpy6DG1GkXzCEglQ9q9c4+CozAmJHidZtPSHR+873s6evhxzS5sV7OFtW5P6WxW6WTCkgRr5apK5arOLK1Y8iANAZ4HPIhPpvCxy8QDgCLL/JlCYpWOOX+VwCR241Jr5NhH0zAOFYKFDxRNYwBRkWYjNzWjHTt2afvOHTabzmWy+u7dt+vqq69Sp11V0s8u26N2vWHyyFgio+zMNvliaa1srBhEv57Pa311TSGfR6ViwcKp/N6+ChtrRqIrlhvKl3tKxVOOuENhw+AJUiCxxIQpkbHAuMMXeGpnHyQR0R+wMUQhX7ToaeBxC1Zqti0hEq8Fv1dmQAVnAe0gs3hsnDtteBZt9V0koykekBeygych0ayPhR1xy5AJs5v2hTX0OvJgs1l3Rkf1muU8wBMA9sf50hEvO9Y4BMJhRYIBO76TTA4spMlJSTtaX1+zgp7NTJnKAfOnSCIlv8ejTC5lpkflcsXlKkTi5ulQq2HE5LFGAqdMGolGCwtl3CI7dr00GNEICENbkTCjhLY5QwYtVMqryy+5Uo12XmeOL+kTv/Iv9KabLlFuakrJdOp8bvPJz0xW4GW7Ak/TIIxtlrdmMZzNKOn7kINn4iCMXRTPJ6yJccNkxHCB33br6xt66JFHtbi4pFNPnlKn0zSUAAY7hTudSisAmbCHWVBfi6dPq1bdULVY0u13fNuIb9ncrBXuQMhv8HSjVh1Z/fa0tlYwbX8ymTJvfwiHFAvIZkjgUDG4sCEcGYdW4Jw5ELwCx8p3KY4oFXAGdIWKHbE575l6AROksKkWZqZnlc6mjXuQI/64VlHAO1Q0FlA26lW34RAI+hBfOKp4MqtoIq5as6VCtW6jDbwFSoWiFS1m7R4iilttFStILW2qL68vqOlcVsGAV16/SzGkqYFkOBiwG/cbL8EHnwIeRKtnqZEQEJEQYg7k8TNSSIxsjl3AEteJoyLcCvgITq7INQ/cmME8GLArdjwGCjgZCXAnKPRs01k3kBgaDOSXrK8hEhbs5EYPWFFDVqSYIzFEVklYFJHekBsZfeCvQI6E40f0rDEEVcrlppRMpu15USYgZ6RBgzfh3CIZNbhsDQuxsnwM1AujMadnqHazYSgQmxjIh5Uy8eJuxIQNM6ZXNDlRf0CzM1O67nVv1gdvfbe+/Ndf0s3v+oiuvvbgBf7Om5z+ZAV++BU4T5nj0xklcQLIHXmMm4SzOimOz3SsZjhbgwDSt1XmOGkQfvjX+Ed2BOSER46e0Je/8nUdO/aItm+b0vZtC2p1Bnr04UOKJYKam9thzocECzECOHP6pFZXllQrl3Ti5EmtruW1Z89ex94PBpXNJG0UwAy9UCxoY72oarWsVDpjsDOFxnT37IIDztHPQgXFHB8kwhUxih0FxChuJBRi12yQ+CgAqEdz4L6A1eemc5qfm9WObTuVzCQUj2HjzKa5q5B/qFDAK4/B8kMNGF8MURR05Q05PwRUA2fyG2p0BioWykagXFtZGsktW2b7XCk31OyQtYCJEM8RUzobUyTos7/n80VLoMRPIRAK23lF40mX1iinImDX3Wy1lEhnDC2pVetWjPFeqNdrRkLEr4C4aFMn+IMKWKMQtBGEWRp7hsYf4Odp4rodBI+Q+xjBOBInUD421owFQFi8Hpf6iC8EGRd4MuTzeZWKJSM7mrSRyG2f3zgh5o4YwJ8ioFqtpnazbkhOwB/Wvv0HrRmDIM2xGnyvUVe93rJcC3b+Zmft96tSrVsKJAgLa+p8JBxSRKNmr7d3JF9tNEaR00OFQFAGQyWiUX34Jz6ooS+qn//FjysSBTWBzDh5TFZgsgLPgoPwTE6K5xXWNB4xbEYRtsY90yRsTXPcnMUwUTFcQPdsvd7Qbbd9W48/cZ8W5rcp6B+Kf4smklpbqWlp6bRmF6YUDCfM7pib4eSxI1pdXdLa+obyGxs2RihXytq1a4+R9lJJoGvm9SUViiXbkbM7RFEQCaOdB45n59t3GneKGTI8JHoe5u3sNMlEoGj53L8jgRywC2b33zM0Y9DDtKhrcPe+bFy75nPKTE9renabAgFm6H5TC/hCeDC0LAoZJ0bY9o5Fzw5c6g2lWHra+ACdfktLq+sq1poGvfNcpDxSiIlv3livOSvkWEqzU1NmoTw1HbfrRRXBuUJixDWQ+T2wfyQSNp5FOOiyKtiVs0tPpdIKx6M6+sQRDb1eS5islPKjWGRkjM622o+xUxfjI69C0aDN8QFAWs2aao2qXSdywGaDpEzSGmVNF80avAaaoUbNjWJmZ2eUm55SuVwyUim7/0rZXZvZL2NsFAnb72JSRJNBNDYJnaAbkEoPHLhE8wvblUwkDN5n7MHPkvB49OhJBYMOTRkMMcByZlfGdTAvC5mB1DiAqtWsG2fDRXaDnjhSJYTWqWxGyUhU73//B/Tj73+v7rz9Dt3y7h+fxDpfQJ8vk1N94VfgHDLHzUZJP1RY0/mqGLY2CBME4YW/B16QZzDHxJVlPX7osEqlulaWlzRQS/MzcyoXixp4peNHTiiWTCidy6paacjjC2hjBQOhvBWZWrWiJ4+eVLHR0q5dOzQ3N2U75Wa7q8LGhun7aQ4q1bJJG7OmKhiZ6GB+wy7X5/wBaBjYOYNUMF6gOLIDtcKE2x/ZBXAXAn4n7zPkoCfvoKcrFnJamJ9Sbm5BqdSMQtGQYtGogiEgcOD+f1Q7gFTAesNumSyAZqliHInszLS5lcPQP7WxbnNxIG95CTOqaX29plqlrmYHeD6pYDhkgUrZbNxshlEtUBhxi4xns5ZeSDHHLyEWT5lXAigIMtGNtQ3nBRFLqFIry8M4AoVIraRyqTTKRGjbzN7ilqMRNTtttRptOz7HpviaZwNNFF4EXqnZbBmhEImhra0V5765IUIEDUci1viglFhZWjaZYrFYcgaWXp81TTRQLpGRi+rb+TknRZ81GKlEUnPz2xRPxJSIp1wQVJ+ALK9KpaIWl1bUbXXkhWEI8ZScjaFsJAICglKB5yCZ0ePB6rlsr2e5WLBz3rZtQW99y1t0xRVXaN/efTpw8QE778ljsgKTFfjBFXgWCALwKeMEvsY8hK0ZDGdVMWzOYeAMxl4Imx0VNzspwj0YExTHPghjmeNExXCB3MUU5G997av6+6/9tTDwnd+2x0yH9u/bo3y+Zk3A6mpesVTCZGzFfMmIbEDfzOYxvCkVNlRa2dDDhw+bUmHPnh3KpLNCMlkolk21QCNRLpdtvDA9PTPyQggYfE0Bt0Ae5tUoE0a8A9tRttsGkbPzNWWDx7Hyx7kLZo7U6SoV8Wv/dFxz09Oa27Fbmey0gtG4FUlMiiwmGAlir20Fm7EFmQqEEHkCXrVq2Ci3lMpOK8Ru3O9Vs9NSvlRVrV3X6uqqFcozixuqVDpmCc383uP3KhwMKxwNKRoPGSmTHTgwPWZI8DHwZHBhVAH1Om1zj4xEEubLQCHHqlh2jS7gqtmqm9kSO+sC690j7tqlNbJ759zwDDBOAdbPrEcfl0YnIyQ0C9Kk7fwhPNoOnuvvKRgOmO1zIpU0V0pQBfgn8CYM1SF6eVSI8R6goTCnw3rNIprjsZRS0aBmkjHliPDGuyEY1TAYULFQNC4FCEY+Xzazo2qtZufGKIZjkdlgIU5DXmfQBMY2NUMnaBLgNrA+73vv+/Qrv/wJ7di509JDrVGZPCYrMFmBp12B8yApno2DcDYVw+bneCqLYdwUnEvFQJMwzmJ4ugZhkuZ4gdzIWPR+/jOf0de/8WWTEGKEMze/oP37DiiRieieux9SMpFBQG/JfnUj7zXVaLWNMLe8eMrkgJgcLZ1Z1lqhoNmZaW2fndc6c+12SyWahHZTjXrd9PWZbEaBUeYA5EeIeiHLMfCr3cYkyWteBxbU9FSugGscPD6Piy/uO4kjhZIdczYe1IHZjOa3zWlmbrvSU9OmxWfGzgN1RbffMojbIpstWYqwoNCIHDiwf2fM4PV7FcEKGZ1+u6davaxiuaLjp05rUG9oudpSz+PUA/5QULFYQoGg36R4ww58g4QCEBBrVSu4iWTSwqE8BA3FYs6FkALv85jtMa6DzV5XkUBE4VhYGvRUbzTNaAokAYIkxD+cI7G3RvHBuINGgfWCv8DrOBxSRCFiRkZWxR75iFweOFtmiqyZMo1ilL0Bj/LreVMXMK7xjjwd8FGIsNP3BdXrttRo4EVBnkNEs+m0Lt02q51zsxp0u6rWGxqGIuoGQmr0ByrVWoplEqqV2oYq0ODhewH3AMSg2WpY5kSrVVOpWNFGYcUZJJGkaY2cV9u2bddv/ebv6OO/8JN23ZPHZAUmK3DuFXiasKbnVcUwZi6OyYlbpY5brZZ5925WMdAYTKyWz/1avmR+AgLdpz/1Z/r7r39evXZHKytVdYd1pTIZHbzkMvmGQa0VSkql4konU1pdXdPS0rKR0qq1utbX1syOmJ16q9Ywhv/OnduViIWt0G+Uysb8hzFfqZSNkJjEpAginNfp5YGdu4OB2R/HE0kV83kzLALEYpcLQsDuHWWA5RyYxTA75o79G4S37emE9s5ntXPHdk3lsornpq1AQcojWMjvZffdVtUijaXeoG0wNzc88HyQWYqHvIKYfLGkeRoMgPOrVZNZglgU1zaUXzmjYGJKp0sN9bxRdYd9azKA/zvtumLRsPkIYFMcj0TUovBbk0Ixx8SJFMIsqQlWmCHbxRJpyzDGoElD0IKmkQDNB0J+Sy88ceKwytW67bCB5fsji2VCpbCaZjQBv6NcqqlRq4k0acYfkAbTmZQ5Edq6tjpWqH0Bn1aWl63pI6jK4yW4CQMrVAiYObnkzZa5JPYUjcWViSV105VX6rpLL1O5XlUmnVB+o6Dl06dUrOc1CEZVl1+HllYtSTMcjTnb5qBPnUbdVCwb62smtaSpg1BCRDYIAQ0fTQ58j127dumXP/Eb+tmPfdhem8ljsgKTFXjmFYDf4/P5NvsgjD0Q+HNrWBPjhc2jBg5+NhWDReZtzl+wzdY5wprGLoooGcZExbP5IGCU9PGJUdJL+9am2H7xr76i//V/+x/16ksv0iOPP6knF1dUKK/p7e98o6amM6rXfCqWCpqeyqpea+nMmSX7sGfMgN1vqcz82hHQKAgL83NGymPOz86QZoJdsLHk/QHNzc4a3AzLHtdACGl2Fw6HigTDqtRqtuOnCeB7LvwH9r1DD3gzcN74BTCGCHg82paJa/dMUvPbt2lmdl6pDEUXu2bgey9HkTp9QzTaHdIeBwpGY4qEI/J7nN6e4gTCQWYCc/heu65uC/a9T+V8Xs1q1ayf07ntCiXiOrac13qtJkILY/GYut2W4tGIjUGanPOQ5sS5CCbicZP6WVpkt+eSK/3B0SiiJ38AngSSza5i0aA1VJA+WS8UEJzj+saKNVnFjQ2ThVJQkYhCLqTwM9boDfFQ8Cq/XjDOAcfErIkUR1AC7JKB9BmDZHJZnTl1Sv2Bx9YalQOF3ZwTgwG1mzWXTNkbKpVI6M1XXqUbXnWFwoGoeSh0e3WTRq6ur2p5cdHGBV68LOI5HTpzxu6TcWolr1Ob18oX0PzCNkM0SOhkLSzn0jwcekZe5N75wAd/Tr/9O79i98nkMVmByQo88wqMOAifkvS5kUHS2ChpjCDwJ03B1iRH/ntrDsMYKDhrFsN41LBZ6rhVxbA57pl38ISkeIHewdxYd337Xv3xv/t/dO2uhAK+pI5v+PUXX/iUrnntpSarW1tdsV4wGvMqFErp9JNnjA9g8+9uTxv5DdVqFSvgFP2Z6WklYgmbnVO8+OC3ImZQecg8FfjgN/tcNwAwmB84niaB/5kMrkeRBS0gI8ARAIHH4UBQxJz3Qdf8+Hfmkto5l9b8/DbNzC0okowpFAhR6208woMxR6cJC58Ux7iCYXgBXpuHEzzVabJb7qjT71shI2kQwwPPYGgzeO/Ao1Q2Y66LmeyU7brr3YFOra1prVSR1zM0qZ6LYnbKCxqUaDxuVszs9sc+AXA1NCBxwmuQO4oG1sSNAPBdcN4EsVhSkXjcUhsJlKqWyzbTh09AA4GRkgt3ohEgLKpv4xGKL/wMHBSRTloYk4Y27oHrUa9WjfMA/6Nj8dUkRvYUjUTsHDkW1wMB0jMMaM/Cdn30LW9VLp22dY1Ek/b6Vislra4vqVDKq9ksq9mqKZzZpXY0qKMnT6nZ6luSI1wIGrVkPGFch2Jhw1hOjErIvIC4yIgH4qTXG9Zrrn+zfvXXflE7d0wyFi7Qj5bJab+IK/Aswpq2NglwEMZfnPHmLAb7cN6MIGxVMWwObRoTFDcjCJM0xxfxJnihnmrxzLL+7M8+peLSMV27/zJ95btHdM/37taei7ap3+pqbX1VXl9EzKwXZhaMsIecbiOfNxY9UHm9UXWmPx6vspmsSdTwMYDX4Eh02Cc79QHs/0g4ZDN0Z5ZEEqELWbKoYz+zebejNFSC2fQo+hckArUDJkDseLlBp+Jh7Z5JaWZ6Rgs75pXKZt1OPui3XACQBIqfnUd3QF1WIp6zZMBGs6pytaRBz2thTMX1VYPVCTti5w3hL+Ah2hhVQFTJZEaJdM7UETgERmIp+YJBNbtdCx165MSTtlPnurLZaQt/sgTHYFjBAIREJIRRodjs9F3ionXkuAX6fSanDIZCKpcKxiXAWAmYHQ8EnB0zU1lVCiV1Os7rwOcHIRmYkmIsZ6TJwaUS2B6iaDqVNOJjvVo374ZOv21KDMYi8A7k86pZaxppcGpqxsZF9UpRhVLJTJZyqZxed8XVeu/rbzDJaBAyYy9gKBMpnPVBw7wiyOdodztaK29o4cCr5YtGVW71tL6xJv9onOTz+BUIelWpVlQobBjy0e8jbZTJJlm7WCRlJNO3vvUWvf3tV21qJF+od8DkuJMVuLBX4DmENT0nFcPmBmGzioG/b20QJiqGC/ueeursKTR/97Wv6Otf+5J2Z7P61n2Pa7VYUCIWsh0ikcXJXM6c7SgWa6tL8gekpaWNkSSxrdWVgjpdYPqBuSViVgRqwO6fQgULn90+38dPPxjATZCAInz4a+avgESPn/d5A+r3OwZ8WbG1MUNnlCEwtB0oO1JyEuAk7MqltTAd1+z0lLLZKYViEaWY6/v6lktAcQe67we8dhOjGognp9XpkTNRVrPaVCFfVi2/ojo7WxoVr1f+MAmC2A4nFAz7FYmklUqnlc3OWXMQj0cMLfD4vIqxy/eFrKh+94lDNl4JRcImMWQM4BsMND8zo5Dfa0qPhZkZ3f7Qo5IHSWHQuBSNekV15IQkIzIWMSmgV9l0VpUqWQXYJ+NHUFSCrASvLCwJYl8gFFG1nFc6k1V+fVHD3sCSDz1BjxYX19VttRWOwPsYqt5sKOChMSD8KWBNXSYNv2RVg57jZhTKJUODpqdmlUyl9LM33qj9OwjgomEJmGtio9NUsVxUqVzU6upp407AV3j00e9pZvs+XfvO92m5uG4jG9QSNGjd3tBGCJ1201QcrA8vvIvqblsGBahHPJbRZa96tV5z/au1d8+MoVOTx2QFJitw9hU4TydF0IOn80EYSx03jxe+j4MwHi2Mz2ArQXEc1jRGELY2COMxA0RFviYchAvobj5z6rS+8Jd/oVZhSQ8dPq3l9Q1Fw0OdPL1olru5qVlFYiGV8hXVq2V1h3j791UsViyiN53OWoEhSAgp4+zsrI0FyEnAQZAP/7FnAUWAeTnzf6YKNA0Q+EgZDHi9Bl2j6eem53s8GAs4EyWvNQ2m9R8OlYyFtGc6rfmplObmZs1oyB8OKkBxNoMlYH9090wvUAwEFEnkjLTX6Q/UJFei1dbG8rLWnzysIb4LJAkaxI7JUljBcEzBaEIR+4opmUwqk84pnUybARGSQub+XHAoFlWrN1CnPVClXtXC9JwS0YgRMb2jpEVQEZ83pMbQo+PLK1pc37DfadYqNo9ndEM+BTkVjCBAEErFvM3p2eXjalgtV102wyiICUWGySQHQzXr5CrU5SFcKRww9QMujTgdEsUM0oDUMZZMOaKo128eAzQgpeK6VlbX7bVJpzLWEMUjUf30TTdp21RO8gTkGUj+SFBPnjqhSr2oOqZQ3Ybk9+n44UdVWFuWLxTV1W95j7ZffJHyxaK6fSSYEE1bxjNhDWrVqhEU8bjAYwJyZywS0lA+TU3PKxxO6OKLL9MNr79KUdQdk8dkBSYr8LQrcA4Vw7g5ONuIgaYARGGzzfK4Iz8rSXEsOt7sgcC/jSWOm2WOjBm2+iBMZI4X2I1MsT3z5Gl982t/o0cfeUiHjhzTqdOL6g+bVjwCXr/kHyq/XnNe+r6+2fUWi1UVihWD+pmD43lA8U+lkiZb5J6zcYAFATn/Am5DtPZ8uTjhrvkBUOAo0AQRmaRx5LRIUwCZnQAgNvc4KYJK0IAsTGW0ayqh2dmscRsgA/pCDjZHSoknH//HrZFiTxATRMHh0K9KvW7IQqNU0srSETXzQOF+eVA1AKUHIvIHQjaq8AdiChiagL1yTNlMTulERvFkSv1+2+SN7V5X6WzGVAKe0XNSfIfdjnxYR3FMPwZREDOdCVFnID22dEZn1vIqFArW9OB/EI4mLGyJZqjdaqjv8Zk3AtJH85Zo1JwE0E/IExB91xIug0G/NlZXRSgURR45KjbVXBMohaEy3bZdZyqXVY/wp05b0zPTOnnyiEoFR4yczmaVjKU1N5XVay+/Sq/as0vhWFT1ChyIvvLrG6raeGbDONKecFClWl6HH3xQ/WHbrJqT03v0jlt/Ur6gV2fWVtXquJwJGptWs2tWzMAg5EMwtuDTySuP5VSk0xkNBl5ddtnluuqaq40sO3lMVmCyAs8KQYCYeDYVw1aiIgc97yyGiYrhlXoXDqVyqWhOeK1GS//2//pDnVp8XEvLG6o3a5rLpLW2XrLdbijI/NxZAK+uFVSu1Kxw8rsUrlw2Z6Q7ij6Fqdt1lsHs/EECKNgQ81xaoTPxsVjkrkMagL3tYTt/h3rRKDBWsChj9LV+n3bOZbV/flpT0zQIKYPrfX5MgnyWA8F4gqYiEYkpM7NgHgdYHTPyKJbZlXtU3FjUxvGjNuIw1UAoYcFLXIfXXAU5pk/haNwijMOprJKJtKI+n1JTOXl6PeMh+EXqot+aJX4XbwjvACvnjo01OF/ImD0NjCRJIJY/HFWxWtfS8pIeO3lG3cHQCJ+4JGKqhNqhWq0qk02r0+mZo2G1UFY8mTR/Aa7T7fwL9tw0Ec1G2+VWdBpqNwdKpuIqlipG1gTdQTmCjBVTJeKdG9Wqao2KiuW6NWWQEN9+7et09UXbLIArk8xY/HWn3lahtK6VlWX15VWtmrfI7Ggqo0ajozOrR7V++qSCIeeQOPT6ddUb36uLr7nCGgCUFMgdzxS5h9z4iAAr+Ct8PBF3jWU2XIzZqWnN5aaM5HnRq67Q9l0LkzHDK/VzaXLd51yBH5WK4Vw+CBOS4jlfugv3B9hdH378MX337jv06utfq3u+c5vuuP1OtVq4762rXK6qWCmr3RkoX6ialJFtPSTCmZlpiyjudfAQ6FqADwWBY47HyUD1sRimQQ4eZ8zgir+TMdIXBAJeK/CmNiBNse1IfTxSiaj2bMtp+1xWmVRGyXRCQSPdgbQTBoWU0q9YLK5oNKNIJKhhr6dKparWoKf57btVzq+pUyloZWVR+bUlO3eQBpoRYpJptWkQrOBH44pE4+ZZEEuS4Oi3SGQUD0DlOCb6g86NMMSOGD8Ev0cBb0CdZtUSI2utplbya7p4z0H12k2tVoo6s3JGFx+4RA8dPaN1HAjbICR4RKDg6KhcLig7NW1jmjXQgQAwPLpnj0qlgvENaGAYBSHhtHULhpTNwhdZNZ4CUc31RsPcGP2hgFqNphVixjpIEUulkjqtjrLJjPbMz+u6i/frop07zX+CtWDu0qg2FIrFdejIg5ayGAr7zTyJJmdjY1XLJ09aWiNjlk63YbJPjy+lN7zrg5qfn7cxTBR1iG+gar2mdqenRrNtslZInGRMRPxhzWcyCkYYJQ1E8vfBy6/U3gN7J26KF+5HyeTMX+AVeB5UDFuljuMz/oERw/gb4zEDY4XxqGHriGFzg4AXAiFNE6OkF/hmeDEPz40HuYzZPSz148ePmnkRGQvf+c539JWv/K1OLy2qUMQPgOJvuYuanppS2CR0NAUtVYHzR0mMqBWA11Ps+H1+IzeafBEI2tADuAcuqRC3QbTxuCbiPmhKB2Zdfp92zU1p21xauXRK8VRKU5mkwek0JPyuzxcxGR9mPPFY0mbglWrBxh0/9r4P64Ybb7ZdPc1Hfn1Vd33rq/Y9zg13yPWVFa0tL6uQ37Dzck6DKBcSdlxGFWYjHCPJMWIkzjDpkfKpC4HS7zfuA0ZKjEg4D+b3HN+4ecQdm200ao22GgPpxOk1nVpcVXcIQhKw623Uq0ZsJB0T+WG9WjMkhe9xDLgGlsHQaNhYIplJjWyTyWDoWX4GDQGKCV4bmmH+Vp0AACAASURBVIdEMmFqDWST9WbbApJSsYgObtutd1x3rfqDpikJQFxikbgakAqbTeXXV8xLQr2O/OGwhVaBFJw4/Kia9arxNQLRkCEINGnINtNz+7R970Ht37NPUylHrgQZaHQ7qtcrqlYKhvZEYnHLmGD0VG/U1ep1JE9MN7z1Js3Ozb6Yt/3kuSYrcEGtwHNQMYxzGLbKHDfnMPyAD8LZZI5jFOHpVAwTH4QL6lZ6fk4WEiEpjp//7Gf1yU99Uo89cUgd0hUHAxsJuMyFnMUj49QHN4Giz8PSCf0+Y9zDYkeuiJ8CRdjlEYAeDM3Rz3kreKw5YPZNr8oMOx4Pa9/2KXMJRFufTKY1ncvK7xuqP+zK0/MbQS8aSSgEdyAQNLXEwq7dev2b3qKLLr78H8cYm5aERgVGPUgGJkCQGEvFNZ0+fkT33XO31haX1Gy2FYxETUmA7wHui6gpzR1yiKlQUn3Em7gsegPCuphUx4AvaD+DcZIXTN3jDIKQCvZ6TQ0VwGVZ9VZP3zt50iD/QnHDTIUIdSLZEuKiNxBQuVBUu90wzgHNE+sXMJdJwH/Wq6veoKNmA8lj25CXSAzvCdARn8olxitSqVIzBCEVjentV16pS/cd0HQqbVLRSrOsgC9iHgUEMTXaFeVXV1WplZx/QrutaCKjWrOukw89YGhLKB5TIIJElOCtrsVSe/1B7b301brlgx/ViYceUjwWMn5IqVJUp99Rs1lTIEzapU8hb0i+oF/1TkeVUkGz267QO97zjomj4vPztp0c5WW6AudQMcBD2ExS3Cxx3EpO3Br5bOjA+LH172PL5TFBkT8nKoaX6U32bC+Lm3J9bV1/8qlP6V//mz/U8sqaFXGbtQ8GymTS9sFOQaU5oEiNA4koZIwYnDuii252fgnufkXKCPOeXTJ+CMD17LyRyN3yzhs1bLe0srGiSCikKMTBVFxzszkj39F0eH1B+b1B9Tst812g2PvCAf3kx39Ve/cdfLaXaj9PmuTpE4f05c/9Rz0GGc/j01RuxgiAXXa75pwYtB06Vs3xKOhFWrFIQvFoXEG/Qw58XEvI4yyRkRrCzahVFc1kzZgKQmSt3dJDRw/r5NKKwfDYFlPRTQERCJgaoF2vK5WMG28EgmjQ61fAxzh/qEYL18qgQpGYITgoBmbnprW+si6P369KuWzBW+VGTdPpnN7z2ht00Y7tioejisVS6nSr6g1dRDYNwdQ0QV1rqpFs6ZE2NpYlX0SZqQWtrS5r9fhhBA6mdPGHYhr6yLbAD6KvaHJe7/7oL+h1b3mTHn3gPj35+GGF/QHBxmh0cM0cuOyKMkiCzxQkqDfabY/e8+FblUxPCIrP6Yad/NIragWeRsVAc8Bc9mwqhs3owfjvYwTheVExjO2Wz2a1/P4b3/aBn59YLb+871EagWNHjujTn/60/upvvqBioWDWvG400TfTHZyJ2l3CnfqjRsA1A5FI1Ha7QP+W4mgyPtQJHnP7s0aj57wMpqZyuuzSS/X2t79VP/8Lv6DP/un/q//05c8qB9s+PWVkt2jYRQ6De2MZDIGv36a5GJqvwod+6ud19XU3/NAvCOjJ4w/epzu++TUdeuwRO3/UEfghEI7ENcET4Jx8A4/S6SkjZRJ6hWEQXgQ22/cGzFJ6YFLFgUHsqB9AXJBoArufXl1TqdVWu9lWNBxSvlxRu1GzUUrQ59FsNqnOEDfLsqJej7K5jE4trehMoaIKI4dGW8lUQpV6GSaoeTWw8683WqpW6solkrpk+y697uorLUSq32ra6xVPJ5WemlV+fdmMpfqdnoqVJRWLNCN4Wwy1c9/lGnh9OvrwvapVSyYdDQSDplro0aZ4PEpnp3XNG35Mb37nO539taR/+PJ/UjVfVigWNI4KgVd0TlhxswPpq6NWs6ep7Zfoxre9YcI9+KHv2MkBXgkrcB5pjjQJz+Sk+H0WyyPZ41MIwlMdg6mN3GNssfx0HIRnymKYNAivhLvSdtY9HTt6RF/43Gf1rW99Q4tLa2aXPH6AELQ6LXP+I5eBUQIjh0iE2bxvpHDA7tdZK4MUWPSw+StLc3Nzes973qWf+MhHdd3115kb4Xdu/6b+4F/+TwqGfMpksmbmw+673alRBxULxdRsVOzvV1z7Wl17/et18WVXPq+vCFLMh+69W0889j3dfedtVjQR66GEAMmA0IhdcTyZViSEF0JIfo+Lkg54XbojRE7m/zREniGEzqEjcQ4ZEzjkpTvomc00BMPOoK1hu696E6tkmq6Ohl6vBW3xTvYOB6q12qq2eypU8UJAGto3SWe+VlO1jqKEcc5AyVBEb7zqKl1+0V6TFsLboCkjFRIbauSWqFd4jrX8GQU8YbW7Dfn9Ub3hx9+tcGpWd33zb3Xq8UcspyIUCcoTZPffN++JRGpKl193g2754EcsBnpsdvTo/fdo5cSi4omoWVLDc2g0kEzWDSHyePoqlzu6/NrrdMmlB57X12xysMkKvBxX4DmoGJwDnctmOJtJ0lMf4FvDmli/zTkMm70QtqY5blUxjAmKE6Okl+Nd+AzXxA54fW1Fd91xu46fOKFt23cqGo1a+iBZAOyKl5eW9NCDD+nBRx5WPl8wVjsxyK02mQ1YLTt54pjEB0lvYWFOt37oQ/rFX/ol7d69x77Hzz3yvQf0B//7PzMSHKOKKB7+eA34AqZe8MmvpTOn9Ia3vE0f/OjHLI3whXocO/K47r7zWzr02IPy9fqWduljzOD3jsYdfgt/gg+BtJMSGvD4LMVxCLHT51U4EJAwPmq3TCHAg/EKpkkYN5H7wHrBNwCCr9QK6ne6atZqjtPg9ag/xF3BozamUh7UHwP1200LUeoOvao32jp1iqTFkOayC9o2N6W53DazaSbvYeitq9kgYhuFQliNekeNZtncHdttvC5CuvT61+pN736vEpmcvvSZz+jR796taimvXqtlNswKDNQb9hQORbT/0qt0y4d+Wjv27Pm+pT9++JDyS6uGqrChQbGB+mJ1Zc3cJyF05vN1vevW9yseT7xQL9vkuJMVeNmswKYG4fOSCGraHNY05iA8E4KwtUkYr81ZVQzOs+Qf1QtjJGEzB2EzeoBREv89jntGzTBBEF42t99zvxBuXFM2DIfGsl9bW9ZD9z+kv/qrL+g7d9+lxeVlm5+P1QnjBgGjpeuvu063fvhWfeQjHzXC4vjBDvi2b3xVn/v8n8kz6CiRIDI4YhJG3PgwXcJCGCj847/0q7rs8lc/9ws4z98ktfLPPv1Jfezj/0RHDz2sz//Zv1epWFWzWrR8AsKWcB/EYwE0IRiKmsqBHTt5D0EsJVE1tOoueyESVbdeM1kongzs6CEldlp1c5rEI4HmiJEMTRZKD7gPPU9PHRQLzYaZQXn8Hg2A8YNBqYv/QkaxBJHTOfOcSCVzCkfiqjaKKm6sKp7KOEOrbkP1alOtdt2at3A4ouvfdItu+ZmfMnfMY8eO6Wuf/XMtHj+mXrtlbple/CeCNHh+pbM53fhjH9Tr3/o2M8Pa/Dj+xCG1qi1zoCQQC64CiJJxUAZdNVpNef0R3XTzzZPxwnnef5Mfe2WvwBYVw7g54E/4B+O45zEXYaxggPC1mYewWcFge5TNaIEBm5vQg83IAT93PmFNmxGESYPwyr5nn+HqMQOq6f7v3qev/u1XdPc9d5tNc75QsIJ3+eWX6OZb3qX3v//92rf/ou8zyOGNgLb/i3/9GT34vbuVSqcUiyXMebHdahsZkaTCgTeoG9/2Tn3ggz/hHAdf5Ee1UpTXF9CxRx7UIw89YLHXxcKajh56xJwPLbCJxiAAuhBWKBRRH4knwVJdYpmdxFM91A70DvA6BmZuxMMFT/Xcz/r5EY96g77xIfxwG/oug2JA+9AbmqyQ+GfGM5FwXPFESu1uS7nstCqVgkLRuKkkaphHgUAMcVgcqtdpavfBy/TGd7xbB6+9xtQLt/3d17W+vqS7/+7LalZrNjqi0UHeiGdEOBrQJa+6Xu94362amZ//gZU//sTj8vTd+Tawl+4T4S21+116GNVqRV193Ws1v7DjRX7VJk83WYELcwWeBxUDjcJmDsIPjBg2Nwvjvz8bFQMowrhB4M8P3vi2D3x8QlK8MG+4F+OsLcq53dYTjz+uQmFd7VbXdv2XXHKxdu3eazD35gc/X6vXdc+379C37/w7S1/MTLvgpEajonqlrUqpqNWVFV15zTX6hU/8mrK5l0ZcMOdeKm7ogbvu0O3f+IryqyuqVsvyeUiM9BkvAT8GXA5xW+yrZ0XfbKaNkogRIn/yvb48GBCQhDnUiMg5tJ/H6MlQGJ/7XQo2HATcEcmzABfMpqdtrNHv42gZUKMFj2Ggcr4gz2is0e+0FUnmdNO7b9V1b7lJ2ZkZeynWrZGr6Btf+oIOPXCXWo22QY3IGmkQosmE9h44qDe+9V3ad/AS45JsfTxy3wNK4xcRIAysbDbRhlSY62ZfpcKGrn/DjZrftu3FuA0nzzFZgZfFCjwHFcMYQRiPF8ZNwmag4KkRw7gp2Gy1/HRZDBaKh+fK6M/NKgY+1RkxTMKaXha33YtzEZtHEWdL7kP+SMrhgw89oK988TPqdVvK5hbM1pedcavZUa3WVKVYVCaT1C/+8q9ZdPFL7eEUFT0Lo1pbXtQX//JPdf893zGVgs8z1NAzkAepJ6MSL7LJkJN+Dj0KhUK22+53+yMjJJ+RF9l+m9ujD1XEUKEQb8GhxUZ3O02l0tPqtuuSL2DqjlajpNzMvFZXVg3FCEf8KpdKqmHHHPCp02wqmZ7Vf/N//mtlslOGZnC8VrOter2to0eP6Lav/I2efPwR83FAtzEIQMZMaN/BS/XWW96vfQcOjn7v+1+BWrWi1VMrioeDGhAHXq1adHijiQ+ER/VWxVQwr3nDG5XJ5l5qL9/kfCYr8JJdgbM0CM/7iIGLH/MP+PtWHsJmJ0UIi6AGk7Cml+wt8/I4MQiQZD089ugT+ubXP2PGOjDkp6bmFfB7bLyAOm89v6FWo6IDF1+in/rpjxmcfiE8uL7P/+kf6967v63Sxoq6zOErNRsp+Dx+DT1d8zQYEtAwsm8GV/B7gmaihLohGCGICovnOH2AoQ2QFgmYggiIPwPExpA/pB7HbzQVS8TMHbPbrJuBElbMM9t36k23vEdveMctlgPByKJaqigQjqler6tQLuv+b9+u5eOHtX7mlLlgwqUgICs7M6Ub3/keve7Gm542N+HEsWMaYjQFgTMQMI4F6ZJkdGCxWC7mNb2wTZdfeYUhIZPHZAUmK3DuFTjPuGc4COOgps0qBp5gs2HSuA+wJ34mFQPfO5fVMujB2dIcJwjCuV/XyU+cYwWcGdOqHnnkET384H3KbzypRDKlUDCqqfkdFm/caTVVrTatgJFjcPMtt+g117/+rDvYl+qCA7VvbKzp2BOPam1tRXf+/VdUXFtTvVyxcYE/6PzJTIpIPHOI7IeQcQJwaAwScR3AoTBocD2NgyBtisjtugJBr7ogDR6vSSSRUjKOQZoZ9sU1v22PLn7NNbr0mut06ZVX68zJYwqGEqrU6uoMSPo8qY2VVSNJVvMFrZ45rkalZMmV5FAM/X0duOzV+vEP/MTTjgZ4Lb/x1b/Tzh07FcbnwTtQr91To9Wy87Q48EFXey86oNm5uZfqSzU5r8kKvORW4DxkjmOC4mYfhGeSOY6v8QdGDONvbA1qGisZxk6KExXDS+42eXmdEDd9MZ/Xt++6U6dOHFFh/YwZCIUJ9YmSuEixjKrTakvDgCq1qqr1hn7mZz6mgxc/N7fEH+UKcr2QGeu1mh57+EE9/vD3VC3mdfjhh5TfWEWrYHLJWCgpecmzkJkMhcNhDfpDRUNRhYMhS6lkLODzDKwBYNRQKq6q0+mb/XS9WlCz4SKi53ft1bs//DEduOwKdQZd3X3bt/WmG29WvVFTubKh48cPaWV5Td12Q5VixcytmtWKKoU1k1+yyw9EpER6Sje951Zd97obfkC18NQnzXCob37t77Vzzx4FSZQadpTPlxVLpTQYdFQp1uWPxHTJqy62PIbJY7ICkxU4vxXYgiA0RjHPZxsxgBzQJIAYnEvFYEjCZgThbFkMm0ObnimsaTNJkXf3RMVwfq/t5KfOsgLM3Y8ePqJDRw7r9PHH1Os2bGecSqbVajeMXAfE3hoMFQxG1fP4VVwvmiXxr/yTX1Es/sL5HrzQLxhvdsYOKDJwLsSGOr+6rO/e+Q9aOb2o9eUls1cm6ErEaHsHCvkj2r5wkRLJsO68/ctKZ2c1HLaN1IhFNLwFpKBz23Zpx969mppd0BWveb0OXPYqk1USF/3QPQ8oForq+KFHtXj8hMqFDRW7VZVrGE4N1Ot0zWVx0OMzRoonI4pEw9asXfOmN+ut73iXpkdkxrOt0b1336nDD6/ptW94lbyeruUxdNtNI0mSr4F80heb0eWv+n7lygu93pPjT1bgQl+B56Bi2JzHMCYpWkOw6cuWZXP+wub/HhMUNxMVt3IQQBHONmKAJcWIYWK1fKHfeT+C84fEd+zIId13zx0WZxwJ+pWKRc2uuVipmrMgO2avL6RKraxoNKXhwKfF08f15re9S+997/t+BGf9wjwlb3wehC+h+KAxeOLhh3TXbV/XycOHTW7Y6w6UiMbl9/hGMcsdBUIRef1SbnpWZ06dMjXHVde9Xm+6+WbNbd9lqALyz0QyaajFt2+7zQiOq08+qbXFEzry6MOWoVFu1lSp0iB41STEqtVRNBjVgX175A0OlZzKaHbHTt3847fq4ssIwNr6ceLWhes48uhhJbJTGpobZF3qD9RuVNTtDy3PotGuyhua1hVXXfbCLObkqJMVeJmuwDM0COMshs15DJubg80ZDD+UioHm4JnCmsYIwkTF8DK9CV+sy9pYW9Ndd3xdaytLLpo4FlYsHJXf49HiyglVmv8/e+cBJ1lVpv2nUueeyESGnCUjMMCQg5JEGIKAgCRdI+awq2tgXd1VV93guusqGD9FRVREjIAYCIJkhoFhcp6eTtWV0/f7n6rTnL5T1d3T09Pd03WuNt3TXXWr6r3Pee9z3vRklWcyYF9WK1et1O67zzeDkTZvXq+Pf+pzmjVr1li91TF9nX6ykM1qzaoVevKxR7TipWVK9PWa2gTSC9NnTldTU6uaWlvNjX+3OXO1Ye06zZo3Twcderjm7b7AjFWmCIFJi6Qislm0HlJmB0+9Audbu2KlNm1Yp6VLl2j1ipXasLFDPX1xxUINOnifBWpsLLc1Hn3iIh157Ik68qhXGx2GagfRkBXLViuPauTUVkMQ0vEO5eJpRcIl09pYKKW1ftMW7Xf48dp///3H1K7+xbwFJoMFarQ5MiTJHZS0PSmGAYOSXBu5Wgyu3LM7atl2MfAdUuBTDJMBZeP8GRjz+6cHfm3aFc2wH9QPY2HlkWEu5NW5eY1SmZw2dPQomS5qxYolOvvMs/XSsmXa58DDdcst7xnnTzA2L286NzJpE/bPMd+gomGBtgNdDWb+AB2QJeYsMlkSnYVoVdlkSzzsd27otGFSNIhE9qrlL+uxv/5VDz/0Z+X7ktprjzlKh8La96BDddbZr9E+++5XtWYAjY6HH/i1urpyOuiIY6RSSrGGqEKFtLq2rFff5i1qa2pVOp8146E3d27UcaddZM7nD28Bb4HhW2CYXQzVRi0TTeCo1sVQUYUpP8AVa7KkoFYXg52DMJhYk+9iGP719Y+sWKCra6seeegBVILN9MBsHi0B2hhTymYTWr9+szZuXKv1myigW6uzzjpd82bP0oN/uF/f+eEv63J2v72x1wrv7wi4OHdZcrugtStXqlDImc4GhKjmzpur9rY208kQfG2el0mn9cQjf9Xuex2oaKOUiPcom0ooHC6oe9MqRdJFbe3aqHypQZHGkNZv7NJFb7hOs+fN35G37J/rLVB3FoDURyKR2yXd6RQokl6wEQS+B5UcbarBTS1guwGqjtXaHC1hqDYoCXJgRZqCYk1Wi8EXKdYdREfvAyNYtG7dKiUTcaXSGW1cv0br163RS8teUF9vQuvXbdQTzy5VLlvQhz54i7ZuWa9Zs+br3R/42Oi9iUl8Jkso7EccLrF4JcKAX0G2Gnmsynz2QO1Bb3e3Vr+0TDPnzFdjQ1h9vRuUiHebkcqp3h6VslmtXb1KW9andMhxB2hTxwatXd+tq296m2bP2XY88yS+HP6jeQvssAWqdDFACOhi4LsVa7JzEIbqYqg6SbFasaJtbeQDWC0GTxB2+HL6EwzXAnQz9PX1muK8zVs26Te/uFupRFzJVEYnnnamNmxcrRlTp+ncCy7RzJmTs/ZguLba5nEUOFYpGtyZEQcTq8zntXLJEqPw2N7apmhDRD2969TdscUIRikc0qYtq/XzHz2kWz78XnV2LdeaDRsVa5mmiy67zghD+cNbwFtg+BaoItZUiyDYKIJtc7SphaAWQ38koVabo9vFYFMNg3UxWDVHG0XwXQzDv77+kd4Ck8YC615ernRfQi1NjUonUipF8lIoor7utdq0YY06OzfrgT/8QetXTtWXvvpBbelZr1Jkuo4+/mQzTtof3gLeAttngSG6GGx6AXJAFMHtYggShKCi44A2RzeKEByUNNwuBggCX74GYfuusX+0t8CksMCGlSuVzyDdnDQS1Ux7bGhsUFfnJm1YvV5r1q/Rpk19OuboRTri2P2lcLNmzpptWi/94S3gLTAyCwzRxWDJgS1UtEOSLEFwixSHFGuyGgy8U5tm4PtQcxAgBqxyxJr8oKSRXWf/LG+BXdoC7GZM/Uhft6lQCIUbzDjmUDhi5KrTfRkz96C5pdm0RjIymnoGf3gLeAuM3AKhUOg2SXdVag+oO7A1CCNpc9xG7nm0uxg8QRj5tfbP9BbY5S1gah0qg56IU5Y7IsplEeXWSxuk3OU/qv8A3gLjaoHt6GJwCxRH3MXgrtxaEQS3k4E5CO6X72IYV7j4F/cW8BbwFvAWqBcLBIoUiR64EQQ7TdEOSbKKjrZQ0dYdDDpJsVoXQ7DN0U5ShBwwIMnOQYAcuEWKniDUCzL95/QW8BbwFvAWGFcLVOlisCQh2OYY7GKwo5aDsxD4PAMmKfa3NFc+6XC7GCALfpLiuMLDv7i3gLeAt4C3QL1aYARiTUQR3AiC2+bIz/1HsHPB/iEo1rQ9XQwQhktPP3vxDd3dPSO+ZqcsWqhP3/oRTZnSPuJz+Cd6C3gLeAt4C3gLTHYL1OhisOkFt4vBphjc6IEr2jRkF4MlB9jUrUHgZyIGdtQyP1tFR7cGwXcxTHY0+s/nLeAt4C3gLTBhLFCliyFZmXvgdjHsUIrB5h1sz1G1UcvUHtivWnLPvgZhwsDGvxFvAW8BbwFvgclsgSpFirQ4uloMDEiyo5arFSkGJynWbHPEjtvTxQBJsEqOfPeDkiYzEv1n8xbwFvAW8BaYUBaoEIShxJp2qIvBEgM3ilCri4EIgptegBjYLgZSDT7FMKHg49+Mt4C3gLeAt8BktUCNLgaiCEQNRi3F4BYnuOQAu1qxJpteCM5BsFEEG0Hwg5ImKxr95/IW8BbwFvAWmDAWGOUuhgF6DNXmH9hogh25bMcs2zkIQ9Ug+C6GCQMd/0a8BbwFvAW8BSa7BUbQxWD1GCAE26XFYGsQqqUY7JAkG0Go1cXgxZomOyL95/MW8BbwFvAWmBAWqEIQhptiCJID+3mqDkrij7aLwX53ZyC4gk3uJEVboEj0wHcxTAjI+DfhLeAt4C3gLTDZLVAlxVBLrCnY5gg54HBJAv+25QYlm2JwxZrcNkcIgY0kuOSgVgTBdzFMdjT6z+ct4C3gLeAtMGEsUKWLIUgQKFS05CAo2BQcs2xbHLeJILgf2KYZgoOS3CJFPwdhwkDEvxFvAW8BbwFvgXq0QJUuBgjBcOSe3TqEAcWJFTsOiCBY5hAcs8xjbRcD390OBleLgeiBTzHUI0L9Z/YW8BbwFvAWGBcLDEPNMThqmaiB1WPgvm/1FyxJ2GZQkv1gbsrBJQpum6MlCW4EwVVzhCRQpHij12IYF7z4F/UW8BbwFvAWqBMLDNLmaLUYmIdgSQJRA0sOqqk5DqrF4BIFt4vB1iLYLgYr92wnKdo5CHZQku9iqBNw+o/pLeAt4C3gLTC+FqjR5kiqwR2UZKcpWiXHweSe+UD9KQb309n5BzaaYOcguEWK1QiCTzGML0b8q3sLeAt4C3gL1JkFdlIXg7FitS4Gdw6CbXHkd5YgWDVH2+ZoowiWIDBq2UcQ6gyk/uN6C3gLeAt4C4y9BYrFoiKRiKvFQGrBVXO0XQy2k4HIgU01BLsYTOSg8lWVINgIAg+s1ebo6jGQVnDnIPgahLHHiH9FbwFvAW8Bb4E6tMAwihStkiMEIdjmaMmASxT6xx4MFkGwLY6WKLijlq1Yk+9iqENA+o/sLeAt4C3gLTAxLDBEmyPRhGAXg61BsAOShiX3HBRrGmkXg5+kODFw49+Ft4C3gLeAt8Akt8AQXQxueoFIwnC6GPot5oo1BX8eqVgTBMHXIExyUPqP5y3gLeAt4C0wMSywHWJNNsXgdjBsl1iTW4PgTlIcqouB2gPb5ujlnicGbvy78BbwFvAW8BaY5BYIhUK3SbqrMkFxuFoMtdoctxmU5GoxBLsYXC0GSxKoPaAw0dYiuEWKdDF4gjDJAek/nreAt4C3gLfA+FsgoMXAiGVLEEgp2FkIrhaD28VgJyn2k4KRdjFYHQY7SdHOQrCRA/e7n6Q4/rjx78BbwFvAW8BbYJJbIFCkaHUYrBaDnaZohyTx3U5SDKYWbLFizS4Ga8rhijXZLgY7atmnGCY5GP3H8xbwFvAW8BaYOBao0sXgRhAG62KwkYRtNBiqzUEYbheDjSTYQUl2DoIVavJdDBMHO/6deAt4C3gLeAtMYgsM0sVANCFIEAbrYsBKVrjJWGywLoag5jJidQAAIABJREFUFoM7B6GWFoOdpnjp6WcvvsGLNU1iVPqP5i3gLeAt4C0wISywHV0MborB1h9sVxeDJQZ8cLeLgZ+tWJOVfLaKjm79gS9SnBCQ8W/CW8BbwFvAW6AeLFCli8EdtUyxojtN0RVrCpIDay5TtFhtkiJEwJKDYBQhWKDoEgSiB3QzeIJQD4j0n9FbwFvAW8BbYNwtMMSo5cHUHIOTFG0nw6BtjsPRYqgWQfBqjuMOFf8GvAW8BbwFvAXqyQKBNkdqDoJzECAJtothKC2GqhEEN5oAe3CnKLppBlugaOcfWCVH38VQT4j0n9VbwFvAW8BbYEJYYIguBjeCYGchjCjFYMMKwRZHjEBqwZ2kaCMIrliT72KYEHDxb8JbwFvAW8BboF4sMIIuBreTITgoqV/q2Y0aWFu6NQmuWBORg+3pYvCDkuoFnf5zegt4C3gLeAuMqwUCRYp2mqIdkkSBopV6drsY7GCk7e5iCEYRiB7wO9vFUKvN0Q5K8mJN4woX/+LeAt4C3gLeAvVigSptjpAEO2p5sC4Gq8cwIHIQHJTk2tHWH9hoAv+26QU3zRAclGS7GKya441+DkK9wNN/Tm8BbwFvAW+B8bBAlRSDLVIMRhCs3DPRBDtFkbdMBIHDDkmyQxNL1dochxJrcusPas1B8BGE8UCKf01vAW8BbwFvgbqyQBWxJqvHYIWa+O6KNUEIIAOkG2yaIdjiWHUOgjVsNS0GW6ho0wzVRi3bQkVfg1BXEPUf1lvAW8BbwFtgPCwwxBwEd9SybXW0XQy15iDYjzEggjCcLgY7KKlaF4OfgzAe6PCv6S3gLeAt4C1Qtxao0uboRhCqiTXZ6EGQIGDDql0MRAyGI9ZkaxBqzUGwJMFHEOoWrv6Dewt4C3gLeAuMlQUCNQiMWA4OSiK9YDsZBhNrcsmB4QSjLdbkuxjGChX+dbwFvAW8BbwFvAVoMQyFbpf0E0l0L9g2R1uDAEFwpym6g5KCXQxuoGAAQbCGrtXF4HYwuG2O1CK4Yk2+i8FD1lvAW8BbwFvAW2AMLDDIoCS3i8EVa7LFidVqEPp1GHjrw+lisITBnaZouxdsqgGRJpteQKzJdzGMATD8S3gLeAt4C3gL1LcFisWiIpEIEYQ7neiBOwch2MVgWxyrdTEMqEOopeZofw8p4AiOWiaCECQHkATfxVDfWPWf3lvAW8BbwFtgDC1Qo4vByj3bKMJwxZqqphjcWgQbWXClnq1gU1CsyWoxEFEgcuDlnscQGP6lvAW8BbwFvAXq2wIj6GKoVYNgowf9390Iwki6GFyCQIrBfl1y+tmL/STFnYhbQEFoie+RSIQiFfNq/I6vcDhsvvzhLTBcC3hMDddS/nHDtYDH1HAtNfLH7aQuBvOGButicCWfSTEMV6zJFine4Ectj/yiD/XMl19+We9+97v1zDPP6B/+4R/0lre8xZCEX//61+bnD37wg3rb295myIM/vAWGY4EVK1bove99r5544gl9+MMfNvgBU/fdd59uuOEG87d3vvOdikYJJPrDW2BoC6xevdrg5rHHHtMHPvABgx8w9cADD+hNb3qT+fd73vMexWLsNf0xUgvU6GKw6QW3zZGf7SRF28Gw3WJNdutpUwv2ezWxpmAXA6kGH0EY6ZUe5vNeeOEFXXPNNXr88cd12GGH6a677tL++++vn/70p7rkkkv0z//8z/rQhz5knLmNNLAw7ZeNNriRB34m6mBZPz/bv/N4+/vgeYb5lv3DJrgFXnrpJV177bV65JFHdPDBB+tnP/uZDjzwQN1zzz268MIL9clPftKQUZy5x9QEv5gT5O2xkYEI/PnPf9Z+++2nX/ziFwZbv/rVr3TeeecZPIErMFXLv4A176cGv6AVNUfb5mjnIIxUrKm/k2GoLgaXIARHLVNvUKuLwROEnbxAXYLQ1NSkj3zkI2bXx8JzCcLatWt12223qaury5CFY445RldccYV6enr0pS99SXPnzjWk4MUXX9S8efN07rnn6v7779fKlSv1qle9ytww2tra1NfXp2984xtiwTc0NOioo44y5+Fnf0wOC7gEobGx0ez4PvrRj5oIgksQNmzYYLDQ2dlpMHXkkUfqyiuvVDwe1xe/+EXNnj3b4AKM8jPPZce4fPlyHXTQQbr++usNppLJpL7+9a9r2bJl5vFHHHGEOY/H1OTAE5/CJQhcV6IFn/jEJ/Tggw8OIAibN2/W1772NeOniHoefvjhuvrqq43f+bd/+zfNmjVLzc3NWrJkiWbOnKmLLrrInAPssDG68cYb1d7ernQ6rf/7v/8TWOb1Dj30UHMe8DxZjypaDEGCUE2LwdYhQAasHoPZB1olR/4x0i4GV4/Btjj6LoYxRKBLEBYuXGic9U9+8hOzYCxBIAVx7LHHitAxJCCfz5vF9eUvf9k4dRYhiwgnn0gkzM84dM7Fv6dNm6Z///d/1xvf+EZdd911uvPOO/t3jlOmTNGnP/1p/d3f/d0Yfmr/UjvTAi5BOPHEE4XT/vGPf6x169b1EwRIw3HHHWdu9hZT06dPN078+OOPNw7ZYgoCALbmzJnTj6mpU6eax0IS+OL8hULB7B4hDbfeeqve/va3D4hc7czP7M+9cy3gEoRFixZp/fr1uuOOO7R169Z+gvD3f//3wofxWCIF4AGcfO5zn9PJJ59sNipEGPgCUxAINjOcAz+FL/rXf/1XvfnNbzZE4Yc//GE/plpbW/Xxj3/cpGPdaOjO/dRje/YAQYAc8LXTuhhgEO6wJFt/4NYg2MhBsEjRTlL0EYSdjBGXINx777269NJLddNNN+mMM87Q4sWLTYrhnHPOMREAFuYtt9yir371q/rf//1fw+DZ/ePMCff953/+p0lVEIUgwvBf//Vfhmx84QtfMFGJ17zmNTrrrLMM2SDqwCJ/wxveoIsvvtiwfti9P3Z9C7gE4Xe/+51e//rXm/AwoeDXve51JhR8wQUXmNQWDp3cMtcfXOHkwRrO/IADDjCYoj6GWhjI6Fe+8hXdfffdxpHzPM535plnmkgUJBQycvnllxsiQlQBUuGPXd8CLkH4wx/+oPPPP99sOIgAcK1JMbChAVOvfvWrTdSKiCc+6P3vf79uvvlmHXLIIdp3333N7/B773vf+0xaFUxRc/WZz3zG1DLgA/F/bHzAFBudyy67zERFOSekYjIeVboY3AhCNS0Gt4vB1iPY6IE10TZqjkGxJqILwTkIVqzJTlK0BMGNHlCk6AnCTkaiSxC2bNliFhN1COy+cMIQBFjzN7/5TeOon3/+eT311FPq7e3Vxz72MRPKZZHhpP/f//t/opiIHeBVV11lHP5DDz1kbgwsxt13392cn+8sYpj4z3/+cxMS/sEPfmBIhj92fQu4BIHdGTf3H/3oR3rXu95lnDAEARx8+9vfHoAp0lUQSaJMkM5TTjnF7BKJPBBt4MYPkXj00Uf12te+1pwPhw9RwGnzGIspMAke+e6PXd8CLkEgfQBOvv/97/djCoIAufzOd74zAFPd3d0mHUHBNaSTiBbRpo0bNxofBHm9/fbbTfEjG5i3vvWt5nFshCCXEFiLKX7/3e9+15DRyXjU6GKAGJBaCBKEwbQYaqYY3HSD/dmdg2CjCEGCQAIacuASBKIIl55+9mLfxbAT0egSBFIH1A1QaU4eGIcNQcBZ47RxxoRzWazs7FyCcPbZZ/cTBCIEMPn//u//NgQBZ84NYcGCBYYoEIng7xwUDs2YMcMsTkLM/tj1LeASBDBFjhdMgSccNgSBCBMY2GuvvUw4l/TVf/zHfwwgCKeddpoJ81L/gjMn2mQJAlEtCAJ5YwjsCSecYLBpMQWWeAypMH/s+hZwCQKYolgRTLG7B1MQBG7+YIoNCBGDVatWmQiASxBOOukkE9UkegkGiZISFYAg4MMgCPg7sIUf4zwWU6RKecxkjnRuRxcDA5P4cscsj3oXg5V7tiOXXS0GP2p5DNa1SxBsDpd6AIrHOCAIkIXPf/7zZqfGDpDQHjvC7SUIEAWIAIsU1p5KpUykgZ3fZz/7Wc2fP38MPrF/iZ1tAZcgWEy94x3vMGkpDghCLpcz15yQLikoUhDsCOmY4Wec9HAIAiFmiABRK6JcnJeoFs7/X/7lXwwp9ceub4EgQeAT4Y9IF7DzhSBQp2LrmSAGpEqJKGwvQSCdABEAQ0S52MRATklxgSlI7WQ9KgTBjlomcmBrEPiZbgZXiyGYYrCFia4Ow4AUg2s32+JIBMFGEWwHgxtBsHUIkAMbQfCjlscIgUuXLjU5X2oHcK4UjFE4Bhvv6OgwC47QGostk8mY3T7FPKQaSEOw+4NpU1tASBfWjrOGybN4H374YZO7I4LAjYFwM2FjqoSz2ax22203QzQIAfq++DG66Dv5ZSAI3ORpc7SYIkIApkhjUbty9NFHmx2gxRSV41SWUyAGQQVTEARST6QY+DdO+n/+538GpBggsNS8QC4spogaEG4Gnx5TO/lij9Hp8Ulg6i9/+YvxGxQY0iHFZmPTpk2GIJAOAFNsPMCAxRTPsxEBHk+KgQ4aolLULbAZwv9BNIkgkFql6wZ/RjEjGCYiRVqD80zWWQvbIdbEDAQbQbB6DCDBjSDw70HbHG2BIg+EELgkwR21bKMILjnwRYpjtPAI0dGfTk6Owh5bocscBBw9eWAWEp0HOHDIATUFPGfvvfc2oV2cOD9TLERtAqybHSAsnFAe0QaiBJyLxUsPM+dikcPKIRCTuX1ojC7lhHkZcsS//OUvzbV3MUW9CYSUFBN4INQL0cSRgwGKZNmdgSlI5B577GGK0GhR+9a3vmWKzIhA4dxJPYDLU0891ZAMMMW5bGsbRWweUxMGEjv8RkgjgCnIoospClaJgkI+IQjUTz333HMGU2CF4kNwxN/BDOkHiqLpWiDixHwOsAfJAHPUF1CgCAnBxz377LNm00QtC/5tMmNqiC4GV/LZ6jHYCEI1NUd7zbeJIASnKm6vFoNVc/Ryzzu8rEbvBICHcPFojF6254KM+AmNo3eNdrUzeUztalds4r9fj6mRX6MhuhhGJcUAGQh2MdghSTaS4A5KstED38Uw8uvqn+kt4C3gLeAt4C2wQxYYJMVQq4vB7WSwg5JsaqHqoCT7Bt3BSTaCYNsdXclnW39Qq4thsRdr2qFr7p/sLeAt4C3gLeAtMKQFahCEVKXN0RYoWj2GwdocLTmwPKAUTCtYRUe3QJFIgq1FGK4WAwTBtzkOeWn9A7wFvAW8BbwFvAV2zAJOmyPdC3aaoq0/GKyLwQo2DYgc2IyCSxDsO3SnKPIkN3LAz26hohVq8l0MO3Z9/bO9BbwFvAW8BbwFttsCQ3QxWB0GG0Fw5yBADjiCcxD4nSk7GEysiQdBBoKtjnaKIuSglliTjyBs92X2T/AW8BbwFvAW8BbYPgsw7yESidwuyc5BGEqsybY4QhasUFNwBsI2o5bdd+XKPbs1CJADOwvBz0HYvuvoH+0t4C3gLeAt4C0wqhYIdDHUEmuyMxD4HmxzDCo62vc3aARhe7sY3DZHr8UwqhDwJ/MW8BbwFvAW8BbY1gJV2hxJK9gixcHEmoJzEDh5TblnW6Bo8w/b08VAugGCYEmC72LwSPYW8BbwFvAW8BbYyRaoIdZkCYKtQaBQ0UYPrBaDLVB00wxuqsHUF9hjsEFJVqzJFii6dQiuWJOdpOhrEHYyKPzpvQW8BbwFvAW8BcyOPhSiBuEnlcgB5MCqOQYJgiUJtg4BQjAssSaXKLh6DLbN0e1ggCBQgwA5sJ0MVrDJT1L0mPUW8BbwFvAW8BYYIwuEQqHbJN0VIAiQBNvi6Io12eLEYUcQ+gcjVLoW7ByEoBaDJQmWHNTqYvA1CGMEDF6GGfq//e1vdfrpp5v591Yj/YknnjCzy5lFbg/+zqxy9BWCKoyIPCF+wt9aWhDlLMs6M1rZaj2M4cfyLzWOFkDimXn4aCYgpoSAEzPyn376aSP/jNaCPcAY8/bRYmB+vnuATZ7LeTymxvGCToCXRl0W3Y6TTz7ZCCkh4IRSLBoMW7duNVoL9kBsicei24FejHuAP2SjEQVrbW2tez81gi4GIgaQA5couCbur0Oo1uYYFGviie4shOAcBKIIRA3sLAQfQRjjxbh27Vpdd911RnHxr3/9q5FKRSsdFTOUzviOGBMKeegyoKKHlCoiOog+oXIGAVi2bJk+/vGPG4noOXPmqLm52ag5HnHEEUZhj0Xb1NTklfbG+PqOx8shrASmkHVG+AY8oZ6HsicOHtU8HLVVXQRTqDkimoOz5/fof6xZs8Zg6Itf/KLmzp1rSAJ4POCAA3TLLbcYTCGkM1mV9sbj2k3U19y8ebPBFAqzyECj8AmmkGKGCKAWajEFdlB65PEIhLmYQqDpbW97m7785S+bTQ4kATwi6ATW6g1Tw+xisEJNQ3UxuLWI23QxWGwFJynajoYgObBaDLZI0as5jsPqZIeHTO60adPMbg2Fx6uvvlpoqyN9et9994loAouMRQiBQJOdqAPKfEiicuPHyV9xxRXGyaMIiXwqsrwsQJQfP/e5z+nKK680euv+mNwWAFNgpaGhwUSVwBTY+NrXvmZUPx944AFDRokQ8Ljvfe97RnL3T3/6k1EBRV6cGz9/e93rXmcwAwEFQ5/97GfNeZHv5efLLrvMSI37Y3JbAPXOf/qnf1I+nzekE9XQSy+91OAJovDHP/5RDz30kCEJ4AYp8Ouvv95ERPkZKWhw85nPfMZEs8AUctJsaCAZHCiPInWPHDRKkPVwDCHWNFgXQ7UUgzXZNnMQRtLFECQItpPBpxjGGJm33367fvazn5mw3Vve8haz2IgaIPfMYtpnn330t7/9zUQUkGBlF3f55Zfr1ltvNfrsPI9d3jve8Q5DDPgbu0WeA2HA+RPWe9WrXmV2gv6Y/Bb47ne/a272YInd/u9//3uzO0NSHGldQr9PPfWU+ZnfE22AmIIpnP+DDz6or3zlK7rhhhsMMbj22msNCUXeGblezsm5Dz744G3SXZPfuvX5CZFmZtMCNpB/JjUFcSDtSWSKFBUpB9KcEAmiDddcc40hFqRAweDXv/51s1GBGNx8881ms0NEYsGCBeacnBt88e96OAbpYqDuIEgQBtNiwFx2uqIx3WBdDDbVYIsU7Xerx0DUoJZY06Vei2FsoQnLfuMb32jyxezycNQsIojAG97wBr373e82EQZyfzhtwnfk/yAWhIFh3v/2b/+mT33qU2YBkk9msbFY2d3deOON/bLRvh5hbK/teL0aUSecM5EnnDqkkS92d+zQ3vWud5ldHWmrr371qwZjF1xwgcHUli1bDDn9r//6L33oQx8yKQqIBAQUZ37ooYealISVIveYGq+rPLavC6EkbUAKi+gldQdgiQjA+eefb/BBehNc4Mfe/OY3mwjUN7/5TbPhgWDwe8govzv33HMNiVi3bp3ZBPH7esRUjS4GW6RoxyzbYUnBIsVhdTFYyWc7/wDkWJJg2xyHK9bkIwhju+5McSJsmjwcC4Z6BG7w5PaoK2BhssDYtREJwLmzwGDbRBR22203s/D++7//27D1q666ypyHEN5vfvMb/fCHP9THPvYxQxQgD/6Y/Bag+JDIEekCalDAE7hZtGiRwRTRJYuphx9+2OCPVNT9999vfs/zvvWtbxniSdiXcDEklpvD3XffbW4QpMa4YbB79Mfkt4CNNJG2pA7qfe97nyGKkEcwRdoKXwbO7KbnrrvuMpEDihzZ5EBWSX2SaiBaCmmFxPI4Njr4PjZIFG3Xy1HpYrBtjsFRyzss1uR2MQRbHG39gS1UDEYQfJvjBEEhxTvk6Nra2kw4zubsWFgrVqwwi4uiHgoTp06danZ9q1atMvUG/P4///M/Tf6P55Fz5jFUyOLQ99tvP7MI+R31Cv6oDwtQWEbBYXt7u7n+3PTBmMUUeICUWkxReEbKiigBO0GiVRBQMAU+OQ8hUfC17777mnNOmTLFFMT6oz4sQHQpEomY646fogaKehWIAX6K34Mp6lvACxsXNirgChyBMfDGpgZ84u84rJ/inPWEqRo1CHbkMuTAzkKwhYrBUctBPYb+YUkj7WJwSYKr5OiLFHehNf7oo4/qxRdfNB0M7OD22muvXejd+7c6ES3gYuqkk04yYV9/eAvsiAWIKixdutT4KaKXbFb88YoFKgTBijUFtRis5PNwuxjsiQcUKfLLYBTBnYVQq4vB1iD4LgaPWG8BbwFvAW8Bb4ExtsAQXQwQBJtisDUINoJgpynawsSgomM/KbD1B5Yo2DoEm26w6QVXyZEogu1icGcgECv0NQhjDBL/ct4C3gLeAt4C9WeBGl0MdtTy9nYxVBVrslZ1Uw6uWBPzD3wXQ/1hz39ibwFvAW8Bb4EJboFhdjEQSQi2OQ5bi8HtYqg1KMnWHtjogW11tDoMXqxpggPJvz1vAW8BbwFvgcllgQpBuLOixbA9XQzBFseaNQj2Dzat4H63Ggz8ziUJtoPBLVT0o5YnF/b8p/EW8BbwFvAWmKAWCKQYUHK0ao5BsabgHATIAUc1kmACBsPpYrCpBlfNsVoEAWJABMEQhDPOWXxDV1fPiE16yqKF+vStH9GUKe0jPod/oreAt4C3gLeAt8BktsAgXQwQAluL4HYx2OJEfkeKwbY5YiZbqFizi4EHudED28Fgowe2UDE4SdEKNiEDeMkZ5yy+0ROEyQxL/9m8BbwFvAW8BcbbAg5BcAclJSvdC24XQ3AOwnZrMfBZ3eLE4LjlwboYrA4DUQTfxTDeqPGv7y3gLeAt4C0w6S1QJcVgZyHY73bUMgSBL7dQ0UYQbPSgaheDLVC0kYMgUaCLwY5b5mdSDG6BIv92CcLi089efGN3t08xjBU6mVaHeiO6Cww8YsQt8+4RPXEPppEhjMIoUiaYZbNZM3L5yCOP1MKFC8fq7frX2QUswFRNpmuiuIcwE+JNyDQHR9giN46AE9ofTLdD7wPFUESYGJbkD28BawEwxTj3iy66yAw8Ymwy/uqss84aYCSmIiIUBqZmz55tMMVjmb4Z9GneumKI1G2SfiopUUkrUIdgowcQBDtNcURdDK5ok00xuJ0MkAP+HexioDjRDktyUwwQhBs8QRg76KKeh1AOGumoLzKjHBVHJHqZec9oXERPGHOKoh5CTRAEFioiO0y8Q0nt2GOPNY9lQSKXygx0Zu8zAhXn76eYjd01He9XYhwy+EDdE00P9BiYuIkqI1LN4ATM8R1FPTDFOG/Ed9BtQPUT589zU6mUERIDS8iPIwC2evVqM7oZ0uGP+rAA47YXL15sROGYiojmAvhA9wVCgIYHok0oPII3iylIKgJzjFDGBx199NHGR6HtAGHAT3EeyCp+DTXHejoCbY62i8FNL/DzYCkGzDVAydEtUrQRA/vdkgNLFuygJKIH9guyAEGwX7bVEaLg1RzHGJ2WIDDTnvn4Tz/9tJHdxQk//vjjxnEzVhlJZxT6WIS/+tWvzMJEm/2FF17QcccdZ7QZDjvsMCN8gnw0Aipf+MIXjKgOC5EF7Y/6sIAlCMzNBz/PPPOMEexi/v1DDz2kWbNmGdwQZSByhTNH2AtRJmbnIxAGyUTrgwgVeEJM56Mf/ag++9nPGmzxd8iFP+rDApYgoLgIOcT3oPZJZOEPf/iD0YRBDhy9BYgE8vS//e1v+xUgH3nkEeOHeAyEAEwhGY1qLf6OL/wYgk31dFQiCHdVOhiCXQxuBMGmGWz9gZ2DYAkC/+6fqlyti8ElB3ZAEr9zxZpsisF+hyRQnOhqMfgIwhgi1BIEbvjsyD73uc+ZNAILDclUQr0sHNIQLCrCfIigPPnkk0JZjWgDXzh3znHDDTcYB75s2TITlYB4cKNAuMcf9WEBSxCIGBx00EFGlZHowDe+8Q2DD1INpKX+4z/+w6h9Iu1MagtlR8LCRBte//rXG0KKYiNSvhAMbgo8B9x5TNUHluyntASByOarXvUq41vOO+88k+YEI/ggSCN+6nvf+54hn1YhlDTXMcccY9IOfKEMihrkP/7jPxoVSPCHuFM4HFYsxq2pPg4E9SKRiNVisKkFihQtMbDTFG0Ewe1isETBNVZ/HcJQbY5uB0OwzZE7hU0x2BZHSxR8F8MYY7NWigH2zaLBwUMa/u///k+f/OQnTSSAkN6CBQuMihqL6uyzzzYOnkX5/ve/3+wOSUe87W1vM+wedb5DDjlkjD+Zf7nxskCtFANYQNGTSNPnP/953XbbbSb8S0iYWgTIAYVT1LcQqQJzEAIiB0QhcOqktTgPUQhqZfxRHxaolWL4y1/+YjYfpA6IWN5+++0msoAU9C9+8QuTNgBzpCAuvvhis8GBXCBN/8QTTxh/hs9Cvp5UKNispyMQQYAQBLsYIAv2y9VisC2ONr3A92FFENwOhlpiTa4WgzsHwXcxjDE6WTgsKuoMCNNRd0AkgUXH7g5nTQSBHDDFZuTvyAsTGl6yZImRUiWXfPjhh5u8869//WuTVqAwiFAeu8b9999fp5122hh/Mv9y42UB8ABhZIcHkSTtRK0KjvqOO+4weWKwQSTh29/+tsFYIpEwmCLyhOQz52CnSOThd7/7nXHiYIoaBDBF0dkZZ5wxXh/Rv+4YWwA84H9IHVDzRMoJbCHZ/P3vf9/UqYApNiv4MzDFc4gY4KNQdWRDQwEsKQjqWW655RYTZaCmAUxR98Lz6+WoosVAvYGNJLhaDDa9YDsZ3DZHzGUjB1XlnvllrS4Gd5LiUF0MXqxpHJAJSPL5vAnZEg3gZ74jkYoj5+9orvNv/kZYiqOhoUHkA+3z+TeFPoSGKfQhzEe4DkLB+Ti/P+rDAtUwBX7AAY4bDA0XU+vWrTMOnZsC5AKceUzVB44GxK6r+KmhMGV9V9BPETW9/PLLNXPmTENe6xlTTgSByIFbpGiLE3e4i6GW3DOkAVLA390CRVvLhXagAAAgAElEQVSk6HYx9E9S9F0Mu+7iJ7JAKBiCQHGaP7wFdtQCYIraA6JaHlM7ak3/fCxAtAFM0dVACqKej1Ao9E1JDEoKEgQEmgYrUrT1CJjPphns2IP+Ucv80W11tOkFfm9VHN0aBIiCnYNg9Rhsm6PvYqhnpPrP7i3gLeAt4C0wphYYRg0CRMEWKfLdTS+49Qf2fQ8YtexGD2wXg52oaOsP3C6GIEGgONEOSrJiTb6LYUwh4l/MW8BbwFvAW6DeLBDQYgi2OLqCTe4cBEiB1WKwok39tQdWk2GoLgabcHajB3bccrCLwSo6ejXHekOo/7zeAt4C3gLeAuNmgUoEgRSDLVB0uxjcIUmkG2wXg1Vx5H27io41uxjsB3SjCHbEsq1FcIsUbRcDaQbbxWDEmvyo5XHDin9hbwFvAW8Bb4E6sYDTxeCKNRFJIK3gdjFYuWe3zZGfbYph0AiCnaDkRhVsLYJNL7jRA0iB2+ZoCxR9F0OdANN/TG8BbwFvAW+B8bVAlTZHK9JE5CBIEIajxcAHMoWKbmFi8Ge3BsFGEYIEwXYwuOkFiIIftTy+mPGv7i3gLeAt4C1QBxaoIvds6xAgCLa90XYzBEct2wjCABXHitm2IQhuFCFYpEg0wYo1VetisFoMpBi8WFMdANN/RG8BbwFvAW+B8bXAECkGV7CpmliTW3tQM8VgQwrVahDcNkdbrOjKPVcTa/Jyz+OLmSFfnSE1TFlkSIk/vAVGwwIeU6NhRX8O1wIeU0PjIZBiIHoQ7GQgeuC2OQaLFO24ZUsQqk5S5J3YaYr2rmFlni1JCA5KsrMQbPTAFWu60cs9D31xd+QRKKAx154hNByI4TBKebCDBcfUMb4YmXvjjTcO0Fdn+Aiz0BlfirSqP+rLAmAKJTzG2XK89a1v1amnnjokphiZe+edd5ppdgg5uSO5wRRz85EgR8HPH/VlAcbAo+nS3d1tPvjNN9+sM888c1AjMO31nnvuMWPimd4KptyR3EyHRd8DcTn0POr5CLQ52vqD7eli4L5vSYI15YA5CPyy1iTFwboYbA2C28Xg2xzHCK2I6SDCxELC8RINQPoUNUZmlLOgUEljch3z8VtaWoz0Ljd/yATSzuiof+lLXzLiJ5yDhcjcc8bhMnKZ56PGx+uwWHfffXczDY8xu/WmuT5Gl3VcXwYxHcSTIJCMsAVTd999t7m5P/DAA0ahkVn6zM6/6qqrjCLjihUr9M53vtM4fqSgEdf5yle+YpREeRy/R6mPOflbt24133kuuh+M8mb8MjofYAqc+WNyWQBMHHXUUUYvASEliymEmMAU6o3oMLBhQaERzKxZs8aIxL3pTW8yAk0Iy6E+i/AXJJTn4ucgCclk0vyescvoOKAfsueee5oJi2AK3YbJfGxHimGHuxgsUbD1B7bdMdjFQIrBfhE1cIsUfRfDGKHREgT00adOnWpY+rnnnmtU85566imjsfD4448bNUcWGzd+/v3FL37RfKG619HRYZ4HeeDmwMLiMTjuCy+80EQkIB2IP3FuFNZYwCx6pHv9MbksYAkCwjdg6gMf+IC57p/61KeMah6YQlqX0bZEn5CCZiz3P//zPxs5aITCwBRS4Wg2QAjmzp1rBMEgDOgxgKnf/OY3RvkREkvEAhKLXgNKo/6YXBawBAGlRjD13ve+14jK3XrrrXrsscfMTfzRRx815AGJenCFKBMyzvgpCOSWLVuMciMaIES52MywweHvEAN8IJsdIllI2yMKRmQBgadPf/rTk8uggU8zSIphOF0MdqKiW6RYM8XgRhJckkBqwaYZbKGiTS+4NQh2FoKvQRgDSFqCgDoeuz129IRyUWJEEvXhhx82oWLUzQjpsfiee+45QyA+85nPGJU0FiiPhyQg74wEL4sKtk7kAGbOd5w/euvf+c53jNgTIT4Wrj8mlwUsQSByhMMmWoT897333msI45NPPqmuri6jwkg0AYJAVAriiMMHF4888ojZGSLBu3r1avNcbhJEqogkIA/NTQBMIUEOfnFypMogqP6YXBawBAGfAqaIFhGxZOPx2te+1vgdcIf/QuWTtAE+CCLxiU98whjjT3/6k5CEJmoA6fzxj39sfBt+DAwS1SIdhvw4ZJZoJwfRBfzfZD5qEASr5mjrD4ge8PNQbY6uqYbdxWBrEXwXwwRCml1UOGsKDkkdsDtD6hSnTigPJo2TZ0d37LHHGlKAY2YHxwL7h3/4B8PIcdoweRbl17/+dRPy428we0LOOH92esj6svgIAfI7f0wuC+DMkWeG/IEpUlHgiR0a5BP1RjBC+JYd3sKFC43EMzd/HD7hYGTCqTuAXFLzwuMhlvybXSDEldf413/9VxPZAmtEqJCHJhLhj8llAUsQiFiiDEt64PzzzzepBXwRtU74LjCFzyECAFkkfUBEgNoFNjD4p//93/812HrPe95j0g7//u//bkgm5OGQQw4xOCQtwd94Lhsi/j6ZjyqjlokcuDUItYoUrVDTNjLPwVHL1n7ukCS3UNFNMdhCRXcGgk0xuGqOvkhxHFBJ2JZFxA1/3rx5xkFbWV77dgAUzJrFSj6PgwVJSJgbgD14HjtCfsff/FGfFqCmAEdMVIEalMEwBamwGPKYqk+8DOdTE1WCILLzX7BgQVVM2QgARYoeU4NbNSDW5HYx2DHLliQQQSCaEBRrqkYS+gsTq4k18Y7cAkVXrMnWH9TqYvBzEIazSnbCY1h45HzJ9/nDW2A0LACm2P1RAOYPb4HRsMCvfvUrkxY97rjjRuN0dX2OYUQQ7LCk4ByEakOSBrQ6BsWa3EhCLTVHV4shOEnRRxDqGqr+w3sLeAt4C3gLjKUFAl0MtDnaWQhEDQYblGSHJAXnINi331+DYOYuV35rOxesDkM1uedqXQy2QNF3MYwlOvxreQt4C3gLeAvUrQVqtDlCFKp1MRBFGNGgpKHEmmwnQ7UIgp2D4LsY6ham/oN7C3gLeAt4C4y1BWqINdkuhqAWw1BdDG6gYLvFmmyBoqvFYNscIQf87LUYxhoh/vW8BbwFvAW8BerSAlXEmmyawRVrssWKFCi6cs/V5iBsk2Jwaw/42aYZbB1CsIvBphgsOQh2MXg1x7qEqv/Q3gLeAt4C3gJjbYFBuhisiqNLEEgzjFoXg52BYEmCGz2wok0QBJte8BGEsUaHfz1vAW8BbwFvgbq0AO3okUjkdkl3OkJNpBhskWKwi8HOP3CJgmu7/qmKwS6GamJNPNElB65gE8SA+gNXrMlrMdQlTP2H9hbwFvAW8BYYDwtUIgg/kVSti8GNHrgpBlfq2e1k6B97sD1tjnQzuOQAYkAEwWoxuDUIl5x+9uK6GZQEg2OyICNoyQdN9ANtBr7Wr18/0d/qgPfHYCfGpvLeJ/sBphDL6uzs9JjaiRebwU5gqh6US8EUeheMKt4V/BSaL1yXXc1PMdhp7733HjNM7UAXg5tmcLUYWHED1Bxtm6OtPbB1CLbVkQhCtS4GSxDcLoa6a3NklCgCNc3NfPSJf/Be+drVVM4QasHJMVJ1sh9cH3C1q2CKmw6COrsappgKyRfjxCf7wTViPPuuginIMWtgV8OU1ao57LDDxgRS49XF4M5BsBMVh+picAcl3dDd3TNiA52yaKE+fetHNGXKxN8tEj0AFCjcceBwYJGjOZ4YFT2AgL4C44+RRuVmyQ6Ig7/zN/ua9vH8Pfg3VNAQ0WG+Pgc3Xvt4Ri/bc4744gWeyPtl9893nBP24TV4v3wmXtu+pv039uPvPJbncjAemihNPThzdnrYC9U6DvDFtR1NTIEfvkaKKd4X14kDPIGrscIU8/jBqospu+a2B1OcB2KD9PRkPzZs2GDWEBMMLaa49vYajsbnB0+sZ3CKbVnvg/kpi0HWPz9z7ez7IYKGlPiuhikwiZDekUceORomHfIcw+xisMWKNsVgowfVpina1xxSrMntYoAwDEesiW10XXUxBAkCojUIJDGLHseOehmP4UKiZobz53cvvviiUcVDjASmzHNwViwsboLLli0zRIDHIH+KwhkHwjYInvA8biB2MSJvCjgRz+G1UdnD8SGgAwl4zWteYx4bJAjoNrCoeRy7c0SdeO2DDjrIvBfAzvtB+GTOnDkm5MdrEepHYAdhH87LZ4Q1s0vhXHweHARz/FnkiEAxf/1nP/uZWTw4Kz7bs88+a4RacGDMXEfdjfMfccQRRhgKjXjkgOuZIKC4idIhhMliCgfKdWMMMj9jQ4sp7M91AGfsxMAE14brio15LNcOXEHAEExCMIfIBRi15AzSy2vyfLAApsAC1wKxL6SgcehBgoCoFxjkMaj0IerE64EJzgeGeD9ce94/GOPGhRww75H5/LwvsMrrsS7AO+cCU8j8IhX9jW98w4jxoO7HeHHeF6/xt7/9zTwWTLGGwBTnP+aYY8z8fxQA+Wz1TBCQR2Y9c2PmmoAV7IWvYFw765n1yTXfZ599zLXk79gXos6/8S9cL64VmOJ6If/NNUKgC7lwnsPr4P94LVIH/IxwHP6K5+N3eF2wipAThCFIEFD9RFiOa8xrIUzHc3nfrAP8Ku8HTIFhfCrXmC8ehxQ52MePIhZGRIXXAyfI3X/hC1/QOeecY3RsPvvZzxrfw3hxXg9fiHAd7xPs8vnAFOdGgfL22283SqX443EiCLdJuqsi0mTrEGpNUnSLE906BDc/vk2KgXtPcFiSlXi2322qwXYvuJLPddvFECQICCYRFsNxnXbaaWbxsBhw8DhgAMSiwRkiqMTfcZA4KxYJDhPQ3XXXXeaxSJ4C5D//+c9GnpkFwU2CRcSi4ObJAsH53Xfffeac1oHjaHl/LILLLrusKkFAZW/x4sXGSdx9993m5s45WWA4CA6cOQuefC03BN4PqmssPBwIC47Ho82OLDQOAQfOe7rnnnv6b0TYBeU1+x5bW1uNw8DZ8BxkXcnfWYEWdhDvfve7zcKrZ4KAYBJ2wYmdddZZ5ppwA0Y8CaeJ/biJkrMFP9wUwRQ3dpwyN0euFyp3XOePfexj5jr/8Y9/1OOPP24cLo/j4HmcBycOkbv//vvNDZvH29cEd9w0rrjiiqoEAYeJo+c63nnnnebaQSghLdxg7LlxxmAMQoLDhkiCJ4gOzp51Am6/8pWvGMzwd+b3Q8J5DMQUAvHggw8aoso643X4/KwdPjeY4vPxGtwIeB5qgNxE6pkgoIcAEYBssXmw4mx2bXI9IAJggfXHOgUb4AC7479OP/10I9eN//nwhz9s7IlkPAQNfPA48Ibfs8SA68pj8If4EXwer8m5wdmVV15ZlSDgf5Ct5xr+4Ac/MM/jZ56HX+E9sLn56le/am7ofB7WBH6Iaw6u2HRAPC699FIjOc36OeGEE4yyJJjiMRy8R3DPmuPzYgP8NOfkc7Nu7GvwN0jJ+973PrOxGSeCMFgXQy01Rxs9KC/8V6Yp9/880i4GG0mwXQy2QLEutRhqEQRulGibIzt66qmnmpssN0tYKfKlAAqH+9BDDxnH9+STT5rvOHGcILsybsjcdAmnshCfeuopvfOd7zQyqfwNkgCrXbJkiQEzuzQAj8Pk9XC+LCwWBIuHIxhBsASBxX3HHXeYBXfBBRfo6aefNk6U9w7r5t8sFhYZNyUcCA6YiAYSv+xyeQ98Rt4zpIRFxOLEFkj7IufL58dZ8745BztDPh+7OsgAr82C/973vmecPjbkc3qCsLexI9EjbM514VogpsS1/tSnPmWiAJACdjv8/ZFHHjFOlR02mFq+fLnBBHhgN8X1xpkjycyuieuHrSF8YAr74zS5Efzud78zrwdB/da3vqWLL77YEFmuZTCCYAkCeCOawI2A3RlRKG42EGcc9V//+lfj6MEJJIcbEg4YcvzRj37UyJJz04C4Xn311ea9897AOZGpt7zlLeZ9g23eB7jhHOCKmwc3GzB10UUXGTwSKWEnedNNN5nP6QnCXIMpbAQW8D9HHXWUsTtEjk3O29/+dkO8IJJgCsIFoYD4cf3ZSWNb8MDOmt+DO+ThkYS3cvRcNyJWkAGuH3jAV0BCuW5ghrUPkeVaBiMIliBA/vBZ4AUccU42NPwMoWQjBTHFP+Iz8FlsRCDZ+Knf/va3hhiBKXwOj2P94Bch4DfffLM+//nP9/spsGkjcpBPCCsEk8+LjSArbG7AIpgaa4LAGguFQpYgED3gy5V7HtUuBrfVEQLhKjrW6mKwRYoQBOYg1FUXQ5AgELpjUQAcHBPsGXYKuNhR42BxuvzuvPPOM4uJiACg5WDB4eghBLBTwnQsGB6P02MB4/B5LguYmzg3W1gvGuosHBwmIVcYMosdJn/DDTcYAAcJAjdiGDGOGS11bgywZ24KOFCiFu94xzsMgWFBENblRsIOgPfOY9gtsuB4HN+5SXFj57Oy0DnfJZdcYhwGBIf3BOGASLD4ICA4IN4DC4/dBwuamxihRBxIPROEBx54wFxLnDgOijAnN2zsQ/iea8F1xWY47yeeeMI4KqIJXPPnn3/eODXC6+AQTIEJSB07Ixw9OLjwwgsN+eQ6gCfszk6LGwTY5YvXYvfJ88EL5C5IEHifXHNei8eAd6Jb3IDY6YGbd73rXYYggF0iCRABdvpEmCDOrB2icW9961sNCeI9EMbFYXMjAENEvj75yU+a9cL5+dxENSAk2AiixM4VQgRmsQ83GEg0kYd6Jgjc6PEd+CnSeOCHjQUH1wl/hA1JCZ599tkGQ6xrNgX4IVIJ73//+w0B5AbMhgcsgUsO1i03/de//vX68pe/3O+78Alf+9rXzLrHl+GruDb4NzB1zTXXGKIRJAj4PM7Na4EpfAb/ZvcPIYAYgHHwA5EFU9y4wRefi/XAe4Fcv/nNbzZEgY0Or2cjoBAWMPVP//RPBp88D4xCNG0xOhs6MATOIBc8h3+zhlgzY00QanQx2DkIkAXqDmwNgqvFYOchDCuCYPMPpBMMKZHkdjG4cs92WJLb5mijB3XXxRAkCNWqSmxbETd6exCuYkG4f7NFY7aAr8IOq52yHBMqlcyXDeXhmNmhsSi4ydrDFjhWiyBUOzlOnEXnnt8+zv2bfX/Bx9nPVuuNu4/nfIQc2Umy+G1Rkv189jXqmSCMJ6a4gXBT4MbMDbwapoIEYbwxBf5w7rZQjt2l+74tpuqZINTClPUnO8tPsRmymIIssOmohqkgQdheTFXzrzvipzgfpAqSBCEgdVENU+NIENwahFpiTUNpMRi3az/XK3erMiFwf+/KPdsoAt9tesGtP7Cjlm0dQl0VKRIih02zcx/vg50XiwAG7pKR8X5fQ70+5ABnzW5vsEp9dhr10ObIzoYIi8fUUMip/ffhYoqISD10xrBjB1NEYsb7YK2zMSASsSv5KeopeO9sZAbzU0TDxqozpkoXA9EDSxCCYk1EEGwUASIwoi4GG0WwUs/2+3C6GOpy1PKuMHhkvJ3CaLz+ruRMdvTzekztqAWH93yPqeHZyT9q+BYYS0w5BMGOWoYUuGqOtkiRVEO1FIMdklSziyEYUQiKNdkhSdW6GKxgkx237EctDx9H/pHeAt4C3gLeAt4CO2SBYYo1WYIwmFhT1RRD/+xlp+6AB1qhJtvm6BYpuq2OrhZD3RUp7tCV9U/2FvAW8BbwFvAWGKEFAhGEWl0MlhxU02JwdRjsuxgwB4FfDlaDYFMMwS4G6hDcVse6bHMc4XX1T/MW8BbwFvAW8BbYIQsM0cVAuqHWHATbxTBkisFqMVii4HYw2FZHt4uB6IH9smJNddvFsENXdxyeXCoWlc9mDCWMxBoUDpfH5Y7XAcDzuaxCobCiMTioy1XH6135190eCxhM5TJCqyza4DG1Pbbzj61ugQGYwk9VxnqPl73MCO9cVppgfsohCHQxUHvgFikG2xzdLgY7RTEYQdimi2E4Yk3V2hxtBCHYxbC4ntQcxwuwI3ndUqmoLSuW6rkHfqneZF57HHyo9jj4cM2Yt7sikbKuw1gdADub6tOW1S9r+TNPaMEhR2ifQ4/Zpaqax8pWE/l1uI5bVi7V8w/cq55ERgsOOlR7HnK4ZsxdoEhFK2Ss3r/BVDqhjtUv6+VnntDuBx2mfQ8rD+byx65jAa5jx+qX9Nz9v1R3PKUFBx+qPQ8+XDPngamyNstYHbyXXDqpLWvKfmreAYdov8OPmzCYqkEQbJGiW6DIz0O1Odppyph3SC0Gm1qwtQi+i2GsULmTXgcG/NzvfqK/3fMT9WXZ7sXUutts7XHQYTrg6GM1d+8D1NjcUp65vZOcKu+ht2OjNq5Yqg0rX9bGVStUUkSvuf7tmjVvwU765P60O8sChXxOz//+p/rbL36seKZoMNWy2yzteeBh2v/oYzVvHzDVunMxlc8pDqaWL9WGVS9rw0owFdI5175VsxfstbM+uj/vTrJAIZ/XCw/crcd+fofi6UIZUzNnaY+DDtUBRx2rufseqKaxwtSKFyt+arkKxZDOvuYtmrvnKzNmdpIJhn3aQJsjExS3p4vBijYNKvds34w7etn+bCMH9rutQ3CjBzaC4GsQhn1Zx+eBOPPnfvsTPfnLO5WIp5QplJQqlpTL59QQa9K8/Q7QwgterwOPPdkQhNEkCcViQV3rVujFhx/Qy0uXqqNjq0qFgtpaW3TSxVfqVQtPMWkGf+xaFsCZL7nvp3riFz9SX29yG0zN3Xd/LTz/Ih143Cmmd3y0MdW9YaVefOh+vfzCUm3p6FSpkFdbS4tOuOhyHXri6aOqgLlrXZld990WCxCEX+jxn/9Afb0JZfKv+KlYtFFg6vjzLtLBx59iUg+jjamejasMppYZTG1VKZ9Xa0uLFl64WIefdOa4pzuCV3aQLgY7ZtmtQxisi8FtdexP9rpdDMEWRzeKYNsc7ZAk28kAQahbsaZdaRlyk375j/fq8Tu+oyQDU4pFZXJFJYpFxbN55UohRVpbddSpZ+iMxW/QtNnzdqhGwaYROte9rJVPP66Xnn5KWzZ3qlDIqzESVltTzISkT7riRrXP2G1XMqV/rxULgKnlf/6NHr/jW0r09JYxlS8qUXAw1dKqI089XWdc+gZNnz1/hzGVS/Wpc/3yMqaeelKbA5iaf8DBWvSGmzRl5mx/nXZBC1B/sOLh3+ux79+mvu4eg6lsBVO9xk9JkZY2HXHyqTrzsis1fc7uO46pdEKd65Zr5TMWU1sF+S37qajm7XeQFr3hZk2dNWdCWbTKHISh1BztcCRLFKpFD6qqOdoPbrdx1doc7TRFyIGdgeAjCBMKMrXfDMx8xZ/u1dM//q7SPXFFSkXFwmFlsnltTmS0JZ1XkshBc4uOOukknXnpGzR3nwNHtPhIJSS7N2rjS8/o+Ucf1vJlK5VOphUrlRSLhBSNRtTU3KgDTzhNJ1x8tWKNBKD8satZoFgoaNVffq0nf/Rtpbp7Fa2GKYUUamnRkSecYBz6vH0PGhmm8mBqkzZVMPXyS2AqpVipqGgkrBiYamrU/scv0omLr1VDE/sWf+xqFoB0rn74d3ryjm8q2d2jSLGohoqf2pLMaHMqrySYam7W4QsX6qzLrtT8/Q4Z0c6+kM8qBaaWPavn8FMvrVAqEcRUg/Z99YladPn1ExJTlQjCTyoTFG2hopV7ttMUIQTDbXMEMv01CNUiCFaHIRhBcDsYXC0GG0GoOy2GsV18NgI0sqIrbtov3f8zPXfXD5RNJBUpFNWkkMLs+jJ5re1Jal2+qHwsqqaZM3XCGafpzCtvUOvUGdt8zGphPTPrHLaf7lOiY6261i7Vi088reeefVGpeFKRkBQ2X2HFGqJqb23UISedqYWXXK1YAzzTH2NvATequP24Im217IGf69mffF/ZvoTBVKNCihRLymRyWtuT0rp8oYypGTN0/Omn6qyrblDbtG0jRkNiaus6da1ZqpeefFrPPbNUyQGYCinWEDOYOmjhaTrxsms9psYeTJVX3HFMLf/jL/XMj7+rTLxP4YqfAlNZMNWb0tpcQfloVI1g6rRTdOZV12vKjG0jRoNjKqHEVvzUi1r25FN69pkXlexNOH6qgqmWRh1w/MladPmbJtxGpkabYy0tBneS4qh2Mdhpinx3hyS5cxAsSfBdDKO1MLnhmnOVzP9h1kQBTJtisWD+Fo41KhKLmR0ZOXxTO8BTqhQZ5rNpPf/LH+iFu3+qYi6jaLGkYianfDKrUL6odK6gNdm8enDwU6do5oJ5uvC6azVv7/2Uz/Qpm0oql04rGoko0tikWNt0tU6bpWiswbS4cf5kd4dymV4ltqzWuiVLteSFlVq3dpPy2ZwiYXZ5ITU2RNXSFFNTQ0yvOvU1OvGSq8w5/DEGFqiKqYK5dgMwFY1V8rtDYCqX0ZJ7f6glP79TxWxG0VJJxXRtTM3Yfa4uvOYazd/vAOUzCWVTCeXTafNaUYOpaWqZOtu0SwJwg6meDuXScSU6yph6YckKrV27SYVsztQYWEw1N8XU3BDTwYvO1KJLry2fwx873wI1MYWfyr/ip4aJKTYyL/zmx3r+pz9SIZM2mCpVMKWKn1qbzaubzQ1+av4cnf/Gq7XggIPLmEpXMBV2MTVLUTYhBlMZJXu2GEwlO9Zo3QtLtcRgaqMKmSqYisV04Imn6eQr3jThSGegi4EiRZtiIHIQ1GIYTheDuXtU62KwQLJ1CG70gJ9tgaJVc3QLFSEHkIW61GIYzRWIalg+3adMslfp+Fal+3rMzTwUbVKksUUKRxVSScV83hCGUqGoEMVf4YjC0ajCkaiiDU1qaG41C4L2RX7HY/KZlJ77+ff00u9+o1A+qzYen8kr3ZdWZ09SiWxevYWiehsbFGpvUbGpUcef+Grtuecs9XV2KNWXMK9Lbo5FloPZt7Qap94wZaZikbCaGyNG9rVr8xatXbNBazZ1KtHTp1ChaBx5jBtBNGzUIptamnXcuRfpxAsvG1F4cDTtPpnPZTGVTfYqFe9UOtGjYjZdwWOFm3cAACAASURBVFQzLHOYmGox2BqAKUjn3d/XS7+9V8pl1RqNKhLAVBxMcbNub1ahuUnHn3C09tp7ThlT8cEwNcPgxWCqIaauTR1au2Z9BVMJhQqFbTHV3KRjXnOBFr3+SoMxf+wcC5QxlVAZU1uHxFSxUFav7fdT4YgiDc2ma8r4KUMeyn6qkM1oyS/v0NJf3aNSNq22WEzRbEGpvpQ6u8t+Kl4sqTcW68fUsccfpX33nad455bqmGpuVax9qhraZ5pUVHMjUcxGdVs/tbFTfcZPlTHFJihW8VONTU06+uxzdcriq8e8HXyoq1dFrGkwgmBTDK7Uc7VJigNSDC4xsOwhKPdsCYJtdRysBqGu1ByHuoDD/bsp6Ev2KrF1ncmz5lK9Kha4niGFG6cq0tRuBhtBDsibUbhD/rdUqNSYELsPRcwCM9GGfN6QCXrRo9GYQrGoSsWSVv/xN1r1lwelbFbRbF6RfFHKFdTbl9bG3pS68wXlWltUbG8yi7CttUlTmyNCppX3SK43HIsoykIuFsuRgyIYK9cVtLU0qbGxRamc1JvMqC+ZkTI5qVQwUY6GaNh8RaNRtU9p1znX3qxXnXDqcM3kH7cdFngFU+tNPcgATDVMVaTZxVTORBCGhSlIHlgEU6WS1vzp91r15/tVyjiYyhcV70trQ09SPfmCsgMw1aipzdF+TEUiYUVqYiqstuZmNTa1KF3BVNzFVCiihlhYDZHyoC0UQc++9iYddtLp22Ep/9DhWqBceBw3firVvdH4rH4/1TBFkeYpjp8qY4pupeJQfspgCj9VnnOw5i/3aeWD96mUybzipyymepPqyYGpZhXbm42fam1p1LQWi6miIYc7gqlYBVOQCdQbz7rmRh1xylnDNdOYPm4UtRjsHIRBixRrRRBcsSaiBb6LYZRgQN4+0blO8U0rTdQgl+kr34xjzQrH2hRpmqJopeCqVCSNJIn0QCFvvkw6gSxE0fxHsHWjBhgKm515OApx4PEldTz7N637y4MqpNIqJLLK9KWVSmVNoWJPOqduIgRtLUo3RRTPl5RDPjoiRagbiIXV1BxTLBo1FSzFYkn5QsmQEtNQWyopHAoZ0pAphFRQWA2QAorISjLPI3oAQWiMRTV73311+Xs+qrap00fJkv401gJgKtm1Xr0bLabiDqZaFWmaqmhjswkmDsBUMV8ml9tgqiQGbQ3EFBgoquO5J7T+Tw8qn0qrmMgYTCUrmOrN5NSVK2Mq0xRVb77YjylqUbi5NzXFFINsmPdSUm6EmGqIRTVrr710xfs+rvZpHlOjvRq4/snODYpvXGH8VDZjMdX0ip8iylkLU5XGuVf8VG1MbV3ytNb98QHlkykVk2VMpZJZpYkeZHLqzOZVaB8+pvBTGoGfAlMzFyzQlR/8pNqnbVuLNdo23t7zVZmDUK2LgZ2m/XK7GKzks4kY2NRC5eeqbY62OJEn2PhccAaCrUNw6w/caYq+BmE7rjLRgL5NK9W3ZZUp7stmkipkMoo1tZhwXCjSqkby/FGbTy2WyQGjYEzur2hu1BADbszGiZdCCplqwJgi0Yhx9qVcWul4n3peekYdf31EqXifGnNF5ehe6EpofU9C6UJRmVBJ6dYGxcMRM7MzEg5pt9YGEx1oaIgq1ki9QUnpbMG8Viov05VQKIVNJMG8o6KUzpfE3JypDQ1qZ6wz9RLhsKk/aIyRXmjSa298uw478bTtsJZ/6HAsYDC1eVUZUykwlVA+k1FDBVOKtKhp2mwT1i1XrAQxxTUER9UwVY5KUetStJha9pw6/vqwkr1xNYGpJJhKakN3n1KForKhklItDYpHI0rRouZgimLVhgCm0nkpWsEUUSpQxduhHz5dlKY0NGhKAFMNFlPXv1WHLzpjOGbyj9kOC5QxtVp9W1ZWMJVUPpM2Vf3hcFSlSIsap80uRytdTJUYWYVXsJiCFFSIQb+fAlPlGirSqel4XL3Ll6jjkb8o0dunplzBYKqjK6n1PX1K5V/BVF8FU+FBMVUy/ghMFRVWvuBgqlASs5iCmMLXGT/V3Khz3vR3OnKCRg9MyD8Uuk3SYF0MtoOhWhcDxMBNM/Q3LbiDkVyoBCMIwxVrog7BdzEMc9GVR3gmFN+8QunuzSZsR16fIhtSBRRssVtrnLq7GpvbTCSAmgMbPYDw4cS5SZsBQyZiUG4TMP8Okecvh4AL2bQyfb3KpVOKr1mmrsceVYF6gr608smMGWe6fGuv0lQJR0JKNEaVjkbU2Nyg6VOaFTMFjyWFI+UCw2IpoiypiGJBmQLoCqnAc3MF89rsAAsKmYXcFA6pPRxSlAhEOCIKyVpbGrRg/wN1yXs+qubWtmFazD9sKAv0Y2rLCqW7NhvCSZEfueIS9jcRAzA1v4Kp6A5jigLD+NqX1fnYIyrE+1RMpJVPlDG1YmuvUoWSslEwFVE6GlVDU4NmTG1SzAzFKmMKZ1wCU4WCcoUyprit5Ikm5ArmPbuYagyHNCWIqeYG7b7//lr83n/0mBoKKNvzd1IKmYT6Nq9UqmvTQEwprBiRTTA1Zb4aWtqMzxmWn6KYmnSo8VMR476sn4J4xNeuUNdjDykPpip+qiee1vKOHoOpXDSkPgdT06c2qcFiKlzBlAbBVDisXL7sp9J52ihrYGq//bX4fRMXUzvQxWCnKA6p5rg9WgxDdTF4gjDMxUcRIi026Z4tyiZ6lc9nzcxvKniZCdDYMlXR1qmKtc5QLBozoVdyfSwqwsdmEZrmBq4v3IBqc4qAymmF8lTCkLlB5JJJI4jEuVOdG7X14QeV3dqpQk9SfV192tyd1MZEUl3FkgqxsIqNUcWmtGi36a3mZp7PF5RJ5xSOlMPB7BhIJyTTWeVCERVKMWULJXXHE2qISrkiQ79DyuZLZgrZFNIKkINY1BCMtrZmnXXVdTrm7NcN01r+YcOxQBlT65Tu2Wxyw/l8TrlUooKpxjKmWqYp1lbBFB0HeTAVUYn6g8EwRTQLhw6mcmnlEikj0FTG1CZ1PvpHZTo6VOhOqq+7T1vAVF9SnQ6mou0t2m1Gq9qqYipCYGxbTPUl1BAZiClSIFMrmGqKRtXUGFVrW7POvOKNOva1Fw/HVP4xw7RAxtQbrC1vYpK9oq2VbqZCLqNYo8VUxU+ZbqaRYipT9lPZCqa6wNSflNnSoUJPQgnrp/oxFVKxMaZtMFXpQmhsiikSLmMqlckqq4qfKlb81BCYamws+6kzLrtKx523eJjWGvuHjVcXgzsHwUSHKykHW6RopynaYUm2xZFpN75IcQic5LJpxTcvVzYRVzaVUs5ED1KmPSccjam5rU3NbTOMM482tiscghwQ0i/ni8uRA5NPMN9DFA5W2hxNbqgSAs5nIR0pFXI54/zzqZQK+Yw6//YX9S59wez24h29Wr6pR1tTGSW5uUfDCrW3auZu7Zo9o10tjVFxHlIKtCk2NEaVJfpcKimezKkYbVEx0qC+dFrdPT0q5ouKxsIqlCJmF5hKZ9QelpoiETXGYiIUvPv+++nK9/69ps2aO/YrapK+Yi6bKWMqGVc2mXQwlTTdLc1trWpum7kDmCqTToimwVQ2gKknH1bvkudVTKbV1xHX8k3d6khmlMQRx8BUi2buNsXBVM7kk0k3NDTGAphqVjHSqEQmo67u7mFhav5+++qKd39YM+fuPkmv8Nh/LAhg76YKpmhxThKRSiqbrmCqtVXN7TMVaZmqmPFT1CTip5iHAuGs4qdsITV+io0Mxc65nDnnK5hKq5BPq+upR9Tz/HOmBqGvo1crwFQiowR+qoKpGTPbNWfmlIqfqo6pvmROhUizitEypvBThVxhGz/VFpaaHT81b999dPktH9Ks+XuMvfGH+YpVuhisUJOdhUBagaFJfCfV4I5atvUIwWmKvPqwxJqs3DMEwYs1DfOiDfYwigr7OtYo3ddtnHk+TS4vp2wuq2KBPHG7cZhNU2eoqW2GQuFomQgUiyqww4MSEzcgtcD/TKiuPI+8/FWOJvAoHDkRBBZtLpM1xWexpiZ1L/2bNj74gIrxpHo29+jFTd3aUMgrG5GK4bCa2lu11x6ztNuMNkVDUiadNjf7ArsD5JlpcSqW6xDSalC0qU2dvQklEgkV6U2PhVQIRRSLxEz0IVYsqCkcVjQcUdvUdr32mjfp+LPOnXAtQ6NwecflFGCKXV4q3jUAUzmiRgZTbSbPD6Ya22aYCJDFlHHipgvFwRS4qsy4t4NmqB+xmCrkcOAVTOVyijU3q+fFJ7ThD/er2JdSz+ZuvbixWxsLeWUMpkJqbG8zmJo1vU3RcEiZdKoGpopKK6ZoU7s6e/uqY4pWtIKLqTadc9V1OuGc88dcQXJcLvgYvGg/pvBTRDgrfspiKtbYpgbmTkydOQSm8BzEnQbBVAbCGcRUk3qWPa0N9/++H1MvberRBiIYUfyL1IifWjBbs/BTNTBF6jOdLSpdipmuna54n/pIrwb9VKGgaKGg5oqfam1v1dlXXaMTX3Oh6a6YqEcNNUdLDpiD4Co6uoOSbKujJQfudKsBXQwmQu0YYDhdDMEIApEDL9Y0BIrYxafjncrEO0z0gHkHhOvyFOHkcuX2oEjU9Hy3TttNTe0zygWGDisncNBfcApJCEfLXQq2MKhCGowDzxI9oK4hp2KOG3dMsdYWdS99Suvu/YUyHd3q2NKrZR292hKV0iEqyCKaMqNd++81TzOntpoCSEJ0yVSm0taYVy6XV7YASZD6MiU1TpmuTKGoVCKuZDxNFZoKFLGV3YJJLZgQUzSi4846R+defb2vMh8lj1PGVJcy8S0VctBnIggWU0Sk+KIYkKFWw8NUeaZGbUxllYdwuph66Wmt++Xdymzp1taOuJZt6dHmIKb2nKuZ09qqYyqfN/P2t8VUn5Lx1ABM4a5aiIpwk4iEdewZZ+m8a27UlOkTr8p8lC7zmJ4G0pju61SmdwhMxaJqmb6biSJQS4BQlp2maiKctjDe+KnqmCrSAmv81LaY6ln2rNbe83NlO7q0dUtcL3X0anOkZAqpS/ip6e3ab68ypkjBpjNZJfr9VMGI0OXomhngp0oVP1UdU00VTL36tDN0/rU3aeqMmWNq++19sRF0MdgIQq1JivYG47sYtvdi7OjjKURMdm9WLhNXIdmnXCZtdvbs0Au5lMKRJhPOb9ttttpnzjYLz7SgVap+C4VyvYFpI6r8bKYoMhDGEoeKIiLDRnIwc1N7UJ5mxmQ5ioo6ljymdff8XMkNW7V2c4/WJXNKNkSUCpekxqimz5ii+bOmqaW5UaVCSNliWJlcQcVIWMollOqLK5UtKJkrqBSOKdbSzsmVSibV09tbHspkOhkKprVo9pR2zZgyRcedcqpOveASTdtt1qgqsO3oddmVn0+XAnMz8tm48okhMDVjtpqnzDDh39HDVEzRxhZ1vvg3rbv7Z0ps6NC6CqYSLqamT9G82VPV2txkMJUrhpXO5VUEu7mE0n1xJfsxFVWsZYrBFFoL3b09AzBVCoU0Z+oUg6ljFy3SqRdequmzZntMjRKQSXUaTGV6q2AqWfFTObXNnKW2mbPVMgU/VQNTphuGtCdEdQg/ZWatcNnBVLM6X3pS6+7+qcHU+s29WpvIGj+VxE814KfaNW/WNLW2VDBVCpu0VTFCDqKvjKlcweCqFLaYiimdKqdDX/FTRRNPL2OqXcectEinve5SzZg1Z5fAVCgUul3SnZUpikQPmKjoajEM1sXgFinaVseqKQbLHII6DMPtYiCCwCTFS04/e/GN3ahwjfA4ZdFCffrWj2jKlPYRnmHiPc30EHdvUTq+2RTiFCEH2awyyT5l03HlMhkTtmXXNn33fTV1zu6KNbWZQSNEEWDahP3M1EQSSfm8AW+0saHcZmTaHkkcwR5KZmoiBITnlP8WUqiym+xZ8aw23f9rda9YpxXrOtQTDmv+gfuoO53W+k0dmjG9TTOmT1O6FNHU6TON+mJPT1wz5sxTS0PUaCz0JhNKpnIqhKIqxFqkWJMy6Yx6ujpVCkvZYkh92bxmzZ6la6+7QUccd6Lf4Y0yLNk9MDI23Qum0g6mEsqle5U1mCKOI02fv08ZU83tAUwVTEvsDmNq5fPadP+v1L18rVas32rGdc8/aB/1ZDJat3HLAEyx0yfy0dPVqxlz5pv8cde6pepNVMFUJquezq2mCipTDJkpejN2m2kwdeTCkww+/TF6FgBTqZ4OpXohnRZTOeOn2Nhk2cyMFFOVrqqh/RRR0Qb1rlqiTffd2++nGK0MpnqzWa3dsFnTp7Vq5oxpyihanqVSKqm7q0fTZ89Ta1PsFUylcyroFT+VzWTV3dlhOr6sn5o2Y7que9ONBlPTdiFl2RpdDNQhWIIwVIqhsuusTPUvQ2mbQUmuCpCbYrA1CHYWgivW5I5atukF38VQY62a2oOt65RNdZt8HnPr8/miUvFeZZLd5Tx/Pm90FWbucaCmzdtLkVhFwMgMRKLoh1ZGLl85X0zkwKQlKhoMJpccLqckqF7P53LlSAMrkhHNlfqEfCap+OqX1PXiUm3e2KHYlFbtf/LpWr/sBb30+F/V3NysQjiqZ9d1Kp3OqDuRUiKT1VknHKf99tpd2a5N6u3cZOomuuNppcPNShVCymQzSvTFTWivFIoqVZCOPPYYvfG667Xb/D3LbXb+GDULcJPt27pW2WS3IYSQTnq8DaYSFlMFRcywlwM0bT6YqqhmjgqmbO0LY7yTiq95Sd1LX9TmTVsUbWvV/qecro3LX9TSxx5Rc1MZU8+t71IylVZPIqV4OqOzTzhO+++9QNnuzYp3bjIYAlOZcLOSYCqXUSI+EFOHHX2UrrvhRs2ct+eEVNcbtQs8DiciEhDHTyW7hsTUjAUHaDp+qmGkmCoK6e6BfuoVTBUyKfWCqYqfirS16IBTTtemlcv0wqMPqampWaVIGVOJZFq9ybR6kmmddcKxOnDvPZTtsZhKq6cvq3SoyWAqm8uoz8EUcxAOPvJw3XDjzWVMNbPP3TWOGl0MtcSagloMttXRLVLsr0UY7hyE4XQxWILguxhq4IpQf7xjtelWYBgIegbZREKpeLeSTE9Ml9sQG9umafbeB6l91jxFY42GCEAcyrk9Zh8QUSByHzFFfnQwkP9jqI3JPtDaQ6W5KfzJmqJCHs93Ig6RSKz871zOzDyntZKCydbpu6l34yptWvYcs5O1uSejPz633Dj2Z5evUm8iqfMXHauTj1+oUDGtNAQhk9bWrh51povqS+eUzGaVSqeVSiQUaWhQIdKgmXPm6oMf/YSmz5pbaZPbNRbervAuaVHs3bKqjKk87WEFZZN9ZUz1upiaqll7H6QpBlNNI8RUrlzTkskMgSm6HEgZlDEV37RaG18CUwVt6QVTK9TU0KTnVq5Sd19S5534ap2ycKEipYxpl7SY6koXFU/nlMpmlbSYijWoEG0wKaoPf/xTmjFrnsfUKAN1G0xRI5BImDqXZG+nsmlwllNj6xTN2vtATZk13+hzVPVTtL+xianlp6gRwE9lMmX/NsBPRSuRU/xUVrmU9VMzFd+yVhuXPmMwtTWe1YPPLldDQ6OeX7laXfGEzj3hGJ16wgmKhnKmrRuBua3dPepMvYIp/FQSP2UwFVP79Bn6+09+WjNmzxuRFPkoX4Zhn65GF4NbpFiti8GtP7A/u0WKJooQLEy0+Ydag5J8F8OwL9u2D8yxw9qyyuz+yfFlKaYxN+iU+rq3mgVAW1HztOmaMXuBpszZw4iYmKgAKQYzz5yK87wpOoMgMD0MgRNzJU30AC5XMjd/2t7KM9DzxqHzO+oBzOhlcnSlomHuRDJSPVvVMn2a8slOxTevVqmQ0Zo1PVqzoUdtTTE98cLL2hpP6eiD9taRRx6plpZm5VO9SvZ0q7uzW5v7Moqn84on4kokk4bN8x4bmhpNgdBNb3+XXr3otF0in7cDl3jMn8oNO755ZRlTRhkxY5xtnoFYLqamTtf0OQs0dUhM0S4LRqpjyqTGhsAUNw9wnerdqpZp05RPdRmSUCqktXZtr1at71J7U4OeWPqyOnqTOvrAfXTkkUeotbXFYCrV262urQMxlUwm1WcwxaClJmXyRd30tnfquFPP9JgaZdSVW7BXGEzlMgllDKayJuoZ79lamamSUTOYmr27ps7FTzUN4qdGgin8Gn4qZvwUNVR0OaR6O9UybaryqW7FN69SKZ/W+nVxrVjbqfbmBj354nJt7k7oqAP31tFgqq1V+XSvUtZPxTPqNX6qT2VMpfoxlcrldePfvUMnnHHOLoWpKgQhKNY0VIphWF0MZvNZwZolCFawyUo9u1oMg4k1+VHLVRZtJl2eRsaQmQI9xQb0WTN4pLe7U4TTqEFgPv30ubtr+h77KcbCq8y/L6cYzACCcsFPmGhAeYxy+Si3OJrJiVZxMQ8ByJr2RDM2t1hOS5hhSkbQqaBCIWcqlltnTFch2ank1nWmn7m7K6mtm7tVzFJdXlBjY6N5rzP2PFBNjQ1mzn86lVQikVV3IisEdHr74iaP3BPvM5P7IAi8xjkXvl4XXHG1l3QeZWdO7zjO3AwsSiVqYooU1PS58zVjwf5mCNfwMWXGuA7AFBgg0kW6i/MYTJmR4EFMdal1xjQVkl1Kbl1bxlR3Uls3lTGVyRfUZDG1x/5qam5WsnOd0qmUkkz3rGCqx2Kql2mQoX5MnXHuBbroqusU85LOo4qqbCal+KblFUzhp8o7+H4/ZToOqH+KaPqc+ZqBn2ps3hZTxVJFhr58s7ftssZTuZgq5E1EYjiYyiS61DJ9uorJTqNdQ+NtT09KHRu6VMyVMYWfIgqC/2xubjWYyuCnDKZyipOK6Oszfqq7Fz9VxhS+9/RzztXF11w/4SSdh7rAg4g10eZIgaIlCcE5CMEUw4AoQrUUg/s7W5xohyS5BMG2OfLdtjjaIkUIwg2+SHHgZWXKXc+m5eUbdiajXL5Qnm2QzSrR22U07/PZ8lS7GfP30Mw9D+wnCOUGhXLdAQdpAqYaQibY8UHtzKITkYay2A4zE+iIIN2AM2cISXkMc/mLoUcm1UCqI92rlqlTlO/drFTPJgINKhQj2rRijfq6Gf0cVrQhatTymqbvZph935aNpo2xGIqIQSR9yaTiiZTJAXb19CiN4E+xrP648JTTdMm1NxlpaH+MngWYctez8eWBmGLHBaZ6Apiat0Az9wJTZWe+szFFkWRzP6Y2K4xYWAlMrVW8q6+MqRjS5GBqpsKRRvVt2fAKplI59SXAVFo9qZS6ugdi6tiTTtal179ZzS1+VPfoIUpGZ6F74zLjN4yfolPJYCpXwdSWV/zU3N01c++DamCqpEikwfgpCKr1N8PzU3Yy7EA/lUvH1TxtivI9m00RJQShGIpq0/L/396XBsd1XWd+3egFDTTQ2EECBHeRIrVvliVql7XLlmzttizJMiVZlhxZ3jOTZDyxK5lU8mOqJjU1ieP5MfNjxso2yZSdOI6dctU4lpc4kSyJIrE2et+X1/uGqXNeX/Di4fVGAiAbfK+KBaLx+r73zvvuud89q2c9poZGYbb2IhMmTEHVU3VMZeqYipOeKqt6ijqKXn39DXjs+ZfQ1989wfGSBaFRFoMokiQ3ayK3QrM0R10Xg8BZp70YRKMmI4uhyUwtEEEIzLPPn4p0cGwATbzKCjLJCJRYGNXqCmyOAYzt2oOB8QlY6wFlQqFz1USON6S+6SorJ0sC/2SCsMKTl7IOmHwQUainOdLnq0SCOivabNwOtVZRCzRR34WSkkA5G4VphYimGfFAEPEA/b7Cpl3u1ujoR7Vi4uBF2hk4RyZQLJU57kDJZBBXcogm0khRlkM2zx0gBUHopom3kUp3s8Yq5hQkA3O6mMqmokhHQ3VMOTE6vReDhKl6QNnWYSqJcjayiqlEIIR4IMKEV4spyoKhAk2EqVKpjFwuC0XJIKHkEEmmkaIshzqmrrvxJnzs2RfQ7xzcLPFekOMWiSD457h/h1qBta6nqivIJrWY2lPHlBp8LGNKTW0kPaUShM71lJktV2v1VEmjp8o8dlxgqiZhqrcf1ZqJXSSEqf6RcZRLFcZURiE9lUc0mUKSMJXLw2pRCcKjn3oJzgFX17z7DchiaOliEL0YhJtBpDkKoqDt5igyGeQsBlFq2chiaACtYj6LhPcUitm02rWsqmYYULR/IZ1APORBMV/mIMXJvQfhHBlmkzyfW6MmSKa6OVcN3lF9xWrDTTLfcslSMv9WKOOByEGJgw0r1QqnUJbzBfYtV4l1VypwDDg5RRKUOokyTCtl1Io51IppqpnIdfyVSBRKOMJmRovFglKxDJOln6PRSW9QJbPefrIKWFGtVjnoJxiMIpRUkMrlkUgkuEb3jbffiYc+8Tx6+7onOrgbNAS5GOIewlRqPaaUBBJBDwqMKVcdUyMbi6lCQe3LAdWtRSXCLb2EKe7EsQ5TdE46GoESinCKr9VqRXEVU1YmoFpM5bM5BEJRhBNpJCVMXX/LbfjoJ4/Dwfgzjo2SAGEq4Z3lINNVPUXWTrMVBSVZx1QJ9n4XJvYexMCohKl6GrbqdjpDPUUbDwq01sUU6amSqqdKCpNOwpQSjSLNmCquYgqWPqyYbexetTv70es8racIU8FQFCHeyJB1KsmbteuO3YJHnn0Bfc6usyDI3RzlGAT6vxykKGcxyBYEgs+6dEfZnSAHKGqJgiAIei4GueWzIAlGLwad2Uo5xTHPSRSyac5KoO08+b1qK2aO+k4ElpFNKzCbrRjfsx8Te/ZzUSO1pDLhl4IV1QxVYbZTuzaq7XNVvx7qzU7KatMUKolcJwdlvibU4MWVFTiHXLD09sLEVRor6DFVUCvnsFLOAzUq3kQ11wsoKgrXwueCTrkiambihyZYnU7YB1yoUQAT1W8wATlFQSySwHIgjGSxgjz7Fiu47qab8dFnjhu7vY3S4vVxKGhQxVRKwlQNtRUT3UP/cAAAIABJREFUB5gl/KcxNbZ7Pyb27ue0QFHlrjGmVtgixeWVm2JK1TG02NPusd/lgtVxGlMWE1mw9DCV4diUVUyZKLPGBGu/E/ZBGVMmTtmMRpNY9oeRKpaRY0yVcfUNx/DIsy/COdg9u70Nfv2bMhxZHAlT+UxSB1M5JAJuZFMZJgBjM/swse/ABmGKMhXy3M2T67hwBpYepqqolrPr9FRJybA+paqxhVwBtVVM9at6qlzm6qJU8yOfTiMWS2LZR3qqjqlSGVd+8AY8+txLGHANbYpsN2PQJmmORA7kAEX6vzbNkdZ9OYuhZaEkLTkQ8Qe0NOllMWibNRFJMGIQdJBAJY+jZEFQkrxTWilXQSZiSi7gfPZkAoVMhjmAc2QMOw8cgoOAynEHtPirrZ35BXEcARVMos+pyyJlNFAfdpUA0MLBXdhrNf69lMlxYSUuZ0q1EfgaI7D1OXi3R9ew9FCmQw6oFnn8ItVroLHK1DudFpwyCqk0uzDMNhvXYK+Vq8jGI+jhnvBm5FIpxEIRLHmDiOeKKFmsqFVXcNk11+CJ45/F4JBRCncjlQRZiWLeUyikCVOUDltFkaopVtTmXplkkqvJ0TEwPIodBw6hb4gKyrSLKbXc8npMlVDKZNdjangEtv7GmKIaIDyWjKm0wmWbzVYbHEMjqJVrazGVTiEeimLJE0BMwtQlV16JJ154pauK2mzku9+ssSjAj/QUWTXXYYr1VBIFRcWUc2gEOw8c5gwoUWantZ7SxxQRglK2HhQp66lVTFGAdlXVU5UcUFH1VCmfAmVe6GPKCsfQKG9wcvEozLZe3lzl0ikkwlEseoKIZQso9VjZlXLk8svx5AuvYHhsYrPEu+HjdpDFIAIURT+Gtts9i5tulMWgZ0FolsVgWBD0CEKljERwkdO/ONMgV+CGNcVcnls9r4DqF6h9DsjvNjI1jZEdU5yayDnCHDFOZE99TZy8sFLhlESzxQ6z2a420ylSpTOyKqnmhlK+wHnA9JMilLlao9kM5/CwanarV2Q0mWscj8ChjlRhrJBBrZzHSo3iDfLstijmsqjkC7D29cNmd0KJhvh8qthnIhdENodSOoGAPwhfLI1ksYZqbx+OXnElPv7i5zA0OrbhE+RCHpDMq8ngInLpqIqpfJEjttdgqlJh3yu5q0anpjG8c0ptGX4WmCoXityFtDGmVIuSiqkyhbLWMZVVrVS6mOrjRmVKpI4pikew1jGlJBAkTEXTSNQxdfFllzOmRsa7R5l3A1YpyDkRXOIKnQJT9K4L1N9D6KlVTFkxsnMaI1OEqZ46pqhei2ohlfUUxTn1sJ6ysfJSKzIKPUWN5eo6inAl6an+4WHuREo1D1RMEUEgPaXB1IqJM2BUPZXjzrVWRx/sDsJUmByrXMPBbLVwq/KikkDIH4Q3lgLV3KjaHTh06WWMqbHJ7uoy2ySLQQQoUjYDCZsWEPopkwNtqeVVmGrrIMhEQaQ4iiJJwpJAKY+CHNBPEYcg3AvkZDYsCDqagMz96agf+SQFI1Y4V72YyXL/AjKpUfAYpQ7RDoviE/oGXBienmHzXYXcALVaPaORiiKp5ZeJIFQreZ505h56FSZux0sTj0szkx+vWEaFCs3ksjx2kSaOvZd3kn39fRzAYzZxPkK9YAnQY7PyOFTQiVgHEZlyKce7U6qbQBPPRP3Vy/SdDKMtrygc6BOYncPcUggBJY90qcKBaJdeey2eeeV1jE5MdoOO7Jp7JEykYgEVUxV6z3kUqahNNlcP8LLDZLKwC6BaLaF/wIWhqRnYHc0wVUW1kmNMmXpsbEFYxRSl2hIR0cWUHX1DI6uYMplqHGVO+etksGiJKbJCmayolCj9N8tkl1xWhKng3BxmCVPpOqbsdhy95hrG1PiOnV3zvrrhRmkjko4GuRcDxzQV8oynQja7HlMVwtQghqYJU31N9FRzTBERIcskbT4KuSxKVII+n4PVLmGKG9LVYDYR/opcNE4fU3luhEe1OCy9DvSYbWz9ZGK6QphKw2IxIzw3j9mlIOupVLECm92OI1ddhU++8nlMTu3qhlfF90jrSk9Pj+jFQCWWRQyCXGpZZDAIkiA6OYqfNFTDbo6CKNAJIkCRvqBNcyRyQIRBBCmK+AM5zVG4GIxeDBqI0STIJiPIxIO88LIiVxSO1rbZ+3gycLxAicgemBiQi4EWcmG2445olIMoYhJWaOJl0dPTy8qczMoceVypcJAhBytS58ViCSUiB1mFFwuO6h0aRv/gAHq4y5qahlShXPpCHlZKHVtR+7qzGS+bYZ+kEqddBeAYGIAJah938u1RSWglFoH7xPtw+yKI5kpIUme1SpXH37lzEs9/7nVc9cFjXTPxuuFGVUxFkYkHGFNqZc5GmKII7742MEWYyaDHomKKim1xQS0itdRciTFWYSVOWCpk0quY6nMNczvvtZjKcZYFWZ24FkcdU2XOSEhAianWD4dzAGZTT52Ylrl8L2X2uN87CbcvvIqpHNUKMZuxY8cknnvlNVx77JZueFXdc4+EqVQMStzPm4FSjjBFfRhK3EDJZu9llxCZ9WlNIUz1ulzodw1zFhXpqvV6qhGmBLYIU9TVkfQfYYr0lJp90OcagnNwkGu+qHqqhzMsqLBcI0xl4lF2bZKeooBHjmeokJ4iTEWwfOIk3N4QovkykoUi6ynG1OQEPvny53D9Lbd3z/tSXc5ykCKRBLkXg6iF0E6ao24MgkwQtH0YZJJABEFYELTtno0shjYglVcSSIXdvAhXCJgJ8p+VeRLQBMil02xdIOMAWRQonXFwYoLNYqREqWQpZSJQ/YOVFdrN1YBqCRarg83GbH2g4kcUkFOiaopUcrmIEsUfVCuq6Y3iE8xm9A8OwTkwALuDrkPEowdVKruczTBZ6bFZeOe3whaJEtKxMKL+AAfAjUyM15VHBjZHLwqZAt75xS8x64ugSuOsgKOD8zU1354K4nzsqU/g8Wc/3YaUjFM6kQCVVU6Fl9hES5aiXDLF2SaEKUuPBTklVW/sVcdUjwUDkxPcn6E5pnpZ0etjqoQS7S4JU1QBlIIUTSZ9TBXzrPApY4a69MmYIsIZ8ftRq0mYymfY6lTIFfHuz3+JU74wqqYeto1S/wbCFG17HHY7Hn78STz5/IudiMs4tw0JFDIppEKEKWr4VkQuQZhSqydaJUxRzrXN5mCdNDAxzjt6GVO0mNdqVMlV6CkJU0Q0SxXGDuspikGgAFTGVF7VU4wpF+spm8OBHqGnGFMZWOzW9ZhKRBH1+TjFUdVTJa7tQMWQivmSiilvGBWTWcUU6amqiinSUx955DF8/PhnuqaaYoM0x0a9GET8QbM6CLq9GFplMYhqinoEgcgCEQTxz+jm2GASUgZDKkgTL4NyQU35Iv8wLdbky6dFOJ1MwDk8Dpudgg7NsPc7MTAxpgYlms2cW8yVyThAkXKUq9yzgTQvpSPShCazE1kRitkcchkFRTLJmc1c556yGYgFkhJ20Y7P6YSphxo8rcBEdRHKZeSpBGmPGY6+PpSyaR6T4g9iAT+5AjE44kI5rzDhGBoewcmfvomfv30SwcoKZmZmYK7V4I/EkEeNr2e32fDEJ57Fk88ZBKEN/dzRKVwLgTCVV1AuVBlD5SJhysUYOY2psQ4wRTELva0xRdYlUu4cZwAmlkNDI40xZTbD0d+HMlmyikUU8hnEAgFUKiuMqUo+wybmoZERnPrpz/Gzt04gVFnBrpkZ9KyswBeJorBSQ7FSQa/Vhsc+/jQ+bhCEjvDSzsnUuZFiWwhTlWKV9RSRTnJRUT2DlNBTQ6Ow2ckNRXqqn0lCYz1VgcVCxua6nmJXqqSnshm1YV0dU2QBpUNgqt/p5GuTa2GNnhKYooDvArlQVT1FgboyplzDI5j7+S/ws399j/XU9MwukIb1hSPIr2LKio898RSePv5yNxKEv663edaWWhaWg3azGEjsHMDWLAZBbvks4hCEBYF+NrIgGM2amsxA6sGQCrq5S1pBySATT3C2AaUbVooFNn953YuoogfTu/dwTq/FbMLgjimVQVst3FyEfnKQSL33AjF1IgslKuGcJzKgBihmkmkkQkEk4jGUyTJhtTMLp0lMVeyGR0bhGhqisomsmLmXg9mEdDyGaDCIftcQJnbuRJW7BFaQSyc5yLG3t5dKMLLbwbJSwdzbJ7AYSsBKi4PLhYX5BUSVDOVfsrXD0efAZ1//Mm649Y529JNxTgcSoLz1VMjNtfILmSwy8ThWVgSmiuwW8i0torxiwq49e09janInbH19TTBFFgYK7MqjnCvUMQVkkqmmmKLF3TU0DFOtpvqt6z1DqGUzYapv0IXJqSkJUyn2ddspBqFWRa6Oqflfn8BCMA6rawTO4SEszM2vwRSVZv7Ma1/ATXfc1YG0jFPbkQA1UCI9RenXFCelxONsOaS0a9ZT8Qj87kWUqnVM2ep6qgmmyP1gobb0OpjKptJIBANIJGIoURlnm50tqrQhslh6MER6apgwtcIWToGpdCKOSCAAx8AgJqen691MK2w144ZSvb0wr9SQU1Q9tfDO+5gPxGB1DWNgZBgLcwuIpJVVPUV67YVXX8Otd9/XjpjOi3MaZDEQSRBWBL1mTSJIkSwJcpCi/ExtNWuilUZLEERworbds+joaGQxNIAOKcJU2INSTkEhleIdPrV8JrZcpm6PsSj8Xg+8Hi9H0s7s3g2Ho5fjEchkTBOUMg/I9UABasSuyT1AE49MeWQOZoJAfRZqVaRicfiXFuDzeKEQATD1sBmQfHs0AfudA9i1axp9/f18P1TYiNMjyaWQpsZLWThdQ5jcNcW7QiIHFpOJfcoWrHCJaPJHppIpLCx6kMgVkS2XEU8rKFE7anMPRodHcM+HP4IHH3kCA4NG1buN1ipcIz/s4ZRZSkNVMUWxKYSpMtLxKAJeDzzLHoxNTGLX7j3o6+uFzV7HlKNDTMUTCCwSpjxI62LKieldu9DPmEojkYirFVio8FZaQSaXZeK5Y3oKzoH1mCISStaFdDKF+SUPEtn1mBoZGsbdD34YH370CQx2Uc76Rr/7zRqPzPyMqWxaF1NKPAq/zwOP24PR8QnM7FExRT0Z6N1y9oCzn62dqp6ysc5ar6fU8vGpWALBpQXWe9RIaUXWU+Ye9DkJU9OsgwrpNJLxOLsHKANLSadVTA26sIPOIUxVaYtlYtJMeooxVSJMpVlPxal9fbmCOMXr1HuJDLuGcNcDD+Ijjz7JZKSbjgZZDBR7QP/kWgitshjEY7OboZ0sBpG9oM1ikC0IwsVg9GJogSoK8EpFvCjnUsgn07zjI7NaqVziUsWpWAzhcAg+rw/JVJojtA8cPIDhwQGeJPa+fjgGXbBT/YJ6/wV7Xx8HDhEhoPgD8glzDEKlxhPJM3cKy9RaN5XmzAcy+eeKVEhELYFKk25ychy2HgtSqSQymQwTDGLuNLkLxRJqJhP27d+H/Qf2oo97pVNHygJy8QSSsRhSmSyi0Qg8gQjilGoEYNDlwsFDh3D/Q4/isiuvQl+/UTN/M5QOYyrqQzmbZExx8CultDKmcnVMBeH3+bifwdjkFGNqxEWY6oe9z7kOUzZHH1uJqJ+HFlOpeBzL87NYXiRMpSRMFRkn1GNhwNmPickJ2HssSKdSjCnKflAxtYJCqchxKiqm9qG/XmGTfN7ZRB1TShaxaBSeYBixnIqpgUHC1EV1TF0NMjsbx8ZLgHRJOuJHKZtYgykinJQNlYzGEImE4Pf6EE8kMbpjJw4ypgZ5s0FuUaGnOB2bGiIREe116GIqnUhgeW4Wy0tLjNHTekpgyoQBpxMTE+PotVp5Q5KhjCrq9aLB1N59e3Hg4P41mMolkqynkpmMiqlABLFcjqvBDrgGceCiQ7j/I4/g8qsJU91TRZHevMaCkJOyGAQ5ECmOFH+w4VkMwoIgMhjImkCEgH6XqyiKfgxGFkOT+UrKXIkFUMzEUVKyTAoolYt8/koygUQsjlA4CK/Xr/Yvz9AO3oUPXnUF9u+eYTD3WGzodQ1xWg4FfVEDpAHqcFajynRFZNMpFHMFDvqJx8i87IYvEECaI5ELyOYL3DOdJjsFBdH3eu293AWNiilxTQOTCUODAzz5qKJelbIhAOzfvw+XXHoJeqlL40oNeSWLdCwOXzCAKBVQqRe8uf/hR3DjrXdieHSUzYTGsXkS4IJIsQB35FzFVCbD5ICK2sTjMYRCIXhJmSfTiGUyjKnrr7oCB2Z2YcDlYreVjCkinYPDIxzLQjuvbCql1j1gTEVVTPn9dUwVkcsXEM9kOOBWF1OUOQPoYGqFScKljCnq9VFDPpNFOhqHPxhElIqHFctY6ekBYerY7R/C8OjYaibP5kn1wh6ZC7fFgigocS6IRQGBuTqmlFQS8Vgc4XAQHoEpJYP+wUEVU7tneHPAha8GXRzrZLFawZgaWY8pVU/VMVXXU7z5YExRarYavCjrKbIQUFyVHqYqK4SpvYwph0OtRJvP5FhP+UlPJVRM1cxm3P/QIzh2x4cwMjbe1ZiSshiIDFAGAxEFkebYKouBrAWym2E1aUEujCTPCDmToVkWg1wsSc5iMNo9N9AvxPZyqThyidBqShr5ZikwMUXxAokEQqEA/F51wc1SJzUA4yPDuPjwRTi8f7/qcrDbYXc62fUwND6OsR07+TwiBzQRkjxmEtFwGOFIlDstUv/zVDoNJUOtT3MoFIv1jAkTLPV2rNxUxWRGn8OOPdPTGB0Z5sAgIhN0P0RanP1OHDp8EVwuF0fOk7LI5HNwDLhwyRVX49gdd8E1Mto1QT7dvhQwptJx5OJhlHMZ5NIKx5CkU0mkEuQ2SqqY8gUQSSRWMTU2PISLDx/C4QP70efo5Ra39gEnxwK4xscwvmNKxZSSRjoaY0zR4hAJR1RMcZMbwpQCJZNdiymKq+FYF7Xip8DU7ukpjI2MqJiqVBBLEKaSbF06LDBVLCARjUMhTDkHcfSKq3HTnXcbmNpCoKqYSrCe4nRUpY4poafiCYTCqp6KJEhPVRgro8MuXHxIxVR/n0PFFFk+HQ4Mjo1hYqeEKdrRx1RMReuYUuha+RxSKQX8f8owID1VpqZM6zHlcNiwe2oa46Okp8y8wYmuYqofhw4dwtCQizdOCbpWLodewtTlV+GmD93NVTjlNtRbKOINu1SLZk3aXgxyFoNcC4GNEdJNrXEx6LkaRKEkYUEQ1RRFDQQRqEhuBdl6QL8bBKHh6yfTPAWVeVErFZBLpREPBhH0+xCLJZBMJRAJBRGLp3gxnpqexvCQC7FYjGMDJndMYmBwAIP9Tp6Ag4ODmNq/H3sOHWaGnSX/XDjCQWTRcAjLHh/cXi+ytLOnNEpqyZzJcb4x7Q7Zz1Rv9CRashJZGBl04uD+fZiZmmLLQlpRcGp+AZ5ACJlCEXa7DTsmxjHkGsTo2CiuufEW7D9yKcYmdrDf0Ti2UgIrnI6WCnm4KBERhHgwgJBPYIoW9SCiMcJUEjunpjAyPLSKKXIFEI4Gnf1slqU4kal9+7D38MWMESosQ5iKEy7rmFryEKbUbp6EqUwmh2I7mNq3D7umpzidjDp/EqaWA0Fk8kXYbFbsmJjAsGsQI2MjjKkDRy7F6ORObhRmHFspgTqmwl5Ui3nkGVNBBH3eup5SMRWLpXjjsGPnTt5MxCk2YGUFk5OTazE1MICd+/Zh38VH9DHl9cG97EWmqDaUI5LAmKpnZGn1FBFOq0XVUwf27sXMrmnGFLmyTi4swuMPQskX6phS9dTIKOmpm3Hg6GUc32Wx0FLW/UeLXgzCvSAqKjbqxUCCEFaEdRYElr8kKpkcaGMQRD8GbRaDKJbU0sUgTNl0PTIV6R03H7se3/zdr2FwsLv8Qe3AjYLHkmEPasU8MrE4p3kFvV74/D6EwlGEIxE2rxHzvezoUU4RPDk/x6Cn3uXUve7qa6+Gw2pl9n3xJZfg+ltuZR8v1RiP+3xIxSIIBUKYX1zAyflFKNTy1GxGsVTiamccZMBZEBzIwNSxhzIbenow2N+HqckJ7N41g/GxEa7BEAqFcXJuAYFIDNl8HitmwGGzwzUwgN/42tdw5Mrrts2Ea+cdnm/nqJjycpc7yoyhNK+gxws//azvzmg3NuRy4dKjR9icf2qOMBVAvlzhLpvXEKZo4U4mcejIEdxw220qppS0iqloGOFgCHOEqbklVsDtYmpgFVO7MDE2ypgKhyM4OTsPfzSGbC7POVWk5IcGnHj1K1/FJVddz6Zp4zg3EuCA6oiPa6Nk42v1FGEqEonye3MNDuIywpTDgdn5eSwTpkplthpcfc3VcPY52EJ68PBhHLv9jlVMJXw+JKMRxtT8EmFqEelcnmtvtNJTVNRt0NmHqYm6nhof5Wwcuqf3Z+cRqN9bjTFlg8s5gM9+8Uu4/Lobtx2mGhAEIgbNshhE9oLIZhAtn2WwNc1ikNMchZtB1EAQ1oOOXAwUZHL/fXfzDpN2HXabHT/44Y8QjyfWzYDtTBDohSpRv1qhLJ1EhBS5ex5+qjXv88MbDKFcW8GtN96AXTt3wBsI4r2TJxGIxpArlnDx0Uvw5f/4Td7tLZ06wa2ex0ZH1ImXSiDq9fAOkuIY5pYWsOzxI1MooVgpo1AqMzkgBt7TQ//UbAayLhFnsFltGBoaxNTOSUyMjsHSY+bgRl8ojEg8gVyhwEySJiilSRJB+KM/+e8YGh0/N1rMuCpLgDBFcQiUv55PpRDxehBwL7BbwesPMKZKlSpjamZqJ2PqxMlTCESjbF266NBhfPWbv88Bq4wp1DA2OsqYIoxGPR7Egn7GJxEE9yqmKiiUSu1hascEJsbGGVOpOqbCEqbIRGy1EKac+MP/9m0Mjxtluc8lvFVMBTk7Jp8mTHkRWFqrp2jDcuuNH8Tu6Wn4giGcOHkSfsJUoYT9Bw7iN3/vDzAwMAD37PtArYrxMQlTXsJUAD6vnwmC2+ODki+hWK1wLFMzPWUlPeUaYD01KTCVVvgehJ5SN0CnMfX7f/wnGN85fS5FuinX1nExUAyCTBCE9UAEKMrNmrSdHMU9rstikK0IIgZB7scgXAyCJMh9GISLQaQ5kovh00mKRq0f9KL27tmD6V1TWKZ0q7FRVmq0wLz5818in6dnOn1sd4KQV+LIJWM88aI08ZYX4feHEAwFEQyEgJ4e3HLTMTjsNix5fVhYdLOvj3LMX/3N3wE1qhFHKZ9FNh7kYDJqY5qIRBD2uLGwsIT5hXkEwjFk8nnkyhUMj4zwhKUFnuIYqAZCr6OPzX5KKoVwMMDBSHRdCoikQkmFQhHpVFqNWaD0SbWgKitzeqe/98d/CpqwxnHuJEBziap05pJRFFYxtQR/IIRgMIhAMMQuqltuPoa+XjvcXh/m65hyEaa+9ls4cvmVpzFFu8ZYgAPEVEyFEfYsY3FxEXPzCwiGo2xBoNbLhMlBgSmbHYPDQ3DUMZVJq5jKKjqYSqcZW6uYon4kFgv27JnB7/2XP+XMHOM4dxIgTBWUBJfyLlDLbR09RQGBt958E/odvVj2+TG/4EY4kcDg8DBj6ugVV60+ALnBMjG/iilyWwk9tbiE+fl5BEISpoaH2UXBespmw+DQEBx9/aynMul0HVMK6ykq7d3X16/qqXWYqsFqsWL37hl84z//122bSSUFKYosBlEHQZAD8VN0dJTrIAjrgfipFtHRcSuIXgzib8KK0Kibo3AzyL0YRKGkNQSBzOUH9u3jaPoPXHctYrE4v0xKoyJf0Ntv//qCIQj0oNQVTYn4uflRKhSEf3ERS4uLCIZDiIRjXKfgissu5QyCRbcbnkAQZpsVTz3/Em6++741EbdU1IQjjvNZpEMhNgkHvT6cOPEeFhbcnOs7c+Agrjt2Cw5efDGcA4PMzi02G6f0UDER+j2jKPAtL+En3/8u3vv1W/w3yl0mYlCk7n3lMnL0s1Ti2gvkYrjptlvx2a/8dtcH+pw7NbxxV6ZaGkrEx1aEVDAE/9Ii3IuLCISCjCnqCnolYcpsxpJ7GcuBAExWK5781HHceu+DazFVKiATDXBVuhRjSkHQ58P7J97D/PwSY2rX/v247titOHjxEbW+hQ6mshnClBs/+Yfv4d23/o3TElVMlerpvWXkqfpdHVO9NjuO3XIzXvnq73R1VPnGvdVzOxLX2CA9lVOQCoURWFrE0sICgiHSU1FOa73y8svYNcl6yh+g/Gg89uyncccDH1nzDql0MllOVUyFWU+F/KSnTmBhfgmxdBrTe/fhuptuwUVHjnJKK2PKakN/PXiWfs9mMvB7CFN/h3ff+hUv+oSpImGKdBUREMZUmXs3EKZuuOkYXvnKb28794JAh8lk+jaAv6pnMMiVFEUmg0hx1Cu13DKLQSYLcsMm4VqQAxVl94JwMch1ECgGgQolrSEItGu97Zab4PH5MTLkwsjICOYXFnHlFZexBeHEifcvKIKgNtmhTIYMMsk4/KdmsTQ/D/eyB9FonJX5zK6dDHZvIIRsqYiHn3wa9zz8CEcGywdNPGoAVcgqiFHwGLkZ2L87i7m5BWTLJXzyM6/itnsf4F4OzQ7q2vezH/xf/I8/+zZXKyOfMJEBsvBQZDHFjNitFpgtVnZRPPjoY3jk6efPrRYzrs4SUDEV5k52jKnZObjn57G0vKxiCibM7JpCsaxiKlMs4qHHn8K9H3ts3W6dcMCpk9kMYhTkmkwgFgnj5OwcZufm2S3x8Rdfxh33f4SzFdaGMK19ITTWL374XcZUFSZdTNmoQmgdU/d/9GN49JnjBuk8D3AtY4owwJhamGeCSZiiOgIzMzs5y4ncWEqhgAcfeRz3P/qUuvGQjioVgpP1VDKBeCSC9+t6igIUH3/+Rdz94Y+y+7Ippipl/PJH38P//LNvo1ytcUzNaT2V4ewsGVP3PPQwHn/mOAfVbrej7mIggvCXEkEgkiCnOYpyy0QQRPaCtopiyyzPfLxYAAAYXElEQVQGuR+DsB7IlRTlTo6CKNBqJf7JLoYXZBcDvRRnfz+bON/82S+4N/xFBw/As+xlq4L22M4uBlbmlHGQCHNFQjLhhpaWMPv+e1iYn0ckSjEZJth7rUhRsZhcHvc88AAefebTKqvWHDTxaGEgsx2ZgckUmEwmmWwsLC6AquS/8MWv4urrW3dSpCJL7/zzD/E333kD6WyOg9DIalCtVDgimOJIKMi0UC4jm83x7vPmu7qnLOl2Uw7y86zDlHsJc++fwPz8HKLRJCvz3l4bUkoGsWwOd913Hx5/7gUM6FQipOZcuUQYuUwaEY+HYxqSiSTcHg8WFqhs8wo+/fkvc1R4qzQxahX+7k9/hL/5328glVE4CC3HqWsVLvs8SJiiRjrlMjLZHB575lO47d4Ht/Or6ppnUzEV4ZLLrF/cbsydUDFFeooSoSjVkDGVy+H2u+7h5lmDQ+srEZI1gtIm8xkFYYGpZBLLhKn5BRRrNTz3uS9wJ8VWmKLy3++++U/42++8gUQ6zZjKF0vcdZQwRXqKarVQzw5FyeCRp5/FHfd/mFNut9tRJwjf0lgQRBVFOYtBuBfkGASRuUBiUdPa1KOtNEc5BkFkM4gsBjkGgSwIspuBLAjrCAKlxh09coSj8zOZLJufyJ9JKXwXGkEghptPRVApUApRCv6FBbz71luYm5vnYjZU3IOqGCr5PPYePIjP/843MDap3/eeJl4+FeX646TMg8tuxGMxLmSzvLwMS18/XvrSv8OBi4+2nBu02/OcfAt/98Yb8Hi9XLK3XK7AbrdycZ2B/n72GUfjMWrfgOde/TznqRvHuZeAFlOBxUW8w5iaQzxxGlOZQh4z+w7g9a9/A+OTU7o3Tq2dc6kIZ8VQcFrQvaRiKhDAsnsZZocDL37xazh09LKWD86YOvU2/v7P/5zxSOW6qd4+NSMj1wQpcxVTcVRqNTzz8m/gsquvazmuccLmS4AwVUhF1Y0MuS4FpmYJUylUuTWnqqd27d2PL3z9m1w/Q+8QmMqTnvL6VExFoyqmlpcBmx3HX//qmliYRk9I7jTvqV/j+3/xBpaW3KcxRZsY1yAH2xIhjiXiHJz79Euv4oprr29JPDZfoht/BYkgkAVBxB6IDAa5zLI2SFG4Fs6oF4OgWo0KJYl6CKIfg6iHwGmOt3/oY8cTydQ6ew5FzJM5iKtgUdnfstqx60IjCFSzIJcMM0HIUv+FpSW8/S//glOzc1wO1FJnxGa7DZ//ra/j0mtIYcqZqKclpk68GAepxSjI0b2McCAAr88Pj2cZ49Mz+PTrX8Hk1K6W6CSwpWMB/NP/+Qu898573HaV3ApWmw3Dw8Pos9u5dvnisgeusTE8/7kvYGpmT8txjRM2XwIqpoh0UlpaDIE6psgtkFQUxhRnHFiteO3f/wdcft31TTBVRS4VBbWSZkwtuxGhbAifH8ueZYzsnMbx17+Cnbt2t3wwFVNB/Phv/xLvvP0OyKJAJMFqs2J4eIQxVa5jamB0BJ965XVebIzj3EtgFVNFClqNIeh2s54i92UivRZTFJR41QdvbIwpxqeKqXh4rZ5aXnZjaHInjn/+y5jes6/lg3MmWDxUx9SvUSA9RX1irFaMjJCe6lUx5fHAOTSMZz/7GvYcuKjluN14QrVarVoslj+TLAjaFEe51LK2DoJMDhq6GIRc5BVIJggiSJE+Ex0dtRYEkclAP++6+bYHX1Iy+aEzFfi2dzFwSmIMpWwKqYAfvoV5vPvOu5hfWEI2k+USyqTM9x09gi994w/rqYj60qyR6S4VZX9xMhJCYNkN79ISltxuBAJB7D96KZ773Be5I1o7BxVy+ufv/RXe+tW/cfGbfC7HAYmjQ0NsvksXCphbXMRFRy/FJ158pe1x27m2cc6ZS0Ct0hlDKZdGmjE1h3ffoaDCRa56SO8uXy5hz+HD+PI3/6hp8SEmnckIChTwGAkjQAFoS0twL7sR8Aew+/ARPP/al7nscTsHRbD/9O//Gv/6y1+dxpTVhtHhYb4v8l3PLi6ylevpF1/B8JiRNtuOXDf7HIGpci6t6qnFebz3zruYI0xlVEwVyiXMHDqEL/7uH8DeJPNEYIpbSROmWE+5seReYkxNHzyE45//CkbGJ9p6LMLUm//wN/jVz/8FxVKB46R6LVbGlE3C1L6LDrMFYXRie6bNer3e5MzMzJ8A+EfJgiC7GESAomxBEFkMgiDIroZV+bdq1iRcDHKxJJkgaFMdiRyQBWHvFVd+8KsW++BFjQohtULAdicI9Py5dAwFJYno4hyWT51i64HXF+CytRRMWEENN997P5749MtNxVUpF5kgcEZENIyQ14flhQX261G08dFrPoBnXnkN/ZS90MZBtf3f/skP8G8/fZN9wrmMwumoTkcfTBYLgrEY3D4frrnhJjz6zPPbNnWoDVGdd6cQpopKEpGlecbU7OwsvN4A0hKmbrzrHjz1witNza3VMvVfiHJGRDoaQcjjxfLCIhYobTYYwuErr2Z/sVMnJkZPKISpX//0h/jXn/wzx65QdsOgcwADhCkqxBWPY8nrxZXX34DHnz3edQ1zzjsgbOAN5dNxVU+5VUydOjXLlqS0koWlx4IyavjgnXcxptSaKvoHxbVkkxGu/5IiTHm98JCeWljgdNyDl12O51/7km5MTCNMvfPmP+FX/+8n3HU2qxCmnBhw9DOmwvE4Fr1eXH7tB/DEp15Us7e22UEE7lvf+tbsSy+99J8ALEnFkQRB0Gv1LIITtTUQZAsCSWpdoSQhPkEctFkMWgtCo7bPfROTO5/au//S+6s108iZkIQLgSCQSyATDSI0N4u5E++BytdSxcJsJgdzjxkrZhMefOpp3PXwYy0JQp52e0QQIhGONl+em8Opk+8jEIzgkus+gE9+9rW2lTmBzr9wAj/7x3/gToDUpGdgYJCzFshXPL/sRjSV5qyIBx99incRxnF+SIDMt5TyGpo7hXnGlA+hYFiN+alj6r7Hn8Q9H3uyBUEoqRaErMKYomhz9/wsZqlgVzCMw1ddg2dffb1tZU6YCiy+jzd/8H1uQa5iamAVUwueZUSSKdx81z146PGn2aVlHOeHBAqZpKqn5mcx915dT2kwdc8jj+PeR59qmppKwdSqVYowFUW8rqdmT51UCcLlV+JTv/FF3QBHPUkQpoJLJ/HTH3yfe4WQO3QNprweROJJHLvzQ/joU8+sy/46P6R7dndx4sSJ+Msvv/y9H//4x/+r3qBJxB5o2zwTUZBrIOhlMLQkCHIWg16xJJkgyAWTRBaDCFa09/T0jA8Nj94/NbXn2pHxnZNWq20AMK2hlybpdmSqQp9/4ANX4StffpUDmJodFMdAQNEenX6+VdeQ76uUz0CJBhAj0+3CPPyBILsEcrkCrNYeXozveOhh3HLvh5vKgHZn1HWNJp4SjXKpXO/CAk7NzSIciuDgpZfjkeeO88RrV1alQhY//8fvIhUMc+QD+YtJyhStvLC8zBHHd973Ydx4+11rFpozkXun32l0/rl4h/I1O32OzbhfKpqVifgQXXazFYkwRf9y2TynI5Id8bYHP4LbHniI31sjPJA5mAhsIZOGEotASabgW1zk8syhYAj7jl6Cxz51Olq9nWcvFrL45Q8JUxEOkiZiSVM3lRGYWsHt99yHm+68V5e8tHONdt7HZshdb8xuu99GcikVc1DCPsTcS1hmPRViPZXN5mG1WkDFkm65/wHc8cDDnPXU6LkpI6KoJJBnTEWRTqbgXyI9NcfF4fZcfDEef/4zcA2PrN5Kq7lOeP/Fj76LZEDFFGVakZ6izrULHg/ylQpuvfte3HrX/TCbe9rWf62W7Y18t52OVavVqn6/X/nOd74TeuONN3751ltv/V2pVApL1gOR3tgoQFFu0iQCFdliID23bqEk+rteTwbhYqC/CReDIAhECvRcDSKrgUJaKeKov36e+L7stpBdGXKxJrqfZnkpqxWfNC+00edNdYNGQLI1ZT0DaYUg/b9v5P02uoONvMZGjrUV99vpNc7kLRoyWS+1bpNJt91vp7g29F/7GD2Xa4J2QdZWNJQXchFcSJ+RNUABsAiAagRQ9URhMdDLXtArkiT3YBDpjU0rKWrJgTaLQdRDoAWeLAGyBUEvYFFrVRDnyGmSYiwaT+79IFsvtKH7Mvjb/b+WHcnPKl5Su2M1Ol++xtmOtRXX6DaZiPvVynYj5a43lsDf+YgTQybqhkZ+N92Ga2Our3+HF4pMxHPKxEAOGpQzDoSLQMQUyC4EOSBRfE7n0f9lciAXSWpEEARhWmdB0LMeiB28nOqo7ckgV1bUdniUf9cSBGFJEOPJVgShlOVYiFbKUMuaxe96n3cylrxANLqGloU2+k47YzW7X/k6Z3ONs73fdp7jbK8h8CjcXjLb1i7asrWnk3crX6Pb7rcbcLLV79CQyWkUG/pvLfHYyLm+UfpPz4IgL9xEEARJkBd6sfgLF4KWLDTqvyDGE8GJ2hTHdZbyRrtz2awvkwNhRRAVFcVPQRKEu4GsB7JVQQ5mlIkB/V92NchWC2FF0FsUm5mF5L+JxUV7fqPP2x33fLlGt93vVsjdkMmZSGD9d87l3DmTJziX92vgun38bOS73cixtuIdytfQWg/ExkZYE+RMAxFcSJ+JksmCBMiVErWBiVrrgSAI2tRG+V7EfbBstQRB+5lYpGWSIBZ04WbQuhpEfwbZYiD+L6dIyg2gtCRE3IfWknAmgNjo72h3KRs9fjeOZ8hk/VszZNKNSDbuuZUEDFxv3FzXWhDkHb3cbVEs7HImgnA1CCsCkQFBFsTf5NLKIp6BPqPrNrIerLEi6BEEeXEWBEFLFOSdv7YugqiwKFdalEmEIBZagiBcDPI19QhLI5OzHjvTPp+emXoNY6qTpkZj6X2uvcezvYbWOiF+l59Fe41OZHI+3K94pkbPIb+Ts32H7VzjQpOJVr7bAddnixNDJuqslF0T21Em58Nc13MtyBYEbRyCWNxFoSO58ZLWokCEQVgOhMVBdi1oYw+ExUJ33dFzMcgnyou1SFEUAYVybwbZ1aBHGARBkN0LWteCsCLoWQ+aLY56D9ZIWbTyHTVauM7kGq3GakQk9BZHLQFoVxm2s9C2O1Yn96t99s24RiNS1EruhkxOLwQXAq67DSdbMdcNmawPbG2lNzZD/+kRBbFgC5Iguxq08Qj0u3A1yEGMghjo1T3QVlCk517XpElvV6plVrRgCyCJ2AARgyAWc9kKIEiAHlmg2AS5hoL4vrBE6FkPZPeCEGQji4es6Iz/GxIwJGBIwJCAIYHzWQJaciA2LnLKoSAH2vbMYuHXkgJtOqPctVFkMDRzL6wjSc1cDDJhkC0JehkNcmaDHJugzVQQaY1a60E77gXty5ZNYTIj1n6utYi0Mse3O5ZMsjo1+W/1NRrdq3jH21EmrfBhyGStOVlvh3S+49qY6+vfoSGT5riWMX2u9Z+8IIv7EgRBdjPo1UPQZjhoWzlr3Qpy5cRGDZpk6yrfW7MdubyD18YiCEuC7G6Qaxpo4wzkmIVGaY2iDoKWmMgvsZP/r3vY+tsQE6gR4dC7hhhL/q7sruhkLNkaorWMNFuoN/IazcbSI1TtykR7Xrtjne8y0b738+F+tTg+E1y3eo6NxNy5vt92sWjM9ca1JQz9p6KolataS0Ka6UWBN/Ed4WKgz7Upj3LgorAOiJ8yYdBaHGRLhLAgyNfVW3caEgTtw4uHk90M4v9i4ddzOQiXgiAR8rn0mdZqIKc46k1mQVKEAGUCo0cGtAu4EIL2ZdHnsjtFFlyjazQbS+872vPP9hqd3q+QpyGTteVEtZNdXhzOJ5xo54OM983AdSucyPjtFIsbNXfOZ5l0ogNaYa7TsYy5vnYB32qc6OmNZu9Q62oQ65v4KUgBjSsv9HLRI20BJDmdUZAFMR79TUtKhIzWEZtGFgTZTCWfIxZpQQjk34kACMuC7EIQBEG2NsjkQAQ/aoUoxta7efme9EyjWsLQzvln8p12ri0vQht5jY0cS8/stplyN2RyepLqKbCNfLcbOdZW4GSz7ler69qZu+3oDUMmKoIbycqY6+3N9UZEoVHqo2xN0FoM5EBEratCtlTQnQmXhq4FshlB0FNcYtGWf2prJOjVTJAJhXAlyD8FiLQkQWbD8s5DZt2dfK5l17Iy0pOFbHrRTgCZRLW7mDb6zpmOJb+jbpNJt92v1hzfLh6avdutwtxW4KTb5qEhk7UL11Zh0cDJaeRpyaXWzaBnTRAuAlENUbYqyNYCbbaCdiwtIdkQgkCPJrsaZEuAvOBrCYGwEgjLgiAE2rG0lgstmLSTupPfG421Xa7RiSxkQtNMMZzJmI0Ub7ufn8k1t8s73Irn2Ej5Gve7XpqGTAyZyBJotu6IdVC7WIvvi92/2Olr3Q6CLGhjFbTnic2YHACpp4/XvblGFgRx43rKRJACcY6eNUH7mUwQ5O81izuQ76Fdc6C84xf3rt3BbdRYWva3Ffe7FddoZlZtJd/zTSad3O92wsl2eocymdWb09r5LCtkY643Lnyk1fGN5NjO5/J7EYuR9jO9z1vNT+13trv+k59XLPLiM9kCoHU76BEFmRTI35Xnk3i3utaDZiRASwz0TP9adwN9R1gRZMuC9rxG2QryNeQb17Is+WFa/V+MqV249ATSaqxG99FoLPGCznRc+Xobfb+NJl4zOXXyHIZM1hZi0VOEWmXXiXy1WNQunPL8PdNx9eaO/NmZjrtZuDZkoo85Y66rs6HZBqAd7HSC9zPRf7KOEP+XayJoCYMeSaDnkIMa5e/IY8lrkx4+VvVHMwuCHgPUkgqti0D8XS/jQY9QyKRAq3waXV9LHmRGpL0/rWJupuBkpdrqGq2UeyNysNHXaPbs2hff6tkbyarbrtFt97sVcr8QZGLM9dMLofy+tQvbVukmA9f6bcgbEQ3tHJV/b2RNEISgERFoZDmQ16ENIwjyoikTC+0iL/9OF9e6EbTf1Z6vvflGxKET85Qee9QjR+2Y0xox0a26RjOSYcik9aRstpvYqneoNYN3gkV5QjfD4oWEk+0qE+07lHFizPXtMde1VlsZy9q/aRd8+Xdxrt45jUiA3rXXrL/tWBDkLzRazIV1QN5Z61kHtN/XXr/T+9GSCeN3QwKGBAwJGBIwJNDNEtAjBnrEQWtZEOfIZKGZhWBDCYLe4t3IkiATBS1p0H6nkTlfvGDZgqC3+xMCaGRK0yM4WsE0YubNGLv2vjbqfs/kObQ7SUMm632O200mBq5VCbQ7D7XzU4sHY66rEpItE4ZMzo1MtBZG7SLfjABoLQnyminrjJbkQLuIt8u4mu3yZUuCPJ5wM+gptVb3IS+Y2u+39ZBtPFija7Tx1XWndNv9NnrGC1km5/IdboXcuw3XhkzWvzFDJmeC4va/sxXybXaNRlYELVnQIw9a95NMOPS+31AqG2HSlxm8PJ4gBVpGqr2m+Lu8C9Y+oCjn2uhz8YBCqOJ87efNGHGn19B7DkF2xLOc7XNs1f3KcpJBa8hk7Y6K5HS2MpF3ad2Gk82+X7HBEKZTPSwac/20772RnjP03+klr5GFWu/zjdTX8kLcDq71rNryZ/L9NrIgiPWCMhbkudPIytaSLp0NQdBbvMQFG43baMGTLQydmri0ZpNG12i22OqRHD3WJZMYvUV1K64hW1y0gO702bfifrfiGttRJpuB61ZKsVP86MldJkCdzJF2cLIZMtnM+9WaijuVryET9Y030nPbXf9pCYKMB5kEaHHSaOHv2OJ+NgRBVg4tmUiLzpHtfF9cr92HlBlUq/E7ObfVWPLfOxm3k3O34hqd3M/5du75dj+tMHM+3O9WYKqVHLbiHjqR9Zne71Zco9W9dXIPnZzb6rpb8Q634hqdyGSzzm0m63bXQUGwOnlvq+eeLUHQXlSPyXR6Db3ztbt5eWeiR1QamZX0dgvaXY72mbZirK24xpk+e6P30YggNntXnYxlyGR9O3ZDJoZMZP3Uifm8HT3Xyfw8U33Sbfr6XMtEb2FvtR6eERnQ+1Kni3cnF241diPzWzuft2JW4trtjNXMDNjoOsa46yVjyESVydnIodHE1yOtZ4rxzZo752Jc7WJpyMTAX6sFtdP52e6a1+m4Gz3XBfHqxLLQ8tlaLeItB2jjBL1J28bXOj6lEzNPq8E3cqxG19rIazQaayuu0UqWnfx9K+53K67RyTO3Oncr7ncrrtHqOTv5+1bc71Zco5NnbnWucb/rJXQhyGRDCYFWhFtBEFoB2/i7IQFDAoYEDAkYEjAkcJ5JwCAI59kLMW7HkIAhAUMChgQMCZwPEvj/cG93s4xHgvkAAAAASUVORK5CYII=;" vertex="1" parent="1">
                    <mxGeometry width="866.66" height="750" as="geometry"/>
                </mxCell>
                <mxCell id="3" value="" style="whiteSpace=wrap;html=1;aspect=fixed;fillColor=none;fontColor=#ffffff;strokeColor=#A50040;strokeWidth=5;" vertex="1" parent="1">
                    <mxGeometry x="70" y="70" width="750" height="750" as="geometry"/>
                </mxCell>
                <mxCell id="4" value="" style="rounded=0;whiteSpace=wrap;html=1;strokeWidth=5;fillColor=none;strokeColor=#00FF00;" vertex="1" parent="1">
                    <mxGeometry x="90" y="80" width="710" height="710" as="geometry"/>
                </mxCell>
                <mxCell id="5" value="" style="rounded=0;whiteSpace=wrap;html=1;strokeColor=#3333FF;strokeWidth=5;fillColor=none;" vertex="1" parent="1">
                    <mxGeometry x="120" y="470" width="190" height="250" as="geometry"/>
                </mxCell>
                <mxCell id="6" value="" style="rounded=0;whiteSpace=wrap;html=1;strokeColor=#3333FF;strokeWidth=5;fillColor=none;" vertex="1" parent="1">
                    <mxGeometry x="370" y="470" width="190" height="250" as="geometry"/>
                </mxCell>
                <mxCell id="7" value="state: eyeColor" style="text;html=1;strokeColor=none;fillColor=none;align=center;verticalAlign=middle;whiteSpace=wrap;rounded=0;fontColor=#33FF33;fontSize=18;" vertex="1" parent="1">
                    <mxGeometry x="520" y="90" width="160" height="30" as="geometry"/>
                </mxCell>
                <mxCell id="10" style="edgeStyle=none;html=1;entryX=0.547;entryY=0.004;entryDx=0;entryDy=0;entryPerimeter=0;fontSize=18;fontColor=#33FF33;strokeWidth=6;strokeColor=#66FF66;" edge="1" parent="1" source="8" target="5">
                    <mxGeometry relative="1" as="geometry"/>
                </mxCell>
                <mxCell id="8" value="offspring" style="text;html=1;strokeColor=none;fillColor=none;align=center;verticalAlign=middle;whiteSpace=wrap;rounded=0;fontSize=18;fontColor=#33FF33;" vertex="1" parent="1">
                    <mxGeometry x="560" y="130" width="60" height="30" as="geometry"/>
                </mxCell>
                <mxCell id="9" value="" style="endArrow=classic;html=1;fontSize=18;fontColor=#33FF33;" edge="1" parent="1" target="4">
                    <mxGeometry width="50" height="50" relative="1" as="geometry">
                        <mxPoint x="400" y="440" as="sourcePoint"/>
                        <mxPoint x="450" y="390" as="targetPoint"/>
                    </mxGeometry>
                </mxCell>
                <mxCell id="11" value="Props: name, hobby, eyeColor" style="text;html=1;strokeColor=none;fillColor=none;align=center;verticalAlign=middle;whiteSpace=wrap;rounded=0;fontSize=18;fontColor=#0000FF;" vertex="1" parent="1">
                    <mxGeometry x="100" y="430" width="240" height="30" as="geometry"/>
                </mxCell>
                <mxCell id="12" value="State: weight" style="text;html=1;strokeColor=none;fillColor=none;align=center;verticalAlign=middle;whiteSpace=wrap;rounded=0;fontSize=18;fontColor=#0000FF;" vertex="1" parent="1">
                    <mxGeometry x="403.33" y="440" width="136.67" height="30" as="geometry"/>
                </mxCell>
            </root>
        </mxGraphModel>
    </diagram>
</mxfile>